<?xml version="1.0" encoding="utf-8"?>
<!-- Generator: Adobe Illustrator 16.0.3, SVG Export Plug-In . SVG Version: 6.00 Build 0)  -->
<!DOCTYPE svg PUBLIC "-//W3C//DTD SVG 1.1//EN" "http://www.w3.org/Graphics/SVG/1.1/DTD/svg11.dtd">
<svg version="1.1" id="Ebene_1" xmlns="http://www.w3.org/2000/svg" xmlns:xlink="http://www.w3.org/1999/xlink" x="0px" y="0px"
	 width="24px" height="24px" viewBox="0 0 24 24" enable-background="new 0 0 24 24" xml:space="preserve">
<path fill="#FFAB28" d="M10.9,2.1c-4.6,0.5-8.3,4.2-8.8,8.7c-0.5,4.7,2.2,8.9,6.3,10.5C8.7,21.4,9,21.2,9,20.8v-1.6
	c0,0-0.4,0.1-0.9,0.1c-1.4,0-2-1.2-2.1-1.899c-0.1-0.4-0.3-0.7-0.6-1C5.1,16.3,5,16.3,5,16.2C5,16,5.3,16,5.4,16
	c0.6,0,1.1,0.7,1.3,1c0.5,0.8,1.1,1,1.4,1c0.4,0,0.7-0.1,0.9-0.2c0.1-0.7,0.4-1.399,1-1.8c-2.3-0.5-4-1.8-4-4c0-1.1,0.5-2.2,1.2-3
	C7.1,8.8,7,8.3,7,7.6c0-0.4,0-1,0.3-1.6c0,0,1.4,0,2.8,1.3C10.6,7.1,11.3,7,12,7s1.4,0.1,2,0.3C15.3,6,16.8,6,16.8,6
	C17,6.6,17,7.2,17,7.6c0,0.8-0.1,1.2-0.2,1.4c0.7,0.8,1.2,1.8,1.2,3c0,2.2-1.7,3.5-4,4c0.6,0.5,1,1.4,1,2.3V20.9
	c0,0.3,0.3,0.6,0.7,0.5c3.7-1.5,6.3-5.101,6.3-9.3C22,6.1,16.9,1.4,10.9,2.1z"/>
</svg>
