<?xml version="1.0"?>
<svg xmlns="http://www.w3.org/2000/svg" xmlns:xlink="http://www.w3.org/1999/xlink" version="1.1" viewBox="0 0 192 192" width="24px" height="24px"><g fill="none" fill-rule="nonzero" stroke="none" stroke-width="1" stroke-linecap="butt" stroke-linejoin="miter" stroke-miterlimit="10" stroke-dasharray="" stroke-dashoffset="0" font-family="none" font-weight="none" font-size="none" text-anchor="none" style="mix-blend-mode: normal"><path d="M0,192v-192h192v192z" fill="none"/><g fill="#ffab28"><path d="M40,24c-8.84,0 -16,7.16 -16,16v112c0,8.84 7.16,16 16,16h112c8.84,0 16,-7.16 16,-16v-112c0,-8.84 -7.16,-16 -16,-16zM40,40h112v112h-112zM62.23438,50.53125c-6.856,0 -10.96875,4.12138 -10.96875,9.60938c0,5.488 4.11325,9.59375 10.28125,9.59375c6.856,0 10.96875,-4.10575 10.96875,-9.59375c0,-5.488 -4.11325,-9.60938 -10.28125,-9.60938zM51.8125,80v56h20.1875v-56zM88.65625,80v56h20.1875v-30.60938c0,-9.112 6.50112,-10.42187 8.45312,-10.42187c1.952,0 7.17188,1.95787 7.17188,10.42187v30.60938h19.53125v-30.60938c0,-17.576 -7.81013,-25.39062 -17.57813,-25.39062c-9.768,0 -14.97812,3.2525 -17.57812,7.8125v-7.8125z"/></g></g></svg>
