<?xml version="1.0" encoding="utf-8"?>
<!-- Generator: Adobe Illustrator 16.0.3, SVG Export Plug-In . SVG Version: 6.00 Build 0)  -->
<!DOCTYPE svg PUBLIC "-//W3C//DTD SVG 1.1//EN" "http://www.w3.org/Graphics/SVG/1.1/DTD/svg11.dtd">
<svg version="1.1" id="Ebene_1" xmlns="http://www.w3.org/2000/svg" xmlns:xlink="http://www.w3.org/1999/xlink" x="0px" y="0px"
	 width="416.027px" height="81.96px" viewBox="0 0 416.027 81.96" enable-background="new 0 0 416.027 81.96" xml:space="preserve">
<g>
	<g>
		<path fill="#DDDDDD" d="M15.22,10.029v10.465h14.826v9.303H15.22v19.623H3.885V0.363H30.92v9.667L15.22,10.029L15.22,10.029z"/>
		<path fill="#DDDDDD" d="M69.876,49.419l-3.052-9.083H49.889l-2.979,9.083H35.644l16.57-49.058h12.864l17.225,49.058H69.876z
			 M60.573,21.585c-0.945-2.762-1.744-5.233-2.253-8.14h-0.146c-0.509,2.689-1.308,5.742-2.326,8.722l-3.197,9.23h11.338
			L60.573,21.585z"/>
		<path fill="#DDDDDD" d="M92.844,49.419V0.363h11.337v39.028h14.826v10.028H92.844z"/>
		<path fill="#DDDDDD" d="M155.275,49.419l-13.301-23.039v23.039h-11.337V0.363h11.337v21.658L155.42,0.363h13.736l-16.207,23.621
			l17.006,25.438L155.275,49.419L155.275,49.419z"/>
		<path fill="#DDDDDD" d="M233.119,49.419l-3.053-9.083h-16.934l-2.98,9.083h-11.269l16.573-49.057h12.865l17.225,49.059
			L233.119,49.419L233.119,49.419z M223.814,21.585c-0.943-2.762-1.742-5.233-2.252-8.14h-0.146
			c-0.508,2.689-1.307,5.742-2.326,8.722l-3.197,9.23h11.338L223.814,21.585z"/>
		<path fill="#DDDDDD" d="M269.967,33.213c-0.582,0-1.598,0-2.617-0.073v16.279h-11.336V0.363C260.228,0.145,264.881,0,269.967,0
			c12.5,0,19.332,5.669,19.332,15.771C289.299,25.291,282.469,33.213,269.967,33.213z M269.75,9.229c-0.799,0-1.6,0-2.398,0.073
			v14.39c0.727,0.073,1.381,0.146,1.961,0.146c4.725-0.073,8.285-2.762,8.285-7.559C277.597,12.137,275.345,9.229,269.75,9.229z"/>
		<path fill="#DDDDDD" d="M315.465,33.213c-0.582,0-1.598,0-2.617-0.073v16.279h-11.336V0.363C305.726,0.145,310.379,0,315.465,0
			c12.5,0,19.332,5.669,19.332,15.771C334.797,25.291,327.965,33.213,315.465,33.213z M315.248,9.229c-0.799,0-1.6,0-2.398,0.073
			v14.39c0.727,0.073,1.381,0.146,1.961,0.146c4.725-0.073,8.285-2.762,8.285-7.559C323.095,12.137,320.844,9.229,315.248,9.229z"/>
		<path fill="#DDDDDD" d="M346.935,49.419V0.363h27.617v9.521h-16.279v9.739h15.408v9.23h-15.408v10.829h16.279v9.739
			L346.935,49.419L346.935,49.419z"/>
		<path fill="#DDDDDD" d="M388.873,49.419V0.363h11.338v39.028h14.826v10.028H388.873z"/>
	</g>
	<g>
		<path fill="#DDDDDD" d="M14.865,81.723l-1.808-5.095H3.846l-1.865,5.095h-1.984l7.521-19.992h2.043l7.494,19.992H14.865z
			 M9.356,66.619c-0.386-0.978-0.622-1.867-0.89-2.873H8.438c-0.268,0.947-0.563,1.865-0.919,2.813l-3.139,8.529h8.115L9.356,66.619
			z"/>
		<path fill="#DDDDDD" d="M34.26,64.13c-1.718-0.682-3.583-1.066-5.331-1.066c-4.294,0-8.263,2.784-8.263,8.707
			c0,5.539,3.317,8.589,8.115,8.589c1.599,0,2.932-0.237,4.234-0.651v-7.967h1.896v9.121c-2.014,0.74-4.413,1.096-6.427,1.096
			c-5.864,0-9.833-3.612-9.833-9.861c0-6.042,3.968-10.604,10.514-10.604c1.836,0,3.584,0.268,5.391,0.83L34.26,64.13z"/>
		<path fill="#DDDDDD" d="M40.415,81.723V61.731h1.896v19.992H40.415z"/>
		<path fill="#DDDDDD" d="M48.557,81.723V61.731h1.896v18.422h7.641v1.57H48.557z"/>
		<path fill="#DDDDDD" d="M61.141,81.723V61.731h9.863v1.54h-7.967v7.375h7.582v1.51h-7.582v7.997h7.967v1.57H61.141z"/>
		<path fill="#DDDDDD" d="M85.807,81.96c-1.51,0-2.932-0.178-4.027-0.504l0.119-1.896c1.185,0.415,2.694,0.741,4.087,0.741
			c2.694,0,5.005-1.096,5.005-4c0-4.945-9.479-3.168-9.479-9.389c0-3.109,2.519-5.42,6.782-5.42c1.274,0,2.429,0.148,3.584,0.355
			l-0.119,1.777c-1.125-0.355-2.429-0.563-3.612-0.563c-3.052,0-4.709,1.451-4.709,3.644c0,4.828,9.507,3.08,9.507,9.33
			C92.947,79.531,90.22,81.96,85.807,81.96z"/>
		<path fill="#DDDDDD" d="M104.908,81.96c-5.923,0-8.768-4.028-8.768-10.041c0-6.723,4.206-10.424,9.271-10.424
			c5.479,0,8.796,3.672,8.796,10.039C114.207,78.228,110.002,81.96,104.908,81.96z M105.175,63.093c-3.731,0-6.99,3.052-6.99,8.441
			c0,5.184,2.28,8.797,6.96,8.797c3.702,0,7.021-3.021,7.021-8.472C112.164,66.292,109.557,63.093,105.175,63.093z"/>
		<path fill="#DDDDDD" d="M120.364,63.271v7.404h7.522v1.539h-7.522v9.508h-1.896V61.73h9.833v1.54L120.364,63.271L120.364,63.271z"
			/>
		<path fill="#DDDDDD" d="M138.219,63.3v18.423h-1.896V63.3h-6.19v-1.569h14.276V63.3H138.219z"/>
		<path fill="#DDDDDD" d="M166.588,81.723h-2.398l-4.413-15.164c-0.326-1.065-0.563-2.103-0.771-2.991h-0.03
			c-0.147,0.977-0.415,1.955-0.71,3.021l-4.265,15.134h-2.399l-5.42-19.992h2.043l3.821,14.425c0.385,1.361,0.622,2.457,0.859,3.701
			h0.029c0.237-1.186,0.504-2.398,0.829-3.523l4.146-14.603h2.369l4.354,14.838c0.296,1.007,0.592,2.19,0.799,3.288h0.03
			c0.178-1.007,0.385-1.896,0.652-2.843l3.968-15.283h1.866L166.588,81.723z"/>
		<path fill="#DDDDDD" d="M187.136,81.723l-1.807-5.095h-9.211l-1.866,5.095h-1.984l7.523-19.992h2.043l7.493,19.992H187.136z
			 M181.628,66.619c-0.385-0.978-0.622-1.867-0.889-2.873h-0.029c-0.267,0.947-0.563,1.865-0.918,2.813l-3.139,8.529h8.114
			L181.628,66.619z"/>
		<path fill="#DDDDDD" d="M202.296,81.723l-7.671-9.448h-0.089v9.448h-1.896V61.731c1.214-0.06,2.37-0.089,4.473-0.089
			c3.612,0,6.457,1.244,6.457,4.917s-2.991,5.599-6.813,5.657c0.592,0.652,1.273,1.422,1.808,2.072l6.25,7.435H202.296z
			 M196.58,63.153c-0.771,0-1.392,0.029-2.043,0.089v7.522c0.354,0.03,0.978,0.06,1.925,0.06c3.258,0,5.124-1.629,5.124-3.939
			C201.585,64.101,199.78,63.153,196.58,63.153z"/>
		<path fill="#DDDDDD" d="M209.166,81.723V61.731h9.863v1.54h-7.967v7.375h7.582v1.51h-7.582v7.997h7.967v1.57H209.166z"/>
		<path fill="#DDDDDD" d="M224.209,81.723V61.731h9.863v1.54h-7.969v7.375h7.582v1.51h-7.582v7.997h7.969v1.57H224.209z"/>
		<path fill="#DDDDDD" d="M252.135,81.723l-8.855-13.979c-0.918-1.42-1.688-2.725-2.34-4.027c0.09,2.369,0.207,8.382,0.207,12.113
			v5.894h-1.895V61.731h2.576l8.736,13.743c0.859,1.361,1.689,2.783,2.459,4.176c-0.09-2.813-0.207-8.708-0.207-12.587v-5.331h1.896
			v19.992L252.135,81.723L252.135,81.723z"/>
		<path fill="#DDDDDD" d="M266.199,63.3v18.423h-1.896V63.3h-6.189v-1.569h14.275V63.3H266.199z"/>
		<path fill="#DDDDDD" d="M294.566,81.723h-2.398l-4.414-15.164c-0.326-1.065-0.563-2.103-0.77-2.991h-0.029
			c-0.148,0.977-0.416,1.955-0.711,3.021l-4.266,15.134h-2.398l-5.42-19.992h2.043l3.822,14.425
			c0.385,1.361,0.621,2.457,0.857,3.701h0.031c0.236-1.186,0.502-2.398,0.828-3.523l4.146-14.603h2.369l4.354,14.838
			c0.297,1.007,0.592,2.19,0.799,3.288h0.031c0.178-1.007,0.385-1.896,0.65-2.843l3.969-15.283h1.867L294.566,81.723z"/>
		<path fill="#DDDDDD" d="M304.008,81.723V61.731h1.896v19.992H304.008z"/>
		<path fill="#DDDDDD" d="M319.228,81.96c-5.98,0-8.943-3.703-8.943-9.803c0-5.953,2.785-10.604,9.625-10.604
			c1.57,0,3.199,0.236,4.709,0.621l-0.207,1.777c-1.719-0.563-3.289-0.799-4.918-0.799c-5.123,0-7.166,3.998-7.166,8.678
			c0,5.361,2.369,8.471,7.463,8.471c1.629,0,3.613-0.504,4.887-1.154l0.209,1.688C323.316,81.516,321.39,81.96,319.228,81.96z"/>
		<path fill="#DDDDDD" d="M340.492,81.723l-9.004-10.13v10.13h-1.896V61.731h1.896v9.685l9.004-9.685h2.398l-9.242,9.685
			l9.537,10.308H340.492z"/>
		<path fill="#DDDDDD" d="M346.617,81.723V61.731h1.896v18.422h7.641v1.57H346.617z"/>
		<path fill="#DDDDDD" d="M366.074,81.96c-6.16,0-7.287-3.465-7.287-6.813V61.731h1.896V74.94c0,2.961,1.006,5.479,5.568,5.479
			c3.82,0,5.746-1.6,5.746-6.071V61.731h1.865v12.438C373.861,79.235,371.256,81.96,366.074,81.96z"/>
		<path fill="#DDDDDD" d="M392.929,81.723l-8.854-13.979c-0.918-1.42-1.689-2.725-2.34-4.027c0.088,2.369,0.207,8.382,0.207,12.113
			v5.894h-1.896V61.731h2.578l8.736,13.743c0.857,1.361,1.688,2.783,2.459,4.176c-0.09-2.813-0.207-8.708-0.207-12.587v-5.331h1.895
			v19.992L392.929,81.723L392.929,81.723z"/>
		<path fill="#DDDDDD" d="M415.375,64.13c-1.717-0.682-3.584-1.066-5.33-1.066c-4.295,0-8.264,2.784-8.264,8.707
			c0,5.539,3.316,8.589,8.113,8.589c1.602,0,2.934-0.237,4.236-0.651v-7.967h1.896v9.121c-2.018,0.74-4.414,1.096-6.43,1.096
			c-5.861,0-9.834-3.612-9.834-9.861c0-6.042,3.973-10.604,10.518-10.604c1.836,0,3.584,0.268,5.391,0.83L415.375,64.13z"/>
	</g>
</g>
</svg>
