<?xml version="1.0" encoding="utf-8"?>
<!-- Generator: Adobe Illustrator 16.0.3, SVG Export Plug-In . SVG Version: 6.00 Build 0)  -->
<!DOCTYPE svg PUBLIC "-//W3C//DTD SVG 1.1//EN" "http://www.w3.org/Graphics/SVG/1.1/DTD/svg11.dtd">
<svg version="1.1" id="Ebene_1" xmlns="http://www.w3.org/2000/svg" xmlns:xlink="http://www.w3.org/1999/xlink" x="0px" y="0px"
	 width="416.027px" height="81.723px" viewBox="0 0 416.027 81.723" enable-background="new 0 0 416.027 81.723"
	 xml:space="preserve">
<g>
	<g>
		<path fill="#5B5B5B" d="M15.224,9.911v10.465H30.05v9.303H15.224v19.623H3.887V0.245h27.035v9.667L15.224,9.911L15.224,9.911z"/>
		<path fill="#5B5B5B" d="M69.879,49.301l-3.052-9.083H49.893l-2.98,9.083H35.648l16.57-49.057h12.863l17.226,49.057H69.879z
			 M60.576,21.467c-0.945-2.762-1.744-5.233-2.253-8.141h-0.146c-0.51,2.689-1.309,5.742-2.326,8.723l-3.198,9.229h11.338
			L60.576,21.467z"/>
		<path fill="#5B5B5B" d="M92.847,49.301V0.245h11.337v39.027h14.826v10.029H92.847z"/>
		<path fill="#5B5B5B" d="M155.278,49.301l-13.3-23.039v23.039h-11.337V0.245h11.337v21.657l13.444-21.657h13.736l-16.207,23.62
			l17.006,25.438L155.278,49.301L155.278,49.301z"/>
		<path fill="#5B5B5B" d="M233.121,49.301l-3.053-9.083h-16.934l-2.98,9.083h-11.267l16.571-49.056h12.865l17.225,49.058
			L233.121,49.301L233.121,49.301z M223.818,21.467c-0.945-2.762-1.744-5.233-2.254-8.141h-0.146
			c-0.508,2.689-1.307,5.742-2.326,8.723l-3.197,9.229h11.338L223.818,21.467z"/>
		<path fill="#5B5B5B" d="M269.969,33.094c-0.58,0-1.598,0-2.615-0.073v16.28h-11.338V0.245c4.215-0.219,8.867-0.363,13.953-0.363
			c12.5,0,19.332,5.669,19.332,15.771C289.301,25.173,282.47,33.094,269.969,33.094z M269.752,9.11c-0.799,0-1.6,0-2.398,0.073
			v14.39c0.727,0.073,1.381,0.146,1.963,0.146c4.723-0.073,8.285-2.762,8.285-7.559C277.601,12.018,275.347,9.11,269.752,9.11z"/>
		<path fill="#5B5B5B" d="M315.467,33.094c-0.582,0-1.598,0-2.615-0.073v16.28h-11.338V0.245c4.215-0.219,8.867-0.363,13.953-0.363
			c12.5,0,19.332,5.669,19.332,15.771C334.799,25.173,327.967,33.094,315.467,33.094z M315.25,9.11c-0.799,0-1.6,0-2.398,0.073
			v14.39c0.727,0.073,1.381,0.146,1.963,0.146c4.723-0.073,8.285-2.762,8.285-7.559C323.099,12.018,320.845,9.11,315.25,9.11z"/>
		<path fill="#5B5B5B" d="M346.939,49.301V0.245h27.617v9.521h-16.281v9.739h15.408v9.229h-15.408v10.829h16.281v9.74
			L346.939,49.301L346.939,49.301z"/>
		<path fill="#5B5B5B" d="M388.875,49.301V0.245h11.338v39.027h14.826v10.029H388.875z"/>
	</g>
	<g>
		<path fill="#5B5B5B" d="M14.868,81.604l-1.807-5.094H3.85l-1.866,5.094H0l7.522-19.992h2.043l7.494,19.992H14.868z M9.359,66.5
			c-0.385-0.979-0.622-1.867-0.889-2.873H8.441c-0.268,0.947-0.563,1.865-0.918,2.813l-3.14,8.529h8.115L9.359,66.5z"/>
		<path fill="#5B5B5B" d="M34.262,64.012c-1.719-0.682-3.583-1.066-5.331-1.066c-4.294,0-8.264,2.783-8.264,8.707
			c0,5.539,3.317,8.588,8.115,8.588c1.599,0,2.932-0.236,4.235-0.65v-7.967h1.896v9.121c-2.014,0.74-4.413,1.096-6.427,1.096
			c-5.864,0-9.833-3.613-9.833-9.861c0-6.043,3.968-10.604,10.514-10.604c1.836,0,3.584,0.268,5.392,0.83L34.262,64.012z"/>
		<path fill="#5B5B5B" d="M40.418,81.604V61.612h1.896v19.992H40.418z"/>
		<path fill="#5B5B5B" d="M48.561,81.604V61.612h1.896v18.422h7.642v1.57H48.561z"/>
		<path fill="#5B5B5B" d="M61.145,81.604V61.612h9.862v1.541h-7.967v7.375h7.582v1.51h-7.582v7.996h7.967v1.57H61.145z"/>
		<path fill="#5B5B5B" d="M85.811,81.842c-1.511,0-2.933-0.178-4.028-0.504l0.119-1.896c1.185,0.416,2.695,0.742,4.087,0.742
			c2.695,0,5.005-1.096,5.005-4c0-4.945-9.478-3.168-9.478-9.389c0-3.109,2.518-5.42,6.781-5.42c1.274,0,2.43,0.148,3.584,0.355
			l-0.118,1.777c-1.125-0.355-2.43-0.564-3.613-0.564c-3.051,0-4.709,1.451-4.709,3.645c0,4.828,9.507,3.08,9.507,9.33
			C92.949,79.412,90.224,81.842,85.811,81.842z"/>
		<path fill="#5B5B5B" d="M104.911,81.842c-5.923,0-8.767-4.029-8.767-10.041c0-6.723,4.206-10.424,9.271-10.424
			c5.479,0,8.796,3.672,8.796,10.039C114.21,78.11,110.005,81.842,104.911,81.842z M105.177,62.975c-3.732,0-6.99,3.051-6.99,8.441
			c0,5.184,2.279,8.797,6.96,8.797c3.702,0,7.02-3.021,7.02-8.473C112.167,66.174,109.561,62.975,105.177,62.975z"/>
		<path fill="#5B5B5B" d="M120.366,63.153v7.404h7.523v1.539h-7.523v9.508h-1.896V61.612h9.833v1.539L120.366,63.153L120.366,63.153
			z"/>
		<path fill="#5B5B5B" d="M138.222,63.182v18.422h-1.896V63.182h-6.189v-1.57h14.275v1.57H138.222z"/>
		<path fill="#5B5B5B" d="M166.591,81.604h-2.398l-4.413-15.164c-0.326-1.064-0.563-2.102-0.771-2.99h-0.029
			c-0.148,0.977-0.415,1.955-0.71,3.021l-4.266,15.133h-2.398l-5.42-19.992h2.043l3.82,14.426c0.386,1.361,0.622,2.457,0.859,3.701
			h0.03c0.236-1.186,0.503-2.398,0.829-3.523l4.146-14.604h2.369l4.354,14.838c0.296,1.008,0.592,2.191,0.799,3.289h0.029
			c0.179-1.008,0.386-1.896,0.652-2.844l3.968-15.283h1.866L166.591,81.604z"/>
		<path fill="#5B5B5B" d="M187.14,81.604l-1.808-5.094h-9.211l-1.866,5.094h-1.983l7.522-19.992h2.043l7.493,19.992H187.14z
			 M181.631,66.5c-0.385-0.979-0.622-1.867-0.889-2.873h-0.029c-0.267,0.947-0.563,1.865-0.918,2.813l-3.139,8.529h8.115
			L181.631,66.5z"/>
		<path fill="#5B5B5B" d="M202.299,81.604l-7.671-9.447h-0.089v9.447h-1.896V61.612c1.214-0.059,2.37-0.088,4.472-0.088
			c3.613,0,6.457,1.244,6.457,4.916c0,3.674-2.991,5.6-6.812,5.658c0.592,0.652,1.272,1.422,1.807,2.072l6.25,7.434H202.299z
			 M196.583,63.033c-0.77,0-1.392,0.029-2.043,0.09v7.521c0.355,0.031,0.979,0.061,1.925,0.061c3.259,0,5.124-1.629,5.124-3.939
			C201.588,63.983,199.782,63.033,196.583,63.033z"/>
		<path fill="#5B5B5B" d="M209.168,81.604V61.612h9.863v1.541h-7.967v7.375h7.582v1.51h-7.582v7.996h7.967v1.57H209.168z"/>
		<path fill="#5B5B5B" d="M224.211,81.604V61.612h9.863v1.541h-7.967v7.375h7.582v1.51h-7.582v7.996h7.967v1.57H224.211z"/>
		<path fill="#5B5B5B" d="M252.136,81.604l-8.855-13.979c-0.918-1.42-1.688-2.725-2.34-4.027c0.09,2.369,0.209,8.381,0.209,12.113
			v5.893h-1.896V61.612h2.576l8.738,13.744c0.857,1.361,1.688,2.783,2.457,4.176c-0.088-2.813-0.207-8.709-0.207-12.588v-5.33h1.896
			v19.992L252.136,81.604L252.136,81.604z"/>
		<path fill="#5B5B5B" d="M266.199,63.182v18.422h-1.896V63.182h-6.189v-1.57h14.277v1.57H266.199z"/>
		<path fill="#5B5B5B" d="M294.568,81.604h-2.398l-4.414-15.164c-0.324-1.064-0.563-2.102-0.77-2.99h-0.029
			c-0.148,0.977-0.416,1.955-0.711,3.021l-4.264,15.133h-2.4l-5.42-19.992h2.043l3.822,14.426c0.385,1.361,0.621,2.457,0.859,3.701
			h0.029c0.236-1.186,0.502-2.398,0.828-3.523l4.146-14.604h2.369l4.354,14.838c0.297,1.008,0.592,2.191,0.799,3.289h0.031
			c0.178-1.008,0.385-1.896,0.652-2.844l3.969-15.283h1.865L294.568,81.604z"/>
		<path fill="#5B5B5B" d="M304.01,81.604V61.612h1.896v19.992H304.01z"/>
		<path fill="#5B5B5B" d="M319.232,81.842c-5.982,0-8.945-3.703-8.945-9.803c0-5.953,2.785-10.604,9.625-10.604
			c1.57,0,3.199,0.236,4.709,0.621l-0.207,1.777c-1.719-0.563-3.289-0.799-4.918-0.799c-5.123,0-7.166,3.998-7.166,8.678
			c0,5.361,2.369,8.471,7.463,8.471c1.629,0,3.613-0.504,4.889-1.154l0.207,1.688C323.318,81.397,321.394,81.842,319.232,81.842z"/>
		<path fill="#5B5B5B" d="M340.492,81.604l-9.004-10.129v10.129h-1.896V61.612h1.896v9.686l9.004-9.686h2.4l-9.242,9.686
			l9.537,10.307H340.492z"/>
		<path fill="#5B5B5B" d="M346.619,81.604V61.612h1.896v18.422h7.641v1.57H346.619z"/>
		<path fill="#5B5B5B" d="M366.074,81.842c-6.16,0-7.285-3.465-7.285-6.813V61.612h1.896v13.209c0,2.961,1.006,5.48,5.566,5.48
			c3.822,0,5.746-1.6,5.746-6.072V61.612h1.867v12.439C373.863,79.115,371.258,81.842,366.074,81.842z"/>
		<path fill="#5B5B5B" d="M392.931,81.604l-8.854-13.979c-0.918-1.42-1.689-2.725-2.34-4.027c0.088,2.369,0.207,8.381,0.207,12.113
			v5.893h-1.896V61.612h2.578l8.736,13.744c0.855,1.361,1.688,2.783,2.459,4.176c-0.09-2.813-0.207-8.709-0.207-12.588v-5.33h1.895
			v19.992L392.931,81.604L392.931,81.604z"/>
		<path fill="#5B5B5B" d="M415.377,64.012c-1.717-0.682-3.584-1.066-5.33-1.066c-4.295,0-8.264,2.783-8.264,8.707
			c0,5.539,3.314,8.588,8.111,8.588c1.604,0,2.936-0.236,4.236-0.65v-7.967h1.896v9.121c-2.016,0.74-4.414,1.096-6.428,1.096
			c-5.863,0-9.834-3.613-9.834-9.861c0-6.043,3.971-10.604,10.516-10.604c1.836,0,3.584,0.268,5.391,0.83L415.377,64.012z"/>
	</g>
</g>
</svg>
