<?xml version="1.0" encoding="utf-8"?>
<!-- Generator: Adobe Illustrator 16.0.3, SVG Export Plug-In . SVG Version: 6.00 Build 0)  -->
<!DOCTYPE svg PUBLIC "-//W3C//DTD SVG 1.1//EN" "http://www.w3.org/Graphics/SVG/1.1/DTD/svg11.dtd">
<svg version="1.1" id="Ebene_1" xmlns="http://www.w3.org/2000/svg" xmlns:xlink="http://www.w3.org/1999/xlink" x="0px" y="0px"
	 width="141.732px" height="141.732px" viewBox="54.89 -56.824 141.732 141.732"
	 enable-background="new 54.89 -56.824 141.732 141.732" xml:space="preserve">
<g>
	<path fill="none" d="M109.808,28.154c-2.633,0.155-5.281,0.559-7.905,0.591C104.528,28.714,107.175,28.31,109.808,28.154z"/>
	<path fill="none" d="M119.766-19.656c-0.665,0.842-1.169,1.812-1.748,2.723l0.001-0.001
		C118.597-17.844,119.101-18.813,119.766-19.656c1.803-2.269,3.435-4.512,3.94-7.555c0.363-2.179,0.801-4.347,1.259-6.51
		c-0.458,2.163-0.896,4.331-1.259,6.509C123.2-24.169,121.569-21.925,119.766-19.656z"/>
	<path fill="none" d="M106.257-11.46L106.257-11.46c0.354-0.069,0.71-0.138,1.06-0.206C106.967-11.598,106.61-11.529,106.257-11.46z
		"/>
	<path fill="none" d="M126.901-42.666L126.901-42.666c-3.119,3.016-6.005,6.182-8.918,9.285
		C120.896-36.484,123.782-39.65,126.901-42.666z"/>
	<path fill="none" d="M119.63-6.045c-1.761-1.905-2.808-4.676-3.516-7.247c-0.033-0.123-0.038-0.253-0.021-0.391
		c-0.018,0.138-0.013,0.269,0.021,0.393c0.709,2.57,1.755,5.341,3.516,7.247c1.839,1.989,4.668,3.062,7.271,4.662
		c2.237-5.234,4.402-10.307,6.645-15.558c0,0-0.001,0-0.001-0.001c-2.243,5.25-4.409,10.322-6.645,15.555
		C124.297-2.983,121.469-4.054,119.63-6.045z"/>
	<path fill="none" d="M118.097-16.998c0.001-0.003,0.004-0.006,0.006-0.01c-2.931,4.175-7.51,3.796-12.094,4.759c0,0,0,0,0,0
		C110.589-13.21,115.163-12.834,118.097-16.998z"/>
	<path fill="none" d="M117.092,0.531c-0.173,0.251-0.379,0.455-0.596,0.619h0C116.714,0.985,116.919,0.781,117.092,0.531z"/>
	<path fill="none" d="M124.504,26.684c3.823-1.25,7.344-3.28,10.591-6.101l0,0C131.848,23.404,128.327,25.434,124.504,26.684z"/>
	<path fill="none" d="M110.884,3.652c1.283-0.528,2.481-1.005,3.614-1.502c0.001,0,0.002-0.001,0.003-0.002
		C113.367,2.644,112.168,3.122,110.884,3.652L110.884,3.652z"/>
	<path fill="none" d="M84.909,16.758c0.108,0.516,0.208,1.034,0.293,1.554c0.2,1.221,0.557,2.292,1.033,3.256v0
		c-0.476-0.963-0.833-2.035-1.033-3.257C85.116,17.791,85.017,17.274,84.909,16.758z"/>
	<path fill="none" d="M118.067-16.977l0.039-0.034c0.001-0.001,0.002-0.003,0.003-0.005
		C118.108-17.014,118.087-16.995,118.067-16.977z"/>
	<rect x="129.487" y="2.563" fill="none" width="0.001" height="0.001"/>
	<rect x="92.47" y="27.904" fill="none" width="0" height="0.002"/>
	<path fill="none" d="M105.396-14.208L105.396-14.208c1.143-2.757,2.014-5.497,3.238-8.032
		C107.41-19.705,106.538-16.965,105.396-14.208z"/>
	<path fill="none" d="M97.011-22.851c1.261,0.205,2.535,0.412,3.843,0.628C99.546-22.439,98.272-22.646,97.011-22.851z"/>
	<path fill="none" d="M156.309-22.816c-0.188,2.054-0.361,4.018-0.535,5.947C155.948-18.798,156.122-20.762,156.309-22.816z"/>
	<rect x="135.132" y="28.112" fill="none" width="0" height="0"/>
	<path fill="none" d="M127.012,27.305c2.125-1.55,4.098-2.999,6.017-4.396c-1.92,1.396-3.894,2.845-6.019,4.396
		c2.336,0.232,4.591,0.456,6.835,0.679l0,0C131.601,27.761,129.347,27.537,127.012,27.305z"/>
	<rect x="146.383" y="27.37" fill="none" width="0" height="0.001"/>
	<path fill="none" d="M73.832-8.677c0.456,0.206,1.021,0.471,1.458,0.372c4.056-0.914,8.57-1.078,12.023-3.067
		c4.766-2.75,8.728-6.89,13.542-10.851c-4.814,3.96-8.775,8.1-13.541,10.848c-3.456,1.99-7.968,2.155-12.023,3.068
		c-0.438,0.099-1.003-0.165-1.458-0.372c-4.72-2.132-9.429-4.284-15.002-6.823c-0.001,0-0.001,0-0.002,0.001
		C64.402-12.961,69.112-10.81,73.832-8.677z"/>
	<path fill="none" d="M86.779-10.073c-3.99,0.966-7.399,1.795-11.095,2.69C79.378-8.278,82.787-9.105,86.779-10.073z"/>
	<rect x="140.29" y="28.625" fill="none" width="0" height="0"/>
	<path fill="none" d="M127.897-1.785c1.931-4.539,3.866-9.077,5.874-13.583c0.285-0.642,0.876-1.429,1.484-1.604
		c3.054-0.878,6.119-1.735,9.208-2.589c-3.089,0.854-6.155,1.709-9.209,2.587c-0.608,0.175-1.2,0.961-1.485,1.603
		c-2.009,4.505-3.943,9.044-5.873,13.584c-0.162,0.383-0.304,0.962-0.132,1.272c0.313,0.567,0.637,1.134,0.952,1.701
		c0,0,0.001,0,0.001,0c-0.315-0.565-0.638-1.132-0.951-1.698C127.594-0.822,127.736-1.401,127.897-1.785z"/>
	<path fill="none" d="M133.455-18.115c0.645,0.197,1.376,0.246,1.995,0.126C134.83-17.868,134.099-17.918,133.455-18.115z"/>
	<rect x="154.183" y="29.328" fill="none" width="0" height="0.001"/>
	<path fill="none" d="M80.944,2.927c-1.873-3.672-3.499-6.858-5.26-10.309C77.444-3.931,79.071-0.744,80.944,2.927z"/>
	<path fill="none" d="M86.779-10.073c-1.999,4.455-3.798,8.458-5.835,12.999C82.981-1.614,84.78-5.618,86.779-10.073z"/>
	<path fill="none" d="M131.489-19.099c-2.172-1.173-4.311-2.411-6.398-3.726C127.177-21.51,129.317-20.271,131.489-19.099z"/>
	<path fill="none" d="M180.246,51.787c-3.631,1.235-7.061,2.403-10.693,3.643C173.186,54.193,176.615,53.025,180.246,51.787z"/>
	<path fill="none" d="M140.704,48.251c-4.757,4.243-9.87,5.855-16.281,5.427c-8.619-0.575-17.303-0.183-25.958-0.213
		c-0.809-0.001-1.617-0.049-2.658-0.082c0,0.001,0,0.002,0,0.003c1.041,0.034,1.85,0.079,2.659,0.083
		c8.656,0.029,17.34-0.362,25.958,0.21c6.41,0.428,11.524-1.185,16.281-5.426c0.708-0.632,1.447-1.23,2.18-1.836c0,0,0,0,0-0.001
		C142.152,47.022,141.412,47.62,140.704,48.251z"/>
	<path fill="none" d="M164.245,33.669c2.043,3.619,3.98,7.3,5.909,10.984c0.268,0.519,0.478,1.206,0.378,1.756
		c-0.538,2.986-1.181,5.956-1.838,9.188c0.66-3.232,1.303-6.202,1.841-9.187c0.097-0.551-0.113-1.236-0.378-1.756
		c-1.929-3.685-3.866-7.366-5.909-10.984c-0.186-0.328-0.479-0.653-0.817-0.92C163.767,33.017,164.059,33.342,164.245,33.669z"/>
	<path fill="none" d="M148.149,50.064c0.221,0.095,0.46,0.164,0.681,0.224c6.502,1.749,13.013,3.482,19.863,5.311
		c-6.85-1.828-13.36-3.563-19.866-5.313C148.607,50.226,148.369,50.157,148.149,50.064z"/>
	<path fill="none" d="M171.445,46.125c0,0.002,0,0.003-0.001,0.005c4.2,1.347,8.301,2.663,13.087,4.197
		c0.001-0.001,0.003-0.001,0.005-0.002C179.75,48.79,175.643,47.477,171.445,46.125z"/>
	<path fill="none" d="M174.923,19.763c0.34-0.393,1.085-0.734,1.569-0.654C176.008,19.028,175.263,19.37,174.923,19.763z"/>
	<path fill="none" d="M95.097,50.536c-0.01,0.157-0.107,0.303-0.359,0.965c-3.228-6.245-6.36-12.306-9.584-18.543
		c0,0-0.001,0-0.001,0c3.225,6.239,6.358,12.3,9.585,18.546c0.251-0.663,0.349-0.81,0.359-0.965
		c0.398-6.801,0.789-13.604,1.2-20.724C95.885,36.937,95.495,43.74,95.097,50.536z"/>
	<path fill="none" d="M103.971-14.1c-0.763-2.521-1.533-5.061-2.324-7.625C102.438-19.161,103.208-16.622,103.971-14.1
		C103.971-14.1,103.971-14.1,103.971-14.1z"/>
	<path fill="none" d="M195.523,22.406c-3.274,9.188-6.476,18.176-9.785,27.472C189.047,40.583,192.251,31.593,195.523,22.406z"/>
	<path fill="none" d="M164.981,32.621c-0.018-0.566,0.11-1.176,0.377-1.508C165.091,31.445,164.963,32.054,164.981,32.621z"/>
	<path fill="none" d="M111.567,5.765C111.567,5.764,111.567,5.764,111.567,5.765c-0.013,0.008-0.025,0.016-0.037,0.024c0,0,0,0,0,0
		C111.543,5.781,111.555,5.773,111.567,5.765z"/>
	<path fill="none" d="M99.552-19.962c0.635-0.512,1.283-1.098,2.096-1.764C100.834-21.06,100.186-20.474,99.552-19.962z"/>
	<rect x="104.854" y="-11.187" fill="none" width="0" height="0"/>
	<rect x="104.635" y="-11.911" fill="none" width="0" height="0.001"/>
	<path fill="none" d="M81.938,5.724c-0.063-0.263-0.099-0.539-0.112-0.822C81.839,5.185,81.874,5.462,81.938,5.724z"/>
	<path fill="none" d="M83.78-1.983c1.241-2.883,2.784-5.538,4.635-7.96C86.564-7.521,85.021-4.866,83.78-1.983z"/>
	<path fill="none" d="M79.716,32.538c-0.142-0.291-0.256-0.576-0.343-0.854C79.459,31.963,79.574,32.247,79.716,32.538z"/>
	<path fill="none" d="M77.281,28.38c-6.099-2.969-12.16-6.016-18.177-9.149c-0.837-0.435-1.977-1.474-1.954-2.2
		c0.348-10.424,0.872-20.849,1.372-31.695c-0.5,10.845-1.024,21.271-1.374,31.7c-0.022,0.726,1.118,1.765,1.953,2.2
		c6.018,3.133,12.079,6.178,18.177,9.148c0.634,0.308,1.813,0.24,2.371-0.161c0.373-0.271,0.74-0.553,1.104-0.839
		c-0.001,0-0.001-0.001-0.002-0.002c-0.363,0.285-0.729,0.566-1.101,0.836C79.094,28.621,77.914,28.692,77.281,28.38z"/>
	<path fill="none" d="M162.29,31.224c-2.232-0.503-4.459-1.033-6.686-1.563c0,0,0,0,0,0.001c2.226,0.53,4.452,1.06,6.684,1.563
		c0.328,0.075,0.751,0.032,1.16-0.087C163.041,31.255,162.617,31.298,162.29,31.224z"/>
	<path fill="none" d="M80.161,33.352c-0.16-0.264-0.304-0.525-0.43-0.78C79.857,32.827,80.001,33.088,80.161,33.352z"/>
	<path fill="#FFAB46" d="M104.53-12.256L104.53-12.256c-0.186-0.616-0.372-1.226-0.559-1.844c0,0,0,0,0,0
		C104.158-13.482,104.344-12.872,104.53-12.256z"/>
	<path fill="#FFAB46" d="M104.854-11.187C104.855-11.187,104.855-11.187,104.854-11.187c-0.072-0.241-0.146-0.481-0.219-0.723h0
		C104.708-11.669,104.781-11.428,104.854-11.187z"/>
	<path fill="#FFAB46" d="M112.877,4.883C112.876,4.883,112.876,4.883,112.877,4.883c-0.438,0.293-0.874,0.587-1.31,0.882
		c0,0,0,0,0,0C112.003,5.47,112.44,5.176,112.877,4.883z"/>
	<path fill="#FFAB46" d="M109.2,2.682c-0.65-1.986-1.294-3.981-1.919-5.986c-0.001-0.001-0.001-0.002-0.002-0.004
		C107.905-1.302,108.549,0.695,109.2,2.682z"/>
	<path fill="#FFAB46" d="M108.634-22.24c0.961-1.991,2.141-3.855,3.845-5.501c1.886-1.822,3.7-3.719,5.503-5.64
		c2.914-3.103,5.8-6.269,8.918-9.285v0l0,0c-0.629,2.984-1.305,5.961-1.937,8.946c-0.458,2.164-0.896,4.331-1.259,6.51
		c-0.505,3.042-2.137,5.286-3.94,7.556c-0.665,0.841-1.168,1.811-1.747,2.721l0.004-0.004c1.746-1.86,3.493-3.721,5.482-5.841
		c3.184,1.852,6.521,3.793,10.039,5.839c0,0,0,0.001,0,0.001c0,0,0.001,0,0.001,0.001c-2.243,5.251-4.408,10.323-6.645,15.558
		c-2.603-1.6-5.431-2.672-7.271-4.662c-1.761-1.906-2.807-4.677-3.516-7.247c-0.033-0.124-0.039-0.255-0.021-0.393
		c0.124-0.957,1.373-2.222,2.004-3.316c-2.934,4.164-7.508,3.788-12.088,4.75c0.082,0.263,0.165,0.526,0.247,0.789
		c0.354-0.069,0.71-0.138,1.06-0.206c2.624-0.51,5.138-0.997,7.614-1.477c2.384,4.019,4.021,8.014,2.684,12.582
		c-0.104,0.357-0.288,0.749-0.523,1.091c-0.173,0.251-0.378,0.455-0.596,0.619c0.642-0.179,1.317-0.271,1.936-0.257
		c0.688,0.013,1.376,0.041,2.064,0.056c1.788-0.44,3.584-0.77,5.392-1.058c0.486-0.08,1.32,0.368,1.588,0.813
		c0.087,0.145,0.173,0.294,0.26,0.44c0.327,0.011,0.653,0.031,0.979,0.042c-0.315-0.566-0.639-1.133-0.952-1.701
		c-0.171-0.31-0.029-0.889,0.132-1.272c1.93-4.541,3.864-9.08,5.873-13.584c0.286-0.642,0.877-1.428,1.485-1.603
		c3.054-0.878,6.12-1.734,9.209-2.587c3.892-1.077,7.822-2.15,11.845-3.255c-0.187,2.054-0.36,4.019-0.535,5.947
		c-0.139,1.542-0.278,3.063-0.425,4.581c-0.391,4.06-0.771,8.121-1.273,12.167c-0.035,0.275-0.135,0.586-0.278,0.883
		c0.521-0.273,1.04-0.553,1.562-0.824c0.805-7.437,1.467-14.906,2.221-22.917c-0.119-0.205-0.335-1.007-0.861-1.405
		c-9.2-6.974-18.442-13.892-27.659-20.85c-0.952-0.717-1.55-0.621-2.36,0.269c-5.337,5.868-10.746,11.674-16.093,17.531
		c-0.944,1.032-1.956,2.111-2.519,3.356c-1.178,2.601-2.264,5.244-3.308,7.902c0.207,0.655,0.411,1.312,0.616,1.967
		C106.538-16.965,107.41-19.705,108.634-22.24z M118.342,0.628c0.214-2.143,0.38-3.819,0.586-5.874
		c2.37,1.374,4.461,2.586,7.115,4.122C123.233-0.483,120.972,0.031,118.342,0.628z M128.112-44.315
		c9.24,6.935,18.247,13.697,27.638,20.744c-1.136,0.36-1.894,0.63-2.667,0.841c-5.815,1.594-11.621,3.221-17.458,4.717
		c-0.055,0.014-0.119,0.013-0.175,0.024c-0.619,0.12-1.351,0.07-1.995-0.126c-0.223-0.068-0.437-0.151-0.628-0.25
		c-0.452-0.234-0.891-0.493-1.338-0.735c-2.172-1.172-4.312-2.41-6.398-3.726c-0.583-0.366-1.271-1.354-1.161-1.907
		C125.218-31.173,126.651-37.584,128.112-44.315z"/>
	<path fill="#FFAB46" d="M111.129,4.462c1.124-0.77,2.243-1.545,3.369-2.313c-1.132,0.497-2.331,0.975-3.614,1.502
		C110.966,3.922,111.048,4.192,111.129,4.462z"/>
	<path fill="#FFAB46" d="M142.032,7.101C142.033,7.101,142.033,7.101,142.032,7.101c-0.013-0.017-0.027-0.034-0.041-0.051
		c0,0,0,0-0.001,0C142.005,7.068,142.019,7.085,142.032,7.101z"/>
	<path fill="#FFAB46" d="M129.487,2.564L129.487,2.564c-0.312-0.013-0.624-0.026-0.935-0.039c0,0,0,0,0,0.001
		C128.864,2.539,129.176,2.552,129.487,2.564z"/>
	<path fill="#FFFFFF" d="M135.77,2.818c0.805,0.03,1.608,0.116,2.593,0.188c0,0,0,0,0-0.001
		C137.379,2.934,136.575,2.847,135.77,2.818c-2.094-0.08-4.188-0.169-6.282-0.254l0,0C131.582,2.65,133.676,2.74,135.77,2.818z"/>
	<path fill="#FFFFFF" d="M139.226,3.749c-0.055,1.377-0.047,2.651-0.06,3.861C139.179,6.4,139.172,5.126,139.226,3.749z"/>
	<path fill="#FFFFFF" d="M141.99,7.051C141.991,7.051,141.991,7.051,141.99,7.051c-0.912-1.09-1.824-2.18-2.764-3.302
		C140.166,4.871,141.078,5.961,141.99,7.051z"/>
	<path fill="#FFFFFF" d="M104.635-11.911L104.635-11.911c-0.035-0.115-0.07-0.229-0.105-0.345l0,0
		C104.565-12.141,104.6-12.026,104.635-11.911z"/>
	<path fill="#FFFFFF" d="M107.279-3.308c0.001,0.001,0.001,0.003,0.002,0.004c-0.815-2.609-1.624-5.237-2.426-7.883c0,0,0,0,0,0
		C105.656-8.542,106.464-5.915,107.279-3.308z"/>
	<path fill="#FFFFFF" d="M114.753,3.617c1.262-0.842,3.02-1.333,4.544-1.328c3.085,0.014,6.17,0.115,9.255,0.237c0,0,0,0,0-0.001
		c-3.084-0.122-6.169-0.224-9.254-0.237C117.773,2.283,116.016,2.773,114.753,3.617c-0.628,0.418-1.251,0.844-1.877,1.265
		c0,0,0,0,0.001,0C113.503,4.462,114.126,4.036,114.753,3.617z"/>
	<path fill="#FFAB46" d="M80.161,33.352c-0.16-0.264-0.304-0.525-0.43-0.78c-0.006-0.011-0.01-0.022-0.016-0.034
		c-0.142-0.292-0.256-0.576-0.343-0.854c-0.442-1.414-0.107-2.648,1.731-3.623c0.002-0.001,0.004-0.003,0.006-0.004
		c-0.108-0.209-0.214-0.414-0.323-0.624c-0.014-0.017-0.02-0.033-0.033-0.05c-0.364,0.286-0.731,0.568-1.104,0.839
		c-0.558,0.401-1.736,0.469-2.371,0.161c-6.098-2.971-12.159-6.016-18.177-9.148c-0.835-0.435-1.975-1.474-1.953-2.2
		c0.35-10.429,0.874-20.855,1.374-31.7c5.317,2.385,10.202,4.542,15.043,6.797c0.699,0.327,1.369,1.03,1.732,1.725
		c2.955,5.635,6.066,11.189,7.29,17.571c0.652,3.406,1.869,6.704,2.635,10.093c0.049,0.219,0.043,0.473,0.01,0.737
		c0.334-0.23,0.668-0.461,1.003-0.691c-0.476-0.964-0.833-2.035-1.033-3.256c-0.085-0.52-0.185-1.038-0.293-1.554
		c-0.779-3.708-2.084-7.331-2.971-11.034c-0.063-0.263-0.099-0.539-0.112-0.822c-0.04-0.85,0.126-1.762,0.369-2.562
		c0.453-1.498,0.987-2.935,1.585-4.323c1.241-2.883,2.784-5.538,4.635-7.96c2.742-3.591,6.143-6.685,10.172-9.304
		c0.33-0.214,0.646-0.458,0.965-0.715c0.634-0.512,1.282-1.098,2.096-1.764c0.791,2.565,1.561,5.104,2.324,7.625
		c0.187,0.618,0.373,1.228,0.559,1.844c0.035,0.115,0.07,0.23,0.105,0.345c0,0,0,0,0,0.001c0.073,0.242,0.146,0.482,0.219,0.723l0,0
		c0.802,2.646,1.611,5.274,2.426,7.883c0.625,2.004,1.269,4,1.919,5.986c0.276,0.844,0.548,1.691,0.832,2.533
		c0.366-0.251,0.731-0.503,1.098-0.753c-0.081-0.27-0.164-0.54-0.245-0.81v0c-1.518-5.045-3.059-10.082-4.627-15.111l0,0
		c-0.082-0.263-0.165-0.525-0.247-0.789c0,0,0,0,0,0c-0.204-0.653-0.409-1.306-0.613-1.959l0,0c-0.206-0.655-0.41-1.312-0.616-1.967
		c-0.552-1.75-1.088-3.505-1.646-5.253c-0.278-0.878-1.446-1.866-2.362-2.068c-3.488-0.77-7.045-1.238-10.576-1.821
		c0.002-0.007,0.002-0.015,0.003-0.021c-3.447-0.567-6.883-1.222-10.345-1.654c-1.084-0.134-2.388,0.059-3.343,0.567
		c-5.863,3.123-11.631,6.42-17.487,9.552c-1.404,0.75-1.875,1.711-1.939,3.211c-0.444,10.122-0.915,20.24-1.474,30.356
		c-0.083,1.478,0.345,2.316,1.557,3.123c7.156,4.753,14.249,9.603,21.404,14.361c0.515,0.341,1.417,0.445,2.014,0.258
		c1.095-0.343,2.184-0.706,3.276-1.061c-0.193-0.373-0.39-0.752-0.583-1.126C82.241,32.617,81.204,32.984,80.161,33.352z
		 M80.944,2.927c-1.873-3.671-3.5-6.857-5.26-10.309c3.695-0.896,7.104-1.724,11.095-2.69C84.78-5.618,82.981-1.614,80.944,2.927z
		 M58.828-15.502c1.193-0.517,1.896-0.758,2.536-1.109c4.857-2.653,9.739-5.255,14.521-8.032c1.741-1.009,3.359-1.218,5.313-0.861
		c5.117,0.933,10.262,1.753,15.813,2.653c1.261,0.205,2.535,0.412,3.843,0.628c-4.814,3.961-8.776,8.1-13.542,10.851
		c-3.454,1.989-7.967,2.153-12.023,3.067c-0.437,0.1-1.002-0.166-1.458-0.372c-4.72-2.132-9.43-4.284-15.004-6.823
		c0.001,0,0.001,0,0.002-0.001C58.829-15.502,58.829-15.502,58.828-15.502z M78.306,32.54c-3.977-2.726-7.954-5.452-11.931-8.18
		c0.075-0.1,0.149-0.204,0.223-0.31c3.537,1.765,7.116,3.447,10.575,5.354c0.823,0.45,1.231,1.651,1.829,2.509
		C78.771,32.123,78.54,32.332,78.306,32.54z"/>
	<path fill="#FFAB46" d="M84.554,31.799c0,0-0.001,0-0.001,0c0.199,0.383,0.402,0.777,0.6,1.159c0,0,0.001,0,0.001,0
		C84.956,32.576,84.753,32.182,84.554,31.799z"/>
	<path fill="#FFAB46" d="M111.53,5.79C111.53,5.789,111.53,5.789,111.53,5.79c-0.357,0.241-0.716,0.481-1.074,0.723c0,0,0,0,0,0
		C110.814,6.271,111.173,6.031,111.53,5.79z"/>
	<path fill="#FFAB46" d="M81.982,26.822c0,0-0.001,0-0.002,0c0.067,0.131,0.133,0.256,0.2,0.386c0,0,0,0,0.001-0.001
		C82.114,27.077,82.049,26.952,81.982,26.822z"/>
	<path fill="#FFAB46" d="M90.79,27.674C90.79,27.674,90.79,27.675,90.79,27.674c0.56,0.08,1.12,0.156,1.679,0.23l0,0
		C91.909,27.83,91.349,27.754,90.79,27.674z"/>
	<path fill="#FFFFFF" d="M92.47,27.906c0.194,0.025,0.388,0.052,0.582,0.077C92.858,27.957,92.664,27.931,92.47,27.906L92.47,27.906
		z"/>
	<path fill="#FFFFFF" d="M110.456,6.513C110.456,6.513,110.456,6.513,110.456,6.513c-5.941,4.028-11.831,8.133-17.736,12.215
		C98.625,14.647,104.514,10.541,110.456,6.513z"/>
	<path fill="#FFFFFF" d="M85.145,26.862c1.882,0.266,3.763,0.547,5.646,0.813c0,0,0,0,0,0
		C88.908,27.408,87.027,27.127,85.145,26.862z"/>
	<path fill="#FFFFFF" d="M82.181,27.206C82.18,27.207,82.18,27.207,82.181,27.206c0.799,1.55,1.587,3.074,2.372,4.593
		c0,0,0.001,0,0.001,0C83.769,30.28,82.981,28.755,82.181,27.206z"/>
	<path fill="#FFAB46" d="M195.636,20.695c-2.951-3.153-6.059-6.159-9.121-9.209c-2.892-2.879-5.795-5.749-8.809-8.735
		c-0.485-0.142-1.072-0.34-1.675-0.491c-5.029-1.244-10.038-2.567-15.104-3.651c-1.246-0.265-2.845-0.093-3.968,0.484
		c-0.537,0.276-1.065,0.567-1.602,0.846c-0.522,0.271-1.04,0.551-1.562,0.824c-3.558,1.865-7.095,3.768-10.613,5.706
		c0.282,0.331,0.564,0.661,0.845,0.992c4.709-2.544,9.393-5.072,14.083-7.549c0.607-0.322,1.528-0.322,2.233-0.161
		c4.961,1.161,9.896,2.466,14.872,3.579c1.356,0.302,1.594,0.88,1.426,2.096c-0.521,3.811-0.928,7.636-1.486,11.44
		c-0.126,0.873-0.521,1.82-1.081,2.499c-3.088,3.761-6.227,7.482-9.46,11.12c-0.255,0.286-0.701,0.52-1.167,0.655
		c-0.408,0.119-0.832,0.162-1.16,0.087c-2.232-0.502-4.458-1.032-6.684-1.563c0.019,0.28,0.036,0.561,0.054,0.841
		c2.233,0.553,4.466,1.105,6.692,1.681c0.362,0.094,0.743,0.302,1.08,0.568c0.337,0.267,0.631,0.592,0.817,0.92
		c2.043,3.619,3.98,7.3,5.909,10.984c0.265,0.52,0.475,1.205,0.378,1.756c-0.538,2.984-1.181,5.954-1.841,9.187
		c-6.85-1.828-13.361-3.562-19.863-5.311c-0.221-0.06-0.46-0.129-0.681-0.224c-0.22-0.094-0.421-0.212-0.567-0.37
		c-0.926-0.996-1.85-1.996-2.774-2.997c-0.324,0.247-0.651,0.489-0.975,0.735c0.832,0.89,1.656,1.785,2.492,2.671
		c0.651,0.688,1.624,1.225,2.546,1.485c5.896,1.652,11.795,3.297,17.748,4.729c1.485,0.355,3.254,0.229,4.732-0.216
		c4.587-1.381,9.123-2.958,13.618-4.618c0.886-0.326,1.893-1.207,2.212-2.066c3.179-8.618,6.268-17.275,9.242-25.963
		C196.684,22.691,196.23,21.329,195.636,20.695z M177.568,4.373c5.683,5.652,11.115,11.058,16.543,16.456
		c-0.068,0.159-0.13,0.313-0.196,0.473c-5.978-1.041-11.958-2.08-18.074-3.144C176.417,13.561,176.969,9.162,177.568,4.373z
		 M184.535,50.328c-1.476,0.502-2.896,0.984-4.289,1.459c-3.631,1.237-7.061,2.405-10.693,3.643c0.678-3.34,1.25-6.164,1.888-9.301
		c0.001,0,0.002,0.001,0.003,0.001c0.001-0.002,0.001-0.003,0.001-0.005c4.198,1.352,8.305,2.665,13.091,4.2
		c-0.001,0.001-0.003,0.001-0.005,0.002C184.532,50.327,184.533,50.328,184.535,50.328z M185.738,49.877
		c-4.727-1.529-9.326-2.992-13.896-4.534c-0.431-0.146-0.765-0.757-1.017-1.218c-1.919-3.515-3.862-7.019-5.65-10.601
		c-0.119-0.239-0.182-0.564-0.193-0.904c-0.019-0.567,0.11-1.176,0.377-1.508c3.104-3.854,6.325-7.61,9.564-11.35
		c0.34-0.393,1.085-0.735,1.569-0.654c6.266,1.035,12.515,2.153,19.031,3.296C192.251,31.593,189.047,40.583,185.738,49.877z"/>
	<path fill="#FFAB46" d="M154.243,30.147L154.243,30.147c-0.02-0.274-0.041-0.546-0.061-0.818l0,0
		C154.203,29.601,154.223,29.873,154.243,30.147z"/>
	<path fill="#FFAB46" d="M146.681,28.32C146.681,28.32,146.681,28.32,146.681,28.32c-0.105-0.323-0.204-0.639-0.298-0.948l0,0
		C146.477,27.681,146.576,27.997,146.681,28.32z"/>
	<path fill="#FFAB46" d="M133.845,27.984L133.845,27.984c0.429,0.043,0.858,0.086,1.287,0.128c0,0,0,0,0,0
		C134.704,28.069,134.274,28.027,133.845,27.984z"/>
	<path fill="#FFAB46" d="M143.821,45.629c-0.318,0.255-0.622,0.527-0.937,0.787c0,0.001,0,0.001,0,0.001
		C143.199,46.156,143.503,45.885,143.821,45.629C143.821,45.629,143.821,45.629,143.821,45.629z"/>
	<path fill="#FFAB46" d="M135.095,20.583c0.42-0.364,0.835-0.742,1.246-1.133C135.93,19.841,135.515,20.219,135.095,20.583
		L135.095,20.583z"/>
	<path fill="#FFAB46" d="M140.29,28.625L140.29,28.625c0.379,0.038,0.757,0.075,1.139,0.113l0,0
		C141.048,28.7,140.669,28.662,140.29,28.625z"/>
	<path fill="#FFAB46" d="M142.86,8.09C142.861,8.09,142.861,8.09,142.86,8.09c-0.271-0.325-0.554-0.663-0.827-0.989c0,0,0,0-0.001,0
		C142.306,7.428,142.589,7.766,142.86,8.09z"/>
	<path fill="#FFFFFF" d="M146.661,23.738c1.28-0.479,2.635-0.987,4.092-1.534C149.296,22.749,147.942,23.257,146.661,23.738z"/>
	<path fill="#FFFFFF" d="M154.183,29.328c-0.027-0.366-0.054-0.731-0.08-1.095C154.129,28.596,154.156,28.962,154.183,29.328
		L154.183,29.328z"/>
	<path fill="#FFFFFF" d="M146.383,27.37c-0.139-0.456-0.27-0.893-0.404-1.312C146.113,26.478,146.244,26.915,146.383,27.37
		C146.383,27.37,146.383,27.37,146.383,27.37z"/>
	<path fill="#FFFFFF" d="M146.479,22.494c0.008-0.001,0.016,0,0.024-0.001c0.144-0.029,0.287-0.071,0.431-0.103
		c-0.144,0.032-0.288,0.073-0.432,0.103C146.495,22.494,146.487,22.493,146.479,22.494z"/>
	<path fill="#FFFFFF" d="M152.794,20.692c-1.274,0.389-2.459,0.769-3.606,1.107C150.334,21.462,151.52,21.081,152.794,20.692z"/>
	<path fill="#FFFFFF" d="M153.287,20.54C153.287,20.54,153.287,20.54,153.287,20.54c-3.51-4.193-6.893-8.232-10.426-12.451
		c0,0,0,0-0.001,0C146.392,12.309,149.774,16.348,153.287,20.54z"/>
	<path fill="#FFFFFF" d="M148.82,32.05c1.882,1.727,3.767,3.506,5.791,5.392C152.586,35.555,150.702,33.775,148.82,32.05z"/>
	<path fill="#FFFFFF" d="M143.821,45.629C143.821,45.629,143.821,45.629,143.821,45.629c0.585-0.472,1.187-0.932,1.784-1.394
		C145.008,44.698,144.406,45.156,143.821,45.629z"/>
	<path fill="#FFFFFF" d="M154.699,36.345c-0.158-2.154-0.309-4.198-0.456-6.198l0,0C154.391,32.147,154.541,34.191,154.699,36.345z"
		/>
	<path fill="#FFFFFF" d="M141.429,28.738L141.429,28.738c0.977,0.098,1.962,0.195,2.967,0.295
		C143.391,28.933,142.406,28.835,141.429,28.738z"/>
	<path fill="#FFFFFF" d="M146.681,28.32c0.105,0.32,0.217,0.644,0.34,0.974C146.898,28.964,146.787,28.639,146.681,28.32
		C146.681,28.32,146.681,28.32,146.681,28.32z"/>
	<path fill="#FFFFFF" d="M137.813,19.468c0.071-0.05,0.168-0.078,0.28-0.089C137.981,19.39,137.884,19.418,137.813,19.468z"/>
	<path fill="#FFFFFF" d="M135.133,28.112L135.133,28.112c1.707,0.169,3.419,0.34,5.158,0.513l0,0
		C138.552,28.452,136.839,28.281,135.133,28.112z"/>
	<path fill="#FFAB46" d="M154.706,39.033c0.739-0.585,1.302-1.916,1.261-2.873c-0.075-1.887-0.184-3.773-0.309-5.658
		c-0.018-0.28-0.035-0.561-0.054-0.841c0,0,0-0.001,0-0.001c-0.179-2.569-0.392-5.136-0.634-7.699
		c-0.087-0.989-0.577-2.092-1.214-2.867c-3.206-3.91-6.451-7.786-9.728-11.636c-0.281-0.331-0.563-0.661-0.845-0.992
		c-0.975-1.14-1.936-2.291-2.921-3.423c-0.7-0.806-2.039-1.417-3.115-1.478c-2.81-0.155-5.62-0.275-8.432-0.379c0,0,0,0-0.001,0
		c-0.326-0.012-0.652-0.031-0.979-0.042c-2.413-0.085-4.827-0.142-7.24-0.196c-0.688-0.015-1.375-0.042-2.064-0.056
		c-0.619-0.014-1.294,0.078-1.936,0.257h0c-0.547,0.153-1.071,0.368-1.501,0.659c-0.165,0.112-0.329,0.226-0.494,0.339
		c-0.001,0-0.002,0.001-0.003,0.002c-1.125,0.767-2.245,1.543-3.369,2.313c-0.366,0.25-0.731,0.502-1.098,0.753
		c-7.94,5.438-15.864,10.903-23.797,16.353v0c-0.335,0.23-0.669,0.46-1.003,0.691c-1.125,0.771-2.245,1.547-3.37,2.317
		c-1.311,0.896-1.959,1.714-1.11,2.805c0.001,0.001,0.001,0.002,0.002,0.002c0.013,0.017,0.019,0.033,0.033,0.05
		c0.109,0.209,0.215,0.415,0.323,0.624c0.729,1.407,1.45,2.801,2.17,4.193c0.193,0.374,0.39,0.753,0.583,1.126
		c3.53,6.824,6.98,13.491,10.507,20.111c0.378,0.714,1.658,1.333,2.524,1.341c11.73,0.112,23.462,0.138,35.192,0.088
		c1.071-0.001,2.327-0.381,3.176-1.016c2.868-2.141,5.723-4.301,8.57-6.469c0.324-0.246,0.651-0.488,0.975-0.735
		C148.124,44.165,151.426,41.613,154.706,39.033z M154.103,28.233c0.026,0.363,0.053,0.729,0.08,1.095c0,0,0,0.001,0,0.001
		c0.02,0.272,0.041,0.543,0.061,0.818c0.147,2,0.298,4.043,0.456,6.198c-3.94-3.941-9.052-6.298-8.038-12.607
		c1.28-0.481,2.635-0.988,4.092-1.534c0.897-0.337,1.825-0.686,2.824-1.062C153.756,23.541,153.928,25.87,154.103,28.233z
		 M147.022,29.294c-0.89-0.088-1.764-0.175-2.625-0.261c-1.005-0.1-1.99-0.197-2.967-0.295c-0.382-0.038-0.76-0.075-1.139-0.113l0,0
		c-1.739-0.173-3.451-0.343-5.158-0.513c0,0,0,0,0,0c-0.428-0.042-0.858-0.085-1.287-0.128c-2.244-0.223-4.499-0.446-6.835-0.679
		c2.125-1.55,4.099-2.999,6.019-4.396c1.617-1.178,3.197-2.32,4.784-3.441c0.071-0.05,0.167-0.078,0.28-0.089
		c0.335-0.034,0.799,0.087,1.077,0.25c1.863,1.103,4.054,1.962,5.405,3.533c0.655,0.762,1.042,1.758,1.405,2.897
		c0.134,0.419,0.265,0.856,0.404,1.312c0,0,0,0.001,0,0.001c0.095,0.31,0.193,0.625,0.299,0.948
		C146.787,28.639,146.898,28.964,147.022,29.294z M141.991,7.051c0.014,0.017,0.028,0.034,0.042,0.05
		c0.273,0.327,0.556,0.665,0.828,0.989c3.533,4.219,6.916,8.257,10.427,12.45c0,0,0,0-0.001,0l0,0
		c-0.17,0.051-0.326,0.101-0.493,0.152c-1.274,0.389-2.46,0.77-3.606,1.107c-0.757,0.224-1.505,0.424-2.253,0.59
		c-0.144,0.032-0.287,0.073-0.431,0.103c-0.008,0.001-0.016,0-0.024,0.001c-0.73,0.128-1.615-0.537-2.427-0.828
		c-4.617-1.664-6.125-4.873-5.221-9.65c0.267-1.404,0.318-2.852,0.335-4.405c0.013-1.21,0.005-2.484,0.06-3.861
		C140.166,4.871,141.078,5.961,141.991,7.051z M82.777,25.658c3.313-2.31,6.619-4.634,9.942-6.929
		c5.906-4.082,11.795-8.188,17.736-12.216c0.358-0.242,0.717-0.482,1.074-0.724c0.012-0.008,0.024-0.017,0.037-0.025
		c0.436-0.294,0.872-0.589,1.309-0.882c0.626-0.421,1.25-0.847,1.877-1.266c1.263-0.843,3.02-1.333,4.544-1.328
		c3.085,0.014,6.17,0.115,9.254,0.237c0.312,0.013,0.623,0.025,0.935,0.038c0,0,0,0,0.001,0c2.094,0.085,4.188,0.175,6.282,0.253
		c0.805,0.03,1.609,0.117,2.593,0.188c0,0,0,0,0,0.001l0,0c-0.156,4.939-0.276,9.666-0.496,14.386
		c-0.025,0.564-0.559,1.123-0.911,1.647c-0.126,0.19-0.439,0.243-0.616,0.411c-0.411,0.391-0.826,0.769-1.246,1.133
		c-3.247,2.821-6.768,4.852-10.591,6.101c-3.59,1.174-7.447,1.661-11.603,1.44c-1.027-0.055-2.06-0.032-3.094,0.029
		c-2.633,0.157-5.28,0.56-7.905,0.591c-0.567,0.007-1.134,0-1.698-0.035c-2.39-0.146-4.772-0.414-7.152-0.727
		c-0.194-0.025-0.388-0.052-0.582-0.077c0,0-0.001,0-0.001-0.001c-0.559-0.075-1.119-0.151-1.678-0.23
		c-1.882-0.266-3.763-0.547-5.646-0.813c-0.779-0.109-1.558-0.217-2.338-0.318C82.798,26.247,82.787,25.955,82.777,25.658z
		 M94.738,51.505c-3.228-6.246-6.361-12.308-9.585-18.546c-0.198-0.382-0.401-0.776-0.6-1.159c-0.785-1.52-1.573-3.043-2.373-4.592
		c-0.067-0.13-0.133-0.255-0.2-0.386c0,0,0.001,0,0.002,0c0-0.001-0.001-0.002-0.002-0.004c5.093,1.069,9.612,2.014,14.317,2.999
		c-0.411,7.121-0.802,13.923-1.2,20.724C95.087,50.696,94.99,50.842,94.738,51.505z M140.705,48.253
		c-4.757,4.241-9.871,5.854-16.281,5.426c-8.618-0.572-17.303-0.181-25.958-0.21c-0.809-0.004-1.618-0.049-2.659-0.083
		c0-0.001,0-0.002,0-0.003c0,0,0,0-0.001,0c0.445-7.872,0.879-15.568,1.328-23.489c7.138-0.473,14.182-0.765,21.19-1.441
		c9.225-0.887,18.262,0.869,27.374,1.587c0.545,0.044,1.185,0.252,1.581,0.605c0.516,0.464,1.028,0.933,1.542,1.404
		c1.882,1.725,3.766,3.505,5.791,5.392c-3.037,2.335-6.076,4.525-9.006,6.794c-0.597,0.462-1.198,0.922-1.783,1.394
		c-0.318,0.256-0.622,0.527-0.937,0.788C142.152,47.023,141.413,47.621,140.705,48.253z"/>
</g>
</svg>
