<?xml version="1.0" encoding="utf-8"?>
<!-- Generator: Adobe Illustrator 16.0.3, SVG Export Plug-In . SVG Version: 6.00 Build 0)  -->
<!DOCTYPE svg PUBLIC "-//W3C//DTD SVG 1.1//EN" "http://www.w3.org/Graphics/SVG/1.1/DTD/svg11.dtd">
<svg version="1.1" id="Ebene_1" xmlns="http://www.w3.org/2000/svg" xmlns:xlink="http://www.w3.org/1999/xlink" x="0px" y="0px"
	 width="24px" height="24px" viewBox="0 0 24 24" enable-background="new 0 0 24 24" xml:space="preserve">
<g id="logo">
	<g id="symbol" transform="translate(0.000000, 1.061538)">
		<path id="wave" fill="#FFAB28" stroke="#FFAB28" stroke-linecap="round" stroke-linejoin="round" stroke-miterlimit="10" d="
			M20.35,3.395c0.146-0.145,0.146-0.38,0-0.525c-0.146-0.145-0.383-0.145-0.529,0l-3.357,3.343c-0.146,0.145-0.146,0.38,0,0.525
			c0.146,0.145,0.382,0.145,0.527,0L20.35,3.395z"/>
		<path id="wave_1_" fill="#FFAB28" stroke="#FFAB28" stroke-linecap="round" stroke-linejoin="round" stroke-miterlimit="10" d="
			M14.417,2.611c0.061-0.196-0.051-0.404-0.248-0.464c-0.196-0.06-0.405,0.05-0.465,0.247l-0.617,2.009
			c-0.061,0.196,0.05,0.404,0.248,0.464c0.196,0.06,0.404-0.05,0.465-0.247L14.417,2.611z"/>
		<path id="wave_2_" fill="#FFAB28" stroke="#FFAB28" stroke-linecap="round" stroke-linejoin="round" stroke-miterlimit="10" d="
			M20.827,9.484c0.197-0.06,0.308-0.268,0.248-0.464c-0.062-0.196-0.27-0.307-0.466-0.247l-2.019,0.614
			c-0.197,0.06-0.309,0.268-0.248,0.464c0.06,0.196,0.269,0.307,0.465,0.247L20.827,9.484z"/>
		<path id="wave_3_" fill="#FFAB28" stroke="#FFAB28" stroke-linecap="round" stroke-linejoin="round" stroke-miterlimit="10" d="
			M17.428,2.333c0.107-0.176,0.05-0.404-0.127-0.51c-0.176-0.106-0.406-0.049-0.513,0.127l-1.901,3.151
			c-0.106,0.176-0.049,0.404,0.127,0.51c0.177,0.105,0.406,0.049,0.513-0.127L17.428,2.333z"/>
		<path id="wave_4_" fill="#FFAB28" stroke="#FFAB28" stroke-linecap="round" stroke-linejoin="round" stroke-miterlimit="10" d="
			M21.273,6.414c0.178-0.106,0.233-0.334,0.128-0.51c-0.106-0.176-0.336-0.232-0.513-0.127L17.723,7.67
			c-0.178,0.105-0.234,0.334-0.129,0.51c0.107,0.176,0.337,0.233,0.513,0.127L21.273,6.414z"/>
		<path id="Path-8" fill="#FFAB28" stroke="#FFAB28" stroke-linecap="round" stroke-linejoin="round" stroke-miterlimit="10" d="
			M11.128,20.59c4.953,0,8.583-3.387,8.583-8.543v-0.548l-0.513,0.203c-0.039,0.016-0.039,0.016-0.07,0.028
			c-0.081,0.032-0.081,0.032-0.202,0.08c-0.298,0.119-0.298,0.119-0.722,0.287c-0.994,0.396-0.994,0.396-2.188,0.871
			c-1.192,0.476-1.192,0.476-2.187,0.872c-0.796,0.315-0.796,0.315-0.995,0.396l-0.375,0.149l0.179,0.36l1.14,2.295l0.131-0.476
			l-1.141,0.742l0.5,0.083l-1.812-2.317l-0.172-0.22l-0.261,0.104l-3.02,1.202l0.402,0.082l-1.493-1.485l0.083,0.401l4.478-11.144
			l0.205-0.51h-0.551c-4.932,0-8.583,3.751-8.583,8.543C2.545,16.709,6.444,20.59,11.128,20.59z M11.128,4.247l-0.346-0.509
			L6.304,14.88l-0.091,0.228l0.174,0.175l1.493,1.485l0.174,0.173l0.229-0.091l3.02-1.203l-0.433-0.116l1.811,2.316l0.211,0.271
			l0.288-0.188l1.14-0.742l0.277-0.181l-0.147-0.295l-1.14-2.294l-0.195,0.508c0.199-0.078,0.199-0.078,0.994-0.396
			c0.994-0.396,0.994-0.396,2.188-0.87s1.193-0.475,2.188-0.871c0.423-0.169,0.423-0.169,0.72-0.287
			c0.121-0.049,0.121-0.049,0.203-0.081c0.032-0.013,0.032-0.013,0.054-0.021c0.018-0.008-0.494-0.353-0.494-0.353
			c0,4.733-3.286,7.801-7.837,7.801c-4.272,0-7.837-3.549-7.837-7.801C3.292,7.661,6.614,4.247,11.128,4.247z"/>
	</g>
</g>
</svg>
