<?xml version="1.0" encoding="utf-8"?>
<!-- Generator: Adobe Illustrator 16.0.3, SVG Export Plug-In . SVG Version: 6.00 Build 0)  -->
<!DOCTYPE svg PUBLIC "-//W3C//DTD SVG 1.1//EN" "http://www.w3.org/Graphics/SVG/1.1/DTD/svg11.dtd">
<svg version="1.1" id="Ebene_1" xmlns="http://www.w3.org/2000/svg" xmlns:xlink="http://www.w3.org/1999/xlink" x="0px" y="0px"
	 width="24px" height="24px" viewBox="0 0 24 24" enable-background="new 0 0 24 24" xml:space="preserve">
<path fill="#FFAB28" d="M23.396,5.167c-0.854,0.378-1.711,0.664-2.66,0.76c0.949-0.571,1.71-1.521,2.089-2.567
	c-0.95,0.571-1.899,0.95-2.942,1.143c-0.949-0.95-2.185-1.521-3.513-1.521c-2.566,0-4.655,2.089-4.655,4.652
	c0,0.382,0,0.76,0.096,1.046C7.916,8.491,4.5,6.685,2.218,3.836C1.743,4.503,1.554,5.356,1.554,6.21
	c0,1.617,0.853,3.042,2.088,3.895c-0.761-0.096-1.517-0.285-2.088-0.571c0,0,0,0,0,0.096c0,2.277,1.613,4.177,3.702,4.559
	c-0.378,0.093-0.756,0.189-1.231,0.189c-0.286,0-0.571,0-0.857-0.097c0.571,1.899,2.281,3.231,4.37,3.231
	c-1.613,1.235-3.609,1.991-5.794,1.991c-0.378,0-0.76,0-1.139-0.093C2.693,20.739,5.163,21.5,7.727,21.5
	c8.643,0,13.295-7.122,13.295-13.294c0-0.189,0-0.378,0-0.571C21.971,6.97,22.731,6.117,23.396,5.167"/>
</svg>
