<?xml version="1.0" encoding="utf-8"?>
<!-- Generator: Adobe Illustrator 16.0.3, SVG Export Plug-In . SVG Version: 6.00 Build 0)  -->
<!DOCTYPE svg PUBLIC "-//W3C//DTD SVG 1.1//EN" "http://www.w3.org/Graphics/SVG/1.1/DTD/svg11.dtd">
<svg version="1.1" id="Ebene_1" xmlns="http://www.w3.org/2000/svg" xmlns:xlink="http://www.w3.org/1999/xlink" x="0px" y="0px"
	 width="660px" height="392.542px" viewBox="0 0 660 392.542" enable-background="new 0 0 660 392.542" xml:space="preserve">
<g enable-background="new    ">
	<path fill="#5A5A5A" d="M174.776,229.72c-15.261,0-21.591-9.705-21.591-23.067c0-14.487,7.174-25.389,23.208-25.389
		c3.657,0,7.384,0.563,10.76,1.407l-0.704,5.907c-3.657-1.125-7.173-1.688-10.76-1.688c-10.83,0-15.472,8.298-15.472,18.707
		c0,11.674,5.063,18.355,16.105,18.355c3.446,0,7.806-0.984,10.619-2.393l0.704,5.768
		C184.059,228.806,179.558,229.72,174.776,229.72z"/>
	<path fill="#5A5A5A" d="M207.967,229.791c-9.494,0-15.683-5.484-15.683-17.793c0-10.268,6.47-18.425,17.02-18.425
		c8.932,0,15.753,4.923,15.753,17.511C225.057,221.632,218.305,229.791,207.967,229.791z M208.741,198.846
		c-5.064,0-9.846,3.868-9.846,12.519c0,8.439,3.446,13.081,9.846,13.081c5.204,0,9.705-4.079,9.705-13.011
		C218.446,203.488,215.21,198.846,208.741,198.846z"/>
	<path fill="#5A5A5A" d="M256.067,229.158v-22.574c0-4.924-1.336-7.808-5.978-7.808c-5.767,0-9.917,5.839-9.917,13.573v16.809
		h-6.329v-34.953h6.118c0,2.041-0.141,5.274-0.563,7.314l0.141,0.07c2.04-4.854,6.33-8.088,12.308-8.088
		c8.017,0,10.549,4.993,10.549,11.183v24.474H256.067z"/>
	<path fill="#5A5A5A" d="M294.602,183.304c-1.618-0.563-3.446-0.773-5.134-0.773c-4.993,0-7.173,2.813-7.173,9.002v2.672H292v4.923
		h-9.706v30.029h-6.33v-30.029h-7.173v-4.923h7.173v-2.602c0-9.635,4.712-14.207,13.433-14.207c1.969,0,3.868,0.212,5.767,0.634
		L294.602,183.304z"/>
	<path fill="#5A5A5A" d="M298.889,229.158v-51.339h6.329v51.339H298.889z"/>
	<path fill="#5A5A5A" d="M339.536,229.158c0-2.039,0.211-5.273,0.563-7.314l-0.142-0.069c-2.04,4.853-6.329,8.088-12.308,8.088
		c-8.017,0-10.479-4.993-10.479-11.182v-24.475h6.259v22.575c0,4.923,1.407,7.808,5.978,7.808c5.767,0,9.986-5.838,9.986-13.573
		v-16.809h6.26v34.953H339.536L339.536,229.158z"/>
	<path fill="#5A5A5A" d="M383.908,211.294h-22.856c-0.28,9.354,3.587,13.361,11.042,13.361c3.586,0,7.385-0.844,10.197-2.18
		l0.563,5.134c-3.375,1.406-7.455,2.181-11.813,2.181c-10.761,0-16.526-5.627-16.526-17.935c0-10.479,5.695-18.285,15.611-18.285
		c9.848,0,13.995,6.683,13.995,14.698C384.119,209.115,384.049,210.099,383.908,211.294z M369.843,198.212
		c-4.571,0-7.806,3.447-8.51,8.58h16.315C377.79,201.66,374.766,198.212,369.843,198.212z"/>
	<path fill="#5A5A5A" d="M415.552,229.158v-22.574c0-4.924-1.337-7.808-5.978-7.808c-5.768,0-9.917,5.839-9.917,13.573v16.809
		h-6.329v-34.953h6.117c0,2.041-0.141,5.274-0.563,7.314l0.141,0.07c2.041-4.854,6.33-8.088,12.309-8.088
		c8.018,0,10.549,4.993,10.549,11.183v24.474H415.552z"/>
	<path fill="#5A5A5A" d="M445.999,229.65c-8.369,0-15.331-3.938-15.331-16.809c0-11.252,5.767-19.199,17.441-19.199
		c2.741,0,5.483,0.422,7.946,1.125l-0.704,5.557c-2.181-0.845-4.781-1.478-7.523-1.478c-7.033,0-10.479,5.204-10.479,13.151
		c0,6.821,2.251,12.236,9.987,12.236c2.953,0,6.047-0.703,8.298-1.898l0.493,5.485C453.806,228.736,450.078,229.65,445.999,229.65z"
		/>
	<path fill="#5A5A5A" d="M490.584,211.294h-22.855c-0.281,9.354,3.587,13.361,11.041,13.361c3.587,0,7.385-0.844,10.197-2.18
		l0.563,5.134c-3.376,1.406-7.455,2.181-11.814,2.181c-10.761,0-16.526-5.627-16.526-17.935c0-10.479,5.695-18.285,15.611-18.285
		c9.848,0,13.995,6.683,13.995,14.698C490.795,209.115,490.725,210.099,490.584,211.294z M476.519,198.212
		c-4.57,0-7.806,3.447-8.51,8.58h16.316C484.466,201.66,481.441,198.212,476.519,198.212z"/>
</g>
<g enable-background="new    ">
	<path fill="#AA0022" d="M201.533,294.925l-4.742-13.381h-24.305l-4.742,13.381h-7.961l20.833-57.163h8.638l21.002,57.163H201.533z
		 M187.221,254.955c-1.101-2.881-1.863-5.59-2.541-8.555h-0.169c-0.677,2.795-1.524,5.76-2.625,8.639l-7.368,20.324h20.156
		L187.221,254.955z"/>
	<path fill="#AA0022" d="M244.972,294.925V267.74c0-5.928-1.609-9.398-7.198-9.398c-6.944,0-11.94,7.027-11.94,16.344v20.24h-7.622
		v-42.09h7.368c0,2.457-0.169,6.353-0.677,8.809l0.169,0.084c2.456-5.844,7.622-9.738,14.82-9.738
		c9.654,0,12.703,6.014,12.703,13.465v29.471H244.972L244.972,294.925z"/>
	<path fill="#AA0022" d="M292.307,294.925c0-2.371,0.169-6.098,0.678-8.555l-0.169-0.084c-2.371,5.674-7.537,9.399-14.143,9.399
		c-10.332,0-15.498-7.537-15.498-19.815c0-14.736,8.469-23.627,21.764-23.627c2.287,0,4.573,0.168,7.114,0.422v-19.563h7.622v61.82
		h-7.368V294.925z M292.053,259.188c-2.541-0.679-5.081-0.933-7.452-0.933c-8.045,0-13.381,4.828-13.381,16.938
		c0,9.062,2.964,14.228,9.316,14.228c7.622,0,11.517-8.893,11.517-16.26V259.188z"/>
	<path fill="#AA0022" d="M334.814,259.527c-8.893-1.523-13.125,4.996-13.125,18.461v16.938h-7.622v-42.088h7.368
		c0,2.625-0.254,6.521-0.932,9.992h0.169c1.779-5.844,6.098-11.688,14.482-10.756L334.814,259.527z"/>
	<path fill="#AA0022" d="M358.102,295.687c-11.433,0-18.885-6.605-18.885-21.425c0-12.364,7.791-22.188,20.494-22.188
		c10.755,0,18.969,5.93,18.969,21.088C378.68,285.865,370.551,295.687,358.102,295.687z M359.033,258.425
		c-6.098,0-11.856,4.658-11.856,15.074c0,10.162,4.149,15.752,11.856,15.752c6.267,0,11.688-4.912,11.688-15.668
		C370.721,264.015,366.824,258.425,359.033,258.425z"/>
	<path fill="#AA0022" d="M393.073,245.892c-2.796,0-5.081-2.202-5.081-4.997c0-2.71,2.285-4.911,5.081-4.911
		c2.794,0,5.081,2.117,5.081,4.911C398.154,243.605,395.867,245.892,393.073,245.892z M389.262,294.925v-42.09h7.623v42.09H389.262z
		"/>
	<path fill="#AA0022" d="M436.684,294.925c0-2.371,0.17-6.098,0.679-8.555l-0.169-0.084c-2.371,5.674-7.537,9.399-14.144,9.399
		c-10.331,0-15.497-7.537-15.497-19.815c0-14.736,8.469-23.627,21.765-23.627c2.286,0,4.572,0.168,7.112,0.422v-19.563h7.622v61.82
		h-7.368V294.925z M436.43,259.188c-2.54-0.679-5.08-0.933-7.451-0.933c-8.045,0-13.381,4.828-13.381,16.938
		c0,9.062,2.965,14.228,9.315,14.228c7.622,0,11.517-8.893,11.517-16.26V259.188z"/>
</g>
<g enable-background="new    ">
	<path fill="#5A5A5A" d="M258.365,124.531l-6.657-29.921l-10.532,21.502l-5.922-2.901l21.285-43.455l5.922,2.901L252.433,93.13
		l27.282-12.021l7.274,3.563l-28.627,12l8.051,31.801L258.365,124.531z"/>
	<path fill="#5A5A5A" d="M281.454,136.559c-8.69-4.256-11.896-12.053-6.378-23.319c4.604-9.399,14.185-13.966,23.841-9.236
		c8.177,4.005,12.213,11.569,6.569,23.093C300.756,136.753,290.917,141.194,281.454,136.559z M296.037,108.58
		c-4.635-2.271-10.747-0.874-14.625,7.045c-3.784,7.725-2.711,13.519,3.147,16.389c4.764,2.333,10.714,0.617,14.719-7.559
		C302.84,117.18,301.959,111.48,296.037,108.58z"/>
	<path fill="#5A5A5A" d="M315.029,152.924c-6.567-3.216-7.238-6.898-3.864-13.786l9.019-18.412l-6.567-3.217l2.208-4.506
		l6.567,3.217l5.077-10.365l6.582,1.229l-5.865,11.975l8.949,4.383l-2.207,4.507l-8.95-4.383l-8.009,16.352
		c-2.586,5.279-2.313,7.168,1.292,8.934c1.48,0.725,3.217,1.256,4.662,1.565l-2.397,4.893
		C319.532,154.81,317.088,153.933,315.029,152.924z"/>
	<path fill="#5A5A5A" d="M329.315,159.283l23.019-46.996l5.795,2.838l-23.02,46.996L329.315,159.283z"/>
	<path fill="#5A5A5A" d="M346.055,167.482l15.672-31.996l5.795,2.838L351.85,170.32L346.055,167.482z M367.209,131.626
		c-2.125-1.041-3.043-3.566-2.002-5.69c1.009-2.061,3.566-2.883,5.691-1.842c2.125,1.041,3.074,3.501,2.033,5.626
		C371.924,131.78,369.334,132.667,367.209,131.626z"/>
	<path fill="#5A5A5A" d="M383.137,185.646l10.122-20.666c2.207-4.506,2.276-7.745-1.973-9.826
		c-5.278-2.585-11.694,0.897-15.163,7.979l-7.536,15.386l-5.793-2.838l15.672-31.996l5.601,2.743
		c-0.914,1.867-2.493,4.766-3.793,6.443l0.097,0.127c4.043-3.527,9.42-4.564,14.894-1.885c7.338,3.595,7.416,9.301,4.643,14.966
		l-10.975,22.404L383.137,185.646z"/>
</g>
<g enable-background="new    ">
	<path fill="#5A5A5A" d="M247.469,365.296l-4.628-14.434l-25.939-0.787l-5.495,14.127l-8.496-0.256l24.084-60.336l9.219,0.279
		l20.565,61.689L247.469,365.296z M233.487,322.173c-1.081-3.107-1.808-6.025-2.433-9.211l-0.182-0.006
		c-0.813,2.961-1.813,6.098-3.082,9.135l-8.521,21.453l21.512,0.652L233.487,322.173z"/>
	<path fill="#5A5A5A" d="M278.57,389.669c-11.568-0.35-18.75-5.182-18.49-13.768c0.162-5.334,3.725-9.479,7.766-11.436
		c-2.673-1.348-4.319-3.75-4.229-6.73c0.096-3.164,2.081-6,5.288-7.35c-4.352-2.666-6.381-7.342-6.209-13.035
		c0.288-9.488,7.667-17.137,20.229-16.756c2.622,0.08,4.692,0.414,7.026,1.027l15.274,0.463l-0.194,6.418l-7.593-0.23
		c2.295,1.879,3.645,5.086,3.53,8.883c-0.293,9.67-7.195,16.518-20.029,16.129c-1.898-0.059-4.15-0.398-5.679-0.715
		c-2.013,0.754-2.96,2.172-3.004,3.617c-0.077,2.531,2.153,3.594,7.576,3.758l8.314,0.252c9.763,0.297,15.042,5.162,14.795,13.295
		C302.656,382.984,292.671,390.097,278.57,389.669z M285.684,366.91l-11.479-0.35c-3.58,1.701-5.93,4.615-6.034,8.051
		c-0.162,5.332,4.812,8.377,11.863,8.592c9.218,0.279,14.668-3.445,14.836-8.959C295.001,369.906,292.01,367.099,285.684,366.91z
		 M282.381,326.64c-7.14-0.215-11.522,4.084-11.706,10.141c-0.203,6.688,3.755,10.428,10.804,10.641
		c6.779,0.205,11.229-3.369,11.43-9.967C293.109,330.857,289.25,326.849,282.381,326.64z"/>
	<path fill="#5A5A5A" d="M314.617,367.333l1.362-44.92l8.135,0.246l-1.362,44.92L314.617,367.333z M320.271,315.125
		c-2.982-0.09-5.352-2.514-5.261-5.496c0.087-2.893,2.599-5.168,5.582-5.078c2.982,0.09,5.354,2.424,5.264,5.406
		C325.768,312.849,323.253,315.214,320.271,315.125z"/>
	<path fill="#5A5A5A" d="M338.114,368.044l2.001-65.979l8.135,0.248l-2.001,65.979L338.114,368.044z"/>
	<path fill="#5A5A5A" d="M396.111,346.826l-29.375-0.891c-0.726,12.01,4.09,17.313,13.671,17.604
		c4.608,0.139,9.522-0.797,13.19-2.406l0.521,6.621c-4.395,1.676-9.665,2.512-15.27,2.342c-13.828-0.42-21.021-7.875-20.541-23.691
		c0.407-13.467,8.032-23.277,20.776-22.891c12.653,0.383,17.726,9.131,17.413,19.436
		C396.467,344.033,396.34,345.294,396.111,346.826z M378.545,329.464c-5.875-0.178-10.167,4.125-11.271,10.695l20.97,0.637
		C388.623,334.205,384.871,329.658,378.545,329.464z"/>
</g>
<g enable-background="new    ">
	<path fill="#FF7528" d="M173.09,157.826c-1.892,0-3.522-0.196-4.892-0.522v-5.219c1.174,0.392,2.87,0.718,4.501,0.718
		c3.457,0,5.414-1.435,5.414-7.306v-32.159h6.001v32.551C184.114,153.194,181.113,157.826,173.09,157.826z"/>
	<path fill="#FF7528" d="M198.071,119.6c-2.152,0-3.914-1.696-3.914-3.849c0-2.088,1.761-3.784,3.914-3.784
		c2.153,0,3.914,1.631,3.914,3.784C201.985,117.838,200.224,119.6,198.071,119.6z M195.135,157.369v-32.42h5.871v32.42H195.135z"/>
	<path fill="#FF7528" d="M228.075,130.102c-6.849-1.174-10.111,3.849-10.111,14.221v13.046h-5.871v-32.42h5.675
		c0,2.022-0.196,5.022-0.717,7.697h0.13c1.37-4.501,4.697-9.002,11.154-8.284L228.075,130.102z"/>
	<path fill="#FF7528" d="M251.23,157.369c0-2.283,0-4.632,0.326-6.458h-0.13c-1.566,3.979-5.675,7.045-11.024,7.045
		c-5.349,0-9.002-2.87-9.002-8.023c0-7.11,7.241-11.611,19.504-11.611v-2.413c0-4.501-1.761-6.915-7.11-6.915
		c-3.066,0-6.979,0.979-9.785,2.675l-0.587-5.022c3.131-1.305,7.045-2.349,11.35-2.349c9.328,0,12.002,4.37,12.002,10.828v12.916
		c0,3.066,0.065,6.523,0.13,9.328L251.23,157.369L251.23,157.369z M250.904,142.431c-11.285,0-13.764,3.457-13.764,6.393
		c0,2.739,1.957,4.501,4.958,4.501c5.284,0,8.806-5.219,8.806-10.307V142.431L250.904,142.431z"/>
</g>
<g enable-background="new    ">
	<path fill="#5A5A5A" d="M295.907,88.5c-2.483,0-4.623-0.257-6.421-0.686v-6.849c1.542,0.514,3.767,0.941,5.908,0.941
		c4.538,0,7.106-1.884,7.106-9.589v-42.21h7.876v42.724C310.376,82.42,306.438,88.5,295.907,88.5z"/>
	<path fill="#5A5A5A" d="M347.533,87.9c0-2.997,0-6.079,0.428-8.477h-0.171c-2.056,5.223-7.448,9.247-14.47,9.247
		c-7.021,0-11.814-3.768-11.814-10.531c0-9.332,9.504-15.239,25.6-15.239v-3.168c0-5.907-2.313-9.075-9.332-9.075
		c-4.023,0-9.162,1.284-12.842,3.51l-0.771-6.592c4.11-1.713,9.247-3.083,14.896-3.083c12.244,0,15.754,5.736,15.754,14.213v16.952
		c0,4.024,0.086,8.562,0.172,12.243H347.533L347.533,87.9z M347.105,68.293c-14.813,0-18.065,4.538-18.065,8.391
		c0,3.596,2.567,5.907,6.507,5.907c6.936,0,11.559-6.849,11.559-13.527V68.293L347.105,68.293z"/>
	<path fill="#5A5A5A" d="M385.634,87.9h-7.962l-16.011-42.552h8.647l8.989,25.343c0.941,2.739,1.798,5.394,2.481,8.048h0.172
		c0.685-2.482,1.456-5.223,2.396-7.791l9.246-25.6h8.305L385.634,87.9z"/>
	<path fill="#5A5A5A" d="M430.412,87.9c0-2.997,0-6.079,0.428-8.477h-0.172c-2.055,5.223-7.448,9.247-14.469,9.247
		c-7.021,0-11.814-3.768-11.814-10.531c0-9.332,9.504-15.239,25.601-15.239v-3.168c0-5.907-2.313-9.075-9.333-9.075
		c-4.024,0-9.161,1.284-12.844,3.51l-0.771-6.592c4.11-1.713,9.247-3.083,14.896-3.083c12.243,0,15.755,5.736,15.755,14.213v16.952
		c0,4.024,0.086,8.562,0.171,12.243H430.412L430.412,87.9z M429.984,68.293c-14.813,0-18.066,4.538-18.066,8.391
		c0,3.596,2.568,5.907,6.508,5.907c6.936,0,11.56-6.849,11.56-13.527L429.984,68.293L429.984,68.293z"/>
</g>
<g enable-background="new    ">
	<path fill="#9C6043" d="M416.688,353.589v35.059h-5.395v-35.059H399.92v-4.514h28.199v4.514H416.688z"/>
	<path fill="#9C6043" d="M450.573,373.757H431.52c-0.233,7.797,2.99,11.139,9.205,11.139c2.989,0,6.155-0.703,8.5-1.816l0.47,4.279
		c-2.813,1.172-6.214,1.816-9.85,1.816c-8.97,0-13.775-4.689-13.775-14.949c0-8.734,4.748-15.242,13.014-15.242
		c8.208,0,11.667,5.568,11.667,12.254C450.749,371.941,450.69,372.761,450.573,373.757z M438.848,362.853
		c-3.811,0-6.507,2.873-7.093,7.152h13.602C445.473,365.726,442.952,362.853,438.848,362.853z"/>
	<path fill="#9C6043" d="M473.965,388.648c0-2.053,0-4.162,0.293-5.805h-0.117c-1.405,3.576-5.1,6.332-9.906,6.332
		c-4.808,0-8.092-2.58-8.092-7.211c0-6.391,6.509-10.436,17.529-10.436v-2.168c0-4.045-1.583-6.217-6.391-6.217
		c-2.755,0-6.272,0.881-8.793,2.404l-0.527-4.514c2.813-1.172,6.331-2.111,10.2-2.111c8.384,0,10.786,3.928,10.786,9.732v11.607
		c0,2.754,0.059,5.861,0.117,8.383h-5.1V388.648z M473.672,375.222c-10.143,0-12.37,3.107-12.37,5.746
		c0,2.461,1.759,4.045,4.456,4.045c4.748,0,7.914-4.689,7.914-9.264V375.222z"/>
	<path fill="#9C6043" d="M525.262,388.648v-18.701c0-4.045-0.938-6.625-4.748-6.625c-4.163,0-8.148,4.396-8.148,11.434v13.895
		h-5.218v-18.762c0-3.635-0.763-6.564-4.748-6.564c-4.455,0-8.148,4.748-8.148,11.432v13.895h-5.277v-29.137h5.103
		c0,1.699-0.117,4.338-0.47,6.098l0.116,0.059c1.7-4.104,5.452-6.742,10.143-6.742c6.156,0,7.798,4.279,8.032,6.625
		c1.23-2.756,4.338-6.625,9.966-6.625c5.511,0,8.677,2.99,8.677,9.557v20.168h-5.278V388.648z"/>
	<path fill="#9C6043" d="M553.285,388.648v-39.57h5.395v34.939h14.188v4.631H553.285L553.285,388.648z"/>
	<path fill="#9C6043" d="M599.6,373.757h-19.053c-0.234,7.797,2.99,11.139,9.203,11.139c2.99,0,6.156-0.703,8.501-1.816l0.47,4.279
		c-2.813,1.172-6.215,1.816-9.85,1.816c-8.969,0-13.776-4.689-13.776-14.949c0-8.734,4.749-15.242,13.016-15.242
		c8.207,0,11.666,5.568,11.666,12.254C599.775,371.941,599.717,372.761,599.6,373.757z M587.875,362.853
		c-3.811,0-6.508,2.873-7.094,7.152h13.601C594.499,365.726,591.979,362.853,587.875,362.853z"/>
	<path fill="#9C6043" d="M622.992,388.648c0-2.053,0-4.162,0.293-5.805h-0.117c-1.407,3.576-5.101,6.332-9.908,6.332
		c-4.807,0-8.09-2.58-8.09-7.211c0-6.391,6.508-10.436,17.529-10.436v-2.168c0-4.045-1.584-6.217-6.392-6.217
		c-2.756,0-6.272,0.881-8.794,2.404l-0.526-4.514c2.813-1.172,6.331-2.111,10.2-2.111c8.384,0,10.786,3.928,10.786,9.732v11.607
		c0,2.754,0.06,5.861,0.117,8.383h-5.099V388.648z M622.699,375.222c-10.144,0-12.371,3.107-12.371,5.746
		c0,2.461,1.76,4.045,4.456,4.045c4.749,0,7.915-4.689,7.915-9.264V375.222z"/>
	<path fill="#9C6043" d="M655.588,388.648c0-1.643,0.117-4.221,0.469-5.922l-0.116-0.059c-1.643,3.928-5.219,6.508-9.791,6.508
		c-7.152,0-10.729-5.217-10.729-13.719c0-10.199,5.862-16.355,15.066-16.355c1.583,0,3.165,0.117,4.925,0.293v-13.543h5.274v42.797
		H655.588L655.588,388.648z M655.412,363.91c-1.76-0.469-3.519-0.646-5.16-0.646c-5.568,0-9.262,3.342-9.262,11.727
		c0,6.271,2.052,9.848,6.447,9.848c5.276,0,7.975-6.154,7.975-11.256V363.91z"/>
</g>
<g enable-background="new    ">
	<path fill="#AA0022" d="M403.368,125.184l-13.571-16.977v16.977h-4.676V90.875h4.676v16.163l13.622-16.163h5.743l-14.484,16.57
		l15.043,17.738L403.368,125.184L403.368,125.184z"/>
	<path fill="#AA0022" d="M427.255,125.184c0-1.779,0-3.608,0.254-5.032h-0.102c-1.22,3.101-4.422,5.489-8.591,5.489
		c-4.166,0-7.015-2.236-7.015-6.251c0-5.54,5.644-9.048,15.197-9.048v-1.88c0-3.508-1.371-5.388-5.539-5.388
		c-2.39,0-5.438,0.762-7.625,2.084l-0.457-3.914c2.438-1.017,5.489-1.83,8.844-1.83c7.27,0,9.354,3.405,9.354,8.438v10.063
		c0,2.39,0.051,5.083,0.102,7.269H427.255z M427,113.544c-8.793,0-10.725,2.694-10.725,4.981c0,2.135,1.524,3.507,3.863,3.507
		c4.116,0,6.86-4.066,6.86-8.03L427,113.544L427,113.544z"/>
	<path fill="#AA0022" d="M456.326,125.184v-16.315c0-3.558-0.967-5.642-4.32-5.642c-4.168,0-7.168,4.219-7.168,9.81v12.147h-4.574
		V99.923h4.422c0,1.474-0.102,3.812-0.405,5.286l0.102,0.051c1.476-3.508,4.574-5.846,8.896-5.846c5.795,0,7.625,3.609,7.625,8.082
		v17.688H456.326L456.326,125.184z"/>
	<path fill="#AA0022" d="M478.178,125.54c-3.506,0-5.997-0.305-8.69-1.017V88.081h4.573v12.249c0,1.474-0.151,3.456-0.457,4.727
		l0.103,0.051c1.373-3.558,4.522-5.642,8.336-5.642c5.947,0,9.301,4.168,9.301,11.894
		C491.342,120.203,486.311,125.54,478.178,125.54z M480.974,103.227c-4.573,0-6.913,5.337-6.913,9.708v8.386
		c1.322,0.407,2.694,0.61,4.475,0.61c4.829,0,8.03-2.897,8.03-10.165C486.564,106.328,484.785,103.227,480.974,103.227z"/>
	<path fill="#AA0022" d="M511.315,125.184c0-1.779,0-3.608,0.254-5.032h-0.103c-1.22,3.101-4.422,5.489-8.59,5.489
		c-4.167,0-7.015-2.236-7.015-6.251c0-5.54,5.643-9.048,15.196-9.048v-1.88c0-3.508-1.371-5.388-5.539-5.388
		c-2.389,0-5.438,0.762-7.625,2.084l-0.457-3.914c2.439-1.017,5.489-1.83,8.845-1.83c7.269,0,9.353,3.405,9.353,8.438v10.063
		c0,2.39,0.051,5.083,0.103,7.269H511.315z M511.061,113.544c-8.793,0-10.724,2.694-10.724,4.981c0,2.135,1.524,3.507,3.862,3.507
		c4.117,0,6.86-4.066,6.86-8.03L511.061,113.544L511.061,113.544z"/>
	<path fill="#AA0022" d="M540.386,125.184v-16.315c0-3.558-0.966-5.642-4.319-5.642c-4.168,0-7.167,4.219-7.167,9.81v12.147h-4.574
		V99.923h4.422c0,1.474-0.103,3.812-0.406,5.286l0.103,0.051c1.474-3.508,4.573-5.846,8.895-5.846c5.795,0,7.624,3.609,7.624,8.082
		v17.688H540.386L540.386,125.184z"/>
</g>
<g enable-background="new    ">
	<path fill="#AA0022" d="M427.472,185.187c-2.927,0-5.794-0.358-8.124-0.956l0.299-5.257c2.33,0.836,5.496,1.493,8.304,1.493
		c4.84,0,8.842-1.972,8.842-6.93c0-9.08-18.16-5.496-18.16-18.34c0-6.631,5.257-11.41,14.337-11.41c2.449,0,4.898,0.239,7.288,0.717
		l-0.299,4.899c-2.33-0.657-4.898-1.075-7.288-1.075c-5.495,0-8.363,2.509-8.363,6.272c0,8.722,18.221,5.556,18.221,18.16
		C442.525,179.99,436.851,185.187,427.472,185.187z"/>
	<path fill="#AA0022" d="M466.718,185.126c-12.963,0-18.339-8.243-18.339-19.594c0-12.306,6.093-21.565,19.713-21.565
		c3.106,0,6.272,0.478,9.142,1.194l-0.599,5.019c-3.105-0.956-6.094-1.434-9.141-1.434c-9.199,0-13.144,7.049-13.144,15.89
		c0,9.917,4.303,15.592,13.682,15.592c2.927,0,6.631-0.836,9.021-2.031l0.599,4.899C474.604,184.35,470.78,185.126,466.718,185.126z
		"/>
	<path fill="#AA0022" d="M505.605,184.649l-13.682-18.101h-0.239v18.101h-5.495v-40.323c2.747-0.18,5.676-0.239,10.096-0.239
		c7.945,0,13.681,2.808,13.681,10.515c0,6.869-5.257,10.872-12.306,11.35c1.193,1.434,2.449,2.987,3.523,4.302l11.409,14.396
		L505.605,184.649L505.605,184.649z M495.33,148.567c-1.374,0-2.568,0.06-3.646,0.12v13.739c0.599,0.06,1.793,0.119,3.405,0.119
		c5.795,0,9.141-2.927,9.141-7.228C504.23,150.479,501.185,148.567,495.33,148.567z"/>
	<path fill="#AA0022" d="M534.338,185.247c-12.604,0-15.114-6.989-15.114-14.158v-26.763h5.496v26.345
		c0,5.556,1.853,10.036,9.977,10.036c7.05,0,10.336-2.928,10.336-11.052v-25.329h5.376v24.911
		C550.407,179.81,544.852,185.247,534.338,185.247z"/>
	<path fill="#AA0022" d="M599.51,184.649l-3.403-23.298c-0.658-4.6-1.017-7.527-1.256-9.917h-0.119
		c-0.419,1.912-1.074,4.421-1.972,7.288l-8.662,25.927h-5.854l-8.186-24.194c-1.016-3.046-2.09-6.392-2.567-9.021h-0.061
		c-0.238,3.286-0.656,6.512-1.135,10.455l-2.748,22.76h-5.615l5.914-40.323h6.75l8.483,25.389c1.016,2.927,1.792,5.615,2.27,8.005
		h0.119c0.599-2.808,1.195-4.779,2.15-7.646l8.782-25.747h6.81l6.094,40.323L599.51,184.649L599.51,184.649z"/>
</g>
<g enable-background="new    ">
	<path fill="#FF7528" d="M515.51,335.736c-2.38,11.736-10.832,15.094-21.108,13.01c-11.144-2.26-18.407-9.477-15.907-21.811
		c0.57-2.813,1.584-5.592,2.76-8.057l4.434,1.463c-1.436,2.637-2.416,5.254-2.976,8.012c-1.688,8.33,3.971,13.193,11.975,14.816
		c8.98,1.82,14.908-1.031,16.631-9.523c0.536-2.648,0.46-6.156-0.186-8.539l4.547,0.357
		C516.253,328.453,516.256,332.056,515.51,335.736z"/>
	<path fill="#FF7528" d="M520.741,310.212c-1.48,7.303-6.665,11.207-16.131,9.287c-7.897-1.6-13.163-7.85-11.52-15.963
		c1.394-6.869,6.242-11.349,15.924-9.386C517.13,295.796,522.354,302.261,520.741,310.212z M497.061,304.792
		c-0.788,3.895,1.439,8.176,8.095,9.525c6.489,1.314,10.597-0.611,11.595-5.535c0.813-4.002-1.622-8.102-8.492-9.492
		C502.145,298.052,498.069,299.818,497.061,304.792z"/>
	<path fill="#FF7528" d="M527.195,275.873c-1.895-0.385-3.842-0.779-5.302-1.356l-0.021,0.108c3.037,1.967,4.889,5.891,3.989,10.326
		c-0.9,4.435-3.895,6.98-8.167,6.115c-5.896-1.195-8.411-7.957-6.351-18.126l-2.002-0.405c-3.73-0.757-6.027,0.299-6.928,4.733
		c-0.516,2.542-0.362,5.952,0.573,8.563l-4.266-0.356c-0.555-2.815-0.762-6.237-0.038-9.808c1.567-7.734,5.643-9.219,10.996-8.133
		l10.71,2.172c2.542,0.516,5.42,1.043,7.758,1.459L527.195,275.873z M514.754,273.63c-1.896,9.357,0.553,11.994,2.986,12.488
		c2.271,0.461,4.063-0.865,4.565-3.354c0.89-4.382-2.847-8.181-7.064-9.035L514.754,273.63z"/>
	<path fill="#FF7528" d="M532.291,252.687c-1.306,6.438-5.42,11.178-15.32,9.171c-8.653-1.755-13.865-7.429-12.046-16.407
		c0.429-2.109,1.181-4.154,2.104-5.938l4.164,1.406c-0.99,1.545-1.884,3.449-2.312,5.559c-1.096,5.408,2.369,8.87,8.481,10.109
		c5.246,1.063,9.764,0.178,10.97-5.773c0.461-2.271,0.402-4.761-0.167-6.678l4.296,0.477
		C532.805,246.541,532.927,249.548,532.291,252.687z"/>
	<path fill="#FF7528" d="M538.239,221.398l-17.364-3.521c-3.786-0.768-6.211-0.188-6.935,3.381
		c-0.899,4.436,2.941,8.537,8.893,9.744l12.928,2.621l-0.985,4.867l-39.486-8.005l0.986-4.868l12.712,2.576
		c1.729,0.352,3.926,0.909,5.256,1.573l0.076-0.099c-3.361-2.313-5.07-6.097-4.16-10.586c1.25-6.166,5.483-7.334,10.245-6.369
		l18.822,3.815L538.239,221.398z"/>
</g>
<g enable-background="new    ">
	<path fill="#AA0022" d="M93.731,373.316c-0.233,0.992-0.494,2.104-0.857,3.129l15.078,3.539l-1.262,5.375l-39.446-9.26
		c0.569-2.949,1.206-6.189,2.042-9.756c2.126-9.059,7.863-13.014,14.877-11.367C91.876,356.787,95.831,364.375,93.731,373.316z
		 M73.59,367.97c-0.343,1.461-0.618,2.629-0.818,3.754l15.544,3.648c0.409-0.951,0.728-2.049,0.988-3.158
		c1.313-5.857-0.964-10.34-5.932-11.506C78.463,359.556,75.043,361.777,73.59,367.97z"/>
	<path fill="#AA0022" d="M92.81,334.687c-2.492,5.891,1.322,9.867,10.613,12.049l11.688,2.742l-1.235,5.262l-29.045-6.818
		l1.193-5.084c1.813,0.426,4.459,1.232,6.745,2.262l0.027-0.117c-3.744-2.174-7.076-6.1-5.075-11.734L92.81,334.687z"/>
	<path fill="#AA0022" d="M121.535,324.472c-1.852,7.891-7.616,11.963-17.843,9.563c-8.533-2.002-14.05-8.969-11.992-17.734
		c1.742-7.424,7.164-12.131,17.625-9.676C118.09,308.681,123.552,315.882,121.535,324.472z M95.974,317.794
		c-0.988,4.207,1.293,8.938,8.48,10.623c7.014,1.646,11.543-0.313,12.792-5.631c1.015-4.324-1.498-8.859-8.919-10.602
		C101.723,310.636,97.235,312.417,95.974,317.794z"/>
	<path fill="#AA0022" d="M130.173,285.314c-1.637-0.385-4.181-1.105-5.793-1.854l-0.086,0.103c3.532,2.556,5.266,6.726,4.195,11.282
		c-1.673,7.129-7.711,9.475-16.184,7.484c-10.169-2.387-14.934-9.67-12.781-18.846c0.371-1.578,0.858-3.129,1.444-4.841
		l-13.499-3.169l1.235-5.26l42.661,10.014L130.173,285.314z M105.469,279.701c-0.879,1.643-1.465,3.355-1.85,4.991
		c-1.303,5.552,1.164,10.017,9.521,11.978c6.253,1.469,10.298,0.26,11.327-4.123c1.234-5.26-4.271-9.389-9.354-10.582
		L105.469,279.701z"/>
	<path fill="#AA0022" d="M138.06,251.712c-1.695-0.398-4.342-1.205-5.969-1.896l-0.086,0.104c3.635,2.641,5.486,6.836,4.32,11.805
		c-1.563,6.662-6.193,7.732-11.336,6.525l-20.337-4.773l1.221-5.201l18.76,4.404c4.09,0.959,6.76,0.354,7.652-3.445
		c1.125-4.792-2.902-9.438-9.331-10.945l-13.967-3.279l1.221-5.2l29.045,6.817L138.06,251.712z"/>
	<path fill="#AA0022" d="M144.379,226.623c-1.632,6.955-6.263,11.973-16.957,9.461c-9.351-2.193-14.83-8.535-12.552-18.237
		c0.535-2.279,1.42-4.476,2.485-6.384l4.48,1.668c-1.128,1.646-2.161,3.686-2.696,5.965c-1.372,5.845,2.281,9.723,8.885,11.271
		c5.668,1.332,10.607,0.518,12.116-5.91c0.576-2.455,0.595-5.164,0.041-7.267l4.654,0.66
		C145.142,219.957,145.175,223.233,144.379,226.623z"/>
	<path fill="#AA0022" d="M150.255,201.859c-1.399,5.961-4.28,7.195-10.533,5.729l-16.714-3.924l-1.399,5.961l-4.091-0.959
		l1.399-5.961l-9.408-2.209l-0.226-5.604l10.869,2.552l1.906-8.123l4.091,0.96l-1.906,8.123l14.844,3.484
		c4.792,1.125,6.284,0.551,7.052-2.723c0.315-1.345,0.424-2.859,0.406-4.099l4.441,1.043
		C150.953,197.83,150.693,199.988,150.255,201.859z"/>
	<path fill="#AA0022" d="M160.096,160.455c-2.785,11.864-12.019,15.739-23.999,12.927c-13.148-3.086-18.77-13.285-16.355-23.57
		c2.496-10.636,11.024-15.972,23.998-12.927C156.889,139.971,162.51,150.169,160.096,160.455z M124.337,151.506
		c-1.536,6.546,2.411,13.638,12.345,15.97c9.409,2.209,16.77-0.257,18.731-8.613c1.509-6.429-2.207-13.714-12.376-16.101
		C132.927,140.389,126.189,143.617,124.337,151.506z"/>
	<path fill="#AA0022" d="M172.926,103.166l-1.385,5.902l-18.481,1.766c-1.948,0.159-4,0.233-6.17,0.278l-0.014,0.059
		c2.435,1.188,4.549,2.425,6.826,3.76l14.465,8.513l-1.372,5.844l-31.144,2.124l1.358-5.786l16.529-0.806
		c2.867-0.129,5.675-0.271,8.091-0.321l0.014-0.059c-2.434-1.188-4.797-2.42-7.014-3.742l-14.438-8.63l1.317-5.61l16.608-1.404
		c3.897-0.318,5.891-0.405,8.235-0.41l0.014-0.059c-2.318-1.161-4.298-2.18-7.014-3.743l-14.565-8.351l1.303-5.552L172.926,103.166z
		"/>
	<path fill="#AA0022" d="M180.854,69.389l-18.759-4.403c-4.091-0.96-6.748-0.412-7.653,3.445c-1.125,4.792,2.916,9.378,9.344,10.887
		l13.968,3.278l-1.235,5.259l-29.045-6.817l1.193-5.084c1.695,0.398,4.355,1.146,5.969,1.894l0.085-0.103
		c-3.634-2.642-5.486-6.837-4.32-11.805c1.564-6.662,6.208-7.792,11.351-6.584l20.337,4.773L180.854,69.389z"/>
	<path fill="#AA0022" d="M174.693,28.914l-4.458,18.993c7.717,2.058,11.803-0.374,13.257-6.569c0.7-2.98,0.738-6.3,0.177-8.899
		l4.377,0.534c0.51,3.08,0.356,6.62-0.494,10.243c-2.099,8.941-7.898,12.636-18.125,10.236c-8.708-2.044-14.083-8.3-12.149-16.541
		c1.92-8.181,8.28-10.326,14.943-8.762C172.922,28.313,173.727,28.563,174.693,28.914z M161.08,38.05
		c-0.892,3.799,1.342,7.159,5.47,8.745l3.183-13.559C165.494,32.119,162.04,33.959,161.08,38.05z"/>
	<path fill="#AA0022" d="M170.308,4.517c-2.492,5.889,1.322,9.867,10.613,12.048l11.688,2.744l-1.234,5.26l-29.045-6.817
		l1.193-5.084c1.813,0.425,4.459,1.231,6.745,2.261l0.027-0.117c-3.744-2.174-7.076-6.1-5.075-11.734L170.308,4.517z"/>
</g>
<g enable-background="new    ">
	<path fill="#FF7528" d="M483.99,37.857c-2.599-0.636-5.064-1.578-7.003-2.614l1.409-4.6c1.886,1.248,4.552,2.52,7.043,3.13
		c4.294,1.052,8.273,0.173,9.353-4.227c1.975-8.058-14.92-8.827-12.127-20.224c1.441-5.885,7.146-8.982,15.203-7.008
		c2.174,0.533,4.296,1.277,6.313,2.222l-1.331,4.281c-1.924-1.09-4.112-2.02-6.231-2.539c-4.877-1.195-7.968,0.408-8.786,3.748
		c-1.896,7.74,14.961,8.893,12.22,20.078C498.479,36.519,492.313,39.897,483.99,37.857z"/>
	<path fill="#FF7528" d="M513.876,45.012c-1.644-0.402-2.902-0.768-4.375-1.409l-3.208,13.094l-4.771-1.169l9.664-39.441l4.612,1.13
		c-0.363,1.485-1.055,3.845-1.736,5.251l0.094,0.079c2.381-3.294,6.106-4.741,10.296-3.715c6.148,1.507,8.583,6.711,6.607,14.769
		C528.76,42.983,522.41,47.104,513.876,45.012z M522.322,22.468c-4.771-1.169-8.573,3.8-9.703,8.411l-2.131,8.694
		c1.273,0.762,2.707,1.338,4.508,1.779c5.037,1.234,9.118-0.969,10.976-8.55C527.361,27.131,526.299,23.442,522.322,22.468z"/>
	<path fill="#FF7528" d="M557.438,41.076l-17.229-4.222c-1.938,6.999,0.236,10.735,5.855,12.112c2.702,0.663,5.723,0.728,8.089,0.24
		l-0.523,3.974c-2.804,0.437-6.021,0.266-9.31-0.539c-8.109-1.987-11.417-7.293-9.146-16.571
		c1.937-7.898,7.672-12.731,15.146-10.899c7.422,1.818,9.314,7.621,7.835,13.665C558,39.471,557.766,40.201,557.438,41.076z
		 M549.253,28.617c-3.446-0.844-6.521,1.156-8,4.896l12.299,3.014C554.605,32.683,552.963,29.526,549.253,28.617z"/>
	<path fill="#FF7528" d="M575.292,59.724c0.455-1.855,0.923-3.764,1.551-5.183l-0.105-0.026c-2.064,2.922-6.015,4.596-10.361,3.53
		s-6.744-4.125-5.718-8.313c1.415-5.778,8.195-7.994,18.162-5.552l0.479-1.961c0.896-3.658-0.055-5.97-4.401-7.036
		c-2.491-0.61-5.865-0.594-8.482,0.226l0.521-4.199c2.805-0.437,6.193-0.505,9.692,0.353c7.58,1.857,8.883,5.941,7.597,11.189
		l-2.571,10.496c-0.61,2.492-1.245,5.314-1.751,7.607L575.292,59.724z M578.001,47.519c-9.171-2.247-11.874,0.068-12.458,2.454
		c-0.546,2.227,0.693,4.048,3.133,4.646c4.293,1.052,8.195-2.488,9.209-6.623L578.001,47.519z"/>
	<path fill="#FF7528" d="M603.391,66.609l-6.43-15.962l-3.325,13.571l-4.771-1.169l9.481-38.698l4.771,1.169l-5.858,23.908
		l12.109-9.283l5.778,1.416l-13.073,9.553l7.412,16.989L603.391,66.609z"/>
	<path fill="#FF7528" d="M637.173,60.613l-17.229-4.222c-1.939,6.999,0.235,10.735,5.854,12.112c2.703,0.662,5.722,0.728,8.089,0.24
		l-0.523,3.974c-2.805,0.437-6.021,0.266-9.31-0.539c-8.108-1.987-11.418-7.293-9.146-16.571c1.936-7.899,7.672-12.731,15.146-10.9
		c7.422,1.819,9.314,7.621,7.834,13.665C637.733,59.008,637.5,59.738,637.173,60.613z M628.986,48.155
		c-3.445-0.845-6.521,1.156-7.999,4.896l12.299,3.014C634.34,52.22,632.697,49.064,628.986,48.155z"/>
	<path fill="#FF7528" d="M659.396,56.842c-5.332-2.318-8.983,1.114-11.049,9.544l-2.599,10.602l-4.771-1.169l6.455-26.347
		l4.611,1.13c-0.402,1.644-1.158,4.043-2.116,6.112l0.107,0.026c2.009-3.385,5.607-6.381,10.714-4.512L659.396,56.842z"/>
</g>
<g enable-background="new    ">
	<path fill="#5A5A5A" d="M6.398,369.89h40.806v6.277H6.398v13.238H1.144v-32.822h5.255L6.398,369.89L6.398,369.89z"/>
	<path fill="#5A5A5A" d="M18.681,338.093c-1.229,7.164,4.026,10.576,14.876,10.576h13.647v6.143H13.29v-5.938
		c2.115,0,5.254,0.205,8.052,0.75v-0.135c-4.708-1.436-9.416-4.914-8.666-11.67L18.681,338.093z"/>
	<path fill="#5A5A5A" d="M47.204,313.871c-2.389,0-4.845,0-6.756-0.34v0.135c4.163,1.639,7.37,5.938,7.37,11.533
		s-3.003,9.416-8.394,9.416c-7.438,0-12.146-7.574-12.146-20.402h-2.524c-4.708,0-7.233,1.842-7.233,7.439
		c0,3.207,1.023,7.301,2.798,10.234l-5.254,0.613c-1.365-3.275-2.457-7.369-2.457-11.873c0-9.758,4.572-12.555,11.328-12.555h13.511
		c3.207,0,6.823-0.068,9.758-0.139L47.204,313.871L47.204,313.871z M31.578,314.212c0,11.805,3.616,14.398,6.687,14.398
		c2.866,0,4.709-2.049,4.709-5.189c0-5.525-5.459-9.211-10.781-9.211h-0.615V314.212z"/>
	<path fill="#5A5A5A" d="M7.694,293.335c0,2.25-1.773,4.094-4.025,4.094c-2.184,0-3.958-1.844-3.958-4.094
		c0-2.252,1.706-4.097,3.958-4.097C5.853,289.24,7.694,291.083,7.694,293.335z M47.204,296.406H13.29v-6.142h33.914V296.406z"/>
	<path fill="#5A5A5A" d="M47.204,257.103H25.3c-4.776,0-7.574,1.297-7.574,5.8c0,5.595,5.664,9.622,13.17,9.622h16.309v6.141H13.29
		v-5.937c1.979,0,5.118,0.136,7.097,0.546l0.068-0.137c-4.708-1.979-7.848-6.141-7.848-11.941c0-7.779,4.845-10.234,10.851-10.234
		h23.746V257.103z"/>
	<path fill="#5A5A5A" d="M29.872,213.912v22.178c9.075,0.273,12.965-3.479,12.965-10.713c0-3.479-0.818-7.166-2.115-9.895
		l4.981-0.547c1.364,3.275,2.115,7.234,2.115,11.465c0,10.439-5.459,16.035-17.4,16.035c-10.168,0-17.742-5.527-17.742-15.148
		c0-9.553,6.482-13.58,14.262-13.58C27.757,213.707,28.712,213.775,29.872,213.912z M17.18,227.56c0,4.436,3.344,7.574,8.325,8.256
		v-15.83C20.523,219.849,17.18,222.783,17.18,227.56z"/>
	<path fill="#5A5A5A" d="M18.681,188.054c-1.229,7.164,4.026,10.576,14.876,10.576h13.647v6.142H13.29v-5.937
		c2.115,0,5.254,0.205,8.052,0.75v-0.137c-4.708-1.433-9.416-4.913-8.666-11.667L18.681,188.054z"/>
</g>
<g enable-background="new    ">
	<path fill="#AA0022" d="M137.648,351.167c-1.04,0.32-1.968,0.49-2.776,0.543l-0.886-2.867c0.712,0.018,1.699-0.094,2.595-0.369
		c1.899-0.588,2.731-1.707,1.734-4.934l-5.456-17.666l3.297-1.018l5.522,17.881C142.919,346.751,142.056,349.806,137.648,351.167z"
		/>
	<path fill="#AA0022" d="M159.505,344.535c-7.562,2.336-10.361-1.393-11.689-5.693l-4.958-16.055l3.297-1.018l4.881,15.805
		c1.029,3.332,2.971,5.676,7.844,4.172c4.229-1.307,5.657-3.672,4.152-8.545l-4.692-15.195l3.225-0.996l4.615,14.943
		C168.138,338.296,165.813,342.587,159.505,344.535z"/>
	<path fill="#AA0022" d="M186.486,335.808l-3.553-11.502c-0.775-2.51-1.91-3.768-4.275-3.037c-2.938,0.906-4.134,4.535-2.917,8.479
		l2.646,8.563l-3.225,0.996l-5.501-17.811l3.117-0.963c0.321,1.039,0.759,2.709,0.864,3.814l0.083,0.016
		c0.275-2.795,1.953-5.117,4.999-6.061c4.085-1.262,6.161,0.885,7.135,4.039l3.852,12.471L186.486,335.808z"/>
	<path fill="#AA0022" d="M190.972,311.697c-1.183,0.363-2.438-0.27-2.804-1.451c-0.354-1.146,0.326-2.377,1.509-2.742
		c1.182-0.365,2.426,0.23,2.791,1.414C192.822,310.064,192.153,311.332,190.972,311.697z M195.767,332.943l-5.501-17.811
		l3.226-0.996l5.501,17.811L195.767,332.943z"/>
	<path fill="#AA0022" d="M210.655,328.66c-3.655,1.129-5.231-0.033-6.415-3.867l-3.166-10.25l-3.655,1.129l-0.774-2.508l3.655-1.129
		l-1.782-5.771l2.949-1.891l2.059,6.664l4.98-1.537l0.775,2.508l-4.981,1.539l2.812,9.104c0.907,2.938,1.688,3.561,3.695,2.939
		c0.824-0.254,1.676-0.676,2.337-1.076l0.841,2.725C213.049,327.763,211.802,328.304,210.655,328.66z"/>
</g>
<g enable-background="new    ">
	<path fill="#5A5A5A" d="M210.533,90.949c-2.037,1.369-4.201,2.46-6.102,3.133l-2.25-3.798c2.012-0.507,4.524-1.531,6.478-2.844
		c3.368-2.263,5.231-5.507,2.913-8.958c-4.247-6.32-15.211,4.667-21.217-4.271c-3.102-4.615-1.678-10.401,4.643-14.647
		c1.705-1.146,3.521-2.125,5.408-2.91l2.083,3.55c-1.929,0.632-3.912,1.543-5.575,2.661c-3.825,2.57-4.648,5.657-2.888,8.277
		c4.079,6.07,15.28-4.655,21.176,4.119C218.581,80.292,217.062,86.563,210.533,90.949z"/>
	<path fill="#5A5A5A" d="M247.91,65.291l-4.2,2.822l-12.302-9.417c-1.282-1.01-2.578-2.13-3.93-3.334l-0.042,0.028
		c0.813,2.109,1.403,4.066,2.037,6.175l4.008,13.42l-4.158,2.794l-20.248-16.391l4.116-2.766l10.564,8.895
		c1.826,1.55,3.624,3.058,5.129,4.4l0.042-0.028c-0.813-2.109-1.558-4.205-2.163-6.272l-3.926-13.477l3.992-2.682l10.952,8.575
		c2.564,2.019,3.833,3.098,5.269,4.427l0.042-0.028c-0.758-2.025-1.389-3.774-2.163-6.272l-4.161-13.379l3.95-2.654L247.91,65.291z"
		/>
	<path fill="#5A5A5A" d="M244.495,32.642c-1.372,0.922-3.221,0.595-4.143-0.777c-0.894-1.331-0.498-3.167,0.874-4.088
		c1.373-0.922,3.194-0.636,4.116,0.736C246.236,29.842,245.868,31.719,244.495,32.642z M258.801,57.973l-13.886-20.665l3.742-2.515
		l13.886,20.665L258.801,57.973z"/>
	<path fill="#5A5A5A" d="M263.411,15.525c-1.18,0.311-2.345,0.912-3.343,1.583c-2.952,1.984-3.124,4.513-0.665,8.172l1.062,1.58
		l5.738-3.856l1.956,2.911l-5.738,3.856l11.93,17.754l-3.742,2.514l-11.93-17.754l-4.241,2.85l-1.956-2.911l4.241-2.85l-1.034-1.539
		c-3.827-5.695-2.857-10.269,2.299-13.734c1.165-0.782,2.37-1.413,3.661-1.918L263.411,15.525z"/>
	<path fill="#5A5A5A" d="M289.874,37.577c-4.241,2.85-6.703,1.97-9.693-2.479l-7.991-11.892l-4.241,2.85l-1.956-2.911l4.241-2.85
		l-4.498-6.694l3.043-3.554l5.196,7.733l5.78-3.883l1.956,2.911l-5.78,3.883l7.097,10.562c2.291,3.409,3.529,3.905,5.858,2.341
		c0.957-0.643,1.884-1.508,2.576-2.274l2.123,3.159C292.59,35.511,291.205,36.683,289.874,37.577z"/>
</g>
<g enable-background="new    ">
	<path fill="#9C6043" d="M21.805,168.98L7.108,149.534H6.852v19.446H0.947v-43.32c2.952-0.192,6.097-0.257,10.846-0.257
		c8.536,0,14.697,3.017,14.697,11.295c0,7.381-5.647,11.681-13.221,12.194c1.284,1.54,2.631,3.209,3.787,4.621l12.258,15.467H21.805
		z M10.767,130.216c-1.476,0-2.76,0.064-3.915,0.128v14.762c0.642,0.063,1.926,0.128,3.658,0.128c6.226,0,9.819-3.145,9.819-7.766
		C20.329,132.27,17.056,130.216,10.767,130.216z"/>
	<path fill="#9C6043" d="M37.146,168.98v-43.32h22.27v4.877H43.051v13.734h15.596v4.749H43.051v15.019h16.366v4.941H37.146z"/>
	<path fill="#9C6043" d="M76.619,169.557c-3.145,0-6.225-0.385-8.728-1.026l0.321-5.647c2.503,0.898,5.904,1.604,8.921,1.604
		c5.198,0,9.498-2.118,9.498-7.445c0-9.755-19.51-5.904-19.51-19.702c0-7.124,5.648-12.259,15.403-12.259
		c2.631,0,5.263,0.257,7.83,0.771l-0.321,5.263c-2.503-0.706-5.262-1.155-7.83-1.155c-5.904,0-8.985,2.695-8.985,6.738
		c0,9.37,19.574,5.969,19.574,19.511C92.792,163.974,86.695,169.557,76.619,169.557z"/>
	<path fill="#9C6043" d="M113.46,130.601v38.379h-5.904v-38.379H95.105v-4.941h30.87v4.941H113.46z"/>
</g>
<g enable-background="new    ">
	<path fill="#FF7528" d="M422.25,346.943c-6.826,0-11.146-2.721-11.146-7.785c0-3.146,2.026-5.654,4.373-6.881
		c-1.6-0.746-2.613-2.133-2.613-3.893c0-1.867,1.121-3.574,2.986-4.428c-2.613-1.492-3.893-4.213-3.893-7.572
		c0-5.6,4.213-10.238,11.625-10.238c1.547,0,2.773,0.158,4.16,0.479h9.013v3.787h-4.479c1.387,1.066,2.239,2.934,2.239,5.174
		c0,5.705-3.946,9.865-11.52,9.865c-1.12,0-2.453-0.16-3.359-0.32c-1.174,0.48-1.707,1.334-1.707,2.188
		c0,1.492,1.334,2.08,4.533,2.08h4.906c5.76,0,8.959,2.771,8.959,7.572C436.328,342.57,430.568,346.943,422.25,346.943z
		 M426.035,333.398h-6.771c-2.08,1.064-3.414,2.824-3.414,4.852c0,3.146,2.986,4.854,7.146,4.854c5.438,0,8.586-2.293,8.586-5.545
		C431.582,334.998,429.77,333.398,426.035,333.398z M423.369,309.718c-4.213,0-6.719,2.613-6.719,6.188
		c0,3.945,2.398,6.08,6.559,6.08c4,0,6.561-2.188,6.561-6.08C429.77,312.011,427.422,309.718,423.369,309.718z"/>
	<path fill="#FF7528" d="M445.504,302.251c-1.76,0-3.199-1.387-3.199-3.145c0-1.707,1.439-3.094,3.199-3.094s3.2,1.333,3.2,3.094
		C448.704,300.812,447.264,302.251,445.504,302.251z M443.104,333.13v-26.506h4.801v26.506H443.104z"/>
	<path fill="#FF7528" d="M465.131,333.556c-5.438,0-7.094-2.238-7.094-7.945v-15.252h-5.439v-3.732h5.439v-8.586l4.801-1.334v9.92
		h7.412v3.732h-7.412v13.547c0,4.373,0.799,5.545,3.785,5.545c1.227,0,2.561-0.213,3.627-0.48v4.055
		C468.757,333.343,466.837,333.556,465.131,333.556z"/>
</g>
<g enable-background="new    ">
	<path fill="#FF7528" d="M29.166,70.429c-2.714,0.607-5.414-1.036-6.021-3.751c-0.589-2.633,1.154-5.268,3.869-5.875
		c2.715-0.607,5.396,0.953,6.004,3.667C33.606,67.104,31.882,69.822,29.166,70.429z M36.115,118.893l-9.142-40.89l7.404-1.656
		l9.142,40.89L36.115,118.893z"/>
	<path fill="#FF7528" d="M78.917,110.186c-16.701,3.734-27.247-5.569-31.019-22.435C43.76,69.24,53.215,55.895,67.695,52.657
		c14.974-3.348,26.936,4.172,31.019,22.437C102.854,93.605,93.397,106.949,78.917,110.186z M68.363,59.506
		c-9.215,2.06-15.769,11.386-12.642,25.373c2.962,13.246,10.58,21.045,22.345,18.415c9.051-2.024,15.988-11.176,12.787-25.493
		C87.671,63.568,79.47,57.022,68.363,59.506z"/>
	<path fill="#FF7528" d="M125.055,99.784c-4.032,0.901-8.092,1.292-11.484,1.187l-1.207-7.333c3.466,0.434,8.028,0.364,11.896-0.5
		c6.664-1.49,11.569-5.438,10.043-12.267c-2.796-12.506-26.704-1.977-30.659-19.666c-2.041-9.132,3.727-17.333,16.232-20.129
		c3.373-0.754,6.82-1.179,10.258-1.257l1.098,6.838c-3.411-0.188-7.078,0.027-10.368,0.763c-7.569,1.692-10.746,6.031-9.587,11.215
		c2.686,12.012,26.804,2.04,30.686,19.4C144.187,87.99,137.971,96.896,125.055,99.784z"/>
</g>
<g enable-background="new    ">
	<path fill="#5A5A5A" d="M13.019,55.215c-1.533,0.307-4.078,0.738-6.616,1.206L1.218,30.548c1.87-0.415,4.5-1.021,7.605-1.643
		c5.672-1.137,8.862,0.656,9.638,4.527c0.546,2.722-0.811,5.505-3.432,6.948l0.016,0.076c3.726-0.109,5.865,2.214,6.403,4.897
		C22.07,48.458,21.106,53.594,13.019,55.215z M8.778,31.864c-1.189,0.238-2.446,0.53-3.474,0.775l1.675,8.356
		c0.735-0.107,1.426-0.246,2.346-0.431c4.255-0.853,6.179-2.991,5.61-5.828C14.475,32.436,12.956,31.027,8.778,31.864z
		 M9.932,43.195c-0.46,0.092-1.801,0.361-2.407,0.522l1.813,9.047c0.675-0.016,1.802-0.162,3.334-0.469
		c4.217-0.845,5.688-3.253,5.119-6.089C17.123,42.871,13.919,42.396,9.932,43.195z"/>
	<path fill="#5A5A5A" d="M25.531,29.503c-1.265,0.253-2.5-0.535-2.753-1.8c-0.246-1.227,0.589-2.431,1.854-2.685
		c1.266-0.253,2.492,0.497,2.746,1.763C27.623,28.008,26.796,29.25,25.531,29.503z M28.254,52.042l-3.818-19.051l3.45-0.691
		l3.818,19.051L28.254,52.042z"/>
	<path fill="#5A5A5A" d="M44.147,49.176c-3.91,0.784-5.421-0.587-6.243-4.688l-2.197-10.963l-3.91,0.783l-0.537-2.685l3.91-0.783
		l-1.237-6.171l3.258-1.648l1.429,7.128l5.328-1.068l0.538,2.685l-5.328,1.068l1.951,9.736c0.63,3.143,1.373,3.87,3.521,3.44
		c0.881-0.177,1.81-0.522,2.537-0.867l0.584,2.913C46.723,48.5,45.374,48.93,44.147,49.176z"/>
	<path fill="#5A5A5A" d="M59.051,46.149c-2.645,0.53-4.569,0.677-6.708,0.548l-5.508-27.484l3.45-0.691l1.852,9.238
		c0.223,1.112,0.407,2.629,0.369,3.635l0.085,0.022c0.496-2.892,2.558-4.939,5.433-5.516c4.484-0.898,7.645,1.738,8.813,7.565
		C68.172,40.135,65.184,44.92,59.051,46.149z M57.786,28.9c-3.449,0.691-4.405,5.07-3.745,8.366l1.268,6.325
		c1.059,0.107,2.124,0.052,3.465-0.217c3.642-0.73,5.619-3.398,4.521-8.879C62.472,30.393,60.661,28.324,57.786,28.9z"/>
	<path fill="#5A5A5A" d="M86.022,40.465c-0.223-1.111-0.461-2.897-0.491-4.047l-0.085-0.024c-0.582,2.868-2.566,5.1-5.824,5.753
		c-4.37,0.875-6.257-1.577-6.934-4.95l-2.673-13.34l3.412-0.684l2.466,12.305c0.537,2.684,1.619,4.101,4.11,3.602
		c3.143-0.63,4.806-4.272,3.961-8.488l-1.836-9.162l3.411-0.684l3.818,19.051L86.022,40.465z"/>
	<path fill="#5A5A5A" d="M102.6,37.422c-4.561,0.914-8.785-0.472-10.191-7.486c-1.229-6.134,1.046-11.095,7.409-12.37
		c1.495-0.3,3.035-0.37,4.454-0.255l0.224,3.105c-1.28-0.222-2.768-0.282-4.263,0.018c-3.833,0.768-5.144,3.98-4.275,8.312
		c0.745,3.718,2.563,6.424,6.78,5.579c1.609-0.323,3.219-1.043,4.315-1.941l0.867,2.936C106.755,36.071,104.823,36.976,102.6,37.422
		z"/>
	<path fill="#5A5A5A" d="M123.055,33.043l-9.02-8.399l1.967,9.813l-3.449,0.691l-5.608-27.981l3.45-0.691l3.464,17.287l5.034-9.701
		l4.178-0.837l-5.577,10.169l9.971,8.766L123.055,33.043z"/>
	<path fill="#5A5A5A" d="M143.146,18.89l-12.457,2.497c0.868,5.128,3.414,6.891,7.478,6.076c1.954-0.392,3.933-1.265,5.319-2.301
		l0.868,2.736c-1.687,1.136-3.826,2.002-6.202,2.478c-5.864,1.175-9.622-1.26-10.966-7.968c-1.145-5.711,1.106-10.589,6.511-11.672
		c5.367-1.076,8.358,2.113,9.234,6.483C143.023,17.679,143.093,18.224,143.146,18.89z M134.052,13.297
		c-2.492,0.499-3.879,2.731-3.701,5.606l8.893-1.782C138.759,14.308,136.735,12.759,134.052,13.297z"/>
	<path fill="#5A5A5A" d="M156.162,26.727c-3.909,0.784-5.42-0.588-6.242-4.688l-2.197-10.963l-3.91,0.784l-0.537-2.685l3.91-0.784
		l-1.237-6.171l3.258-1.647l1.429,7.128l5.328-1.068l0.537,2.685l-5.328,1.068l1.951,9.736c0.63,3.143,1.374,3.87,3.521,3.44
		c0.882-0.177,1.81-0.522,2.538-0.867l0.583,2.913C158.738,26.051,157.389,26.481,156.162,26.727z"/>
</g>
<g enable-background="new    ">
	<path fill="#5A5A5A" d="M538.347,312.021c-1.148,0.168-2.156,0.193-3.019,0.115l-0.462-3.168c0.748,0.133,1.808,0.182,2.798,0.037
		c2.1-0.307,3.161-1.352,2.642-4.918l-2.847-19.532l3.646-0.531l2.881,19.771C544.632,308.232,543.22,311.31,538.347,312.021z"/>
	<path fill="#5A5A5A" d="M565.052,297.569l-12.877,1.878c0.609,5.291,3.117,7.23,7.317,6.621c2.021-0.295,4.091-1.082,5.564-2.066
		l0.739,2.846c-1.787,1.07-4.021,1.842-6.478,2.199c-6.063,0.883-9.772-1.813-10.783-8.746c-0.86-5.903,1.708-10.77,7.295-11.584
		c5.547-0.809,8.433,2.615,9.091,7.132C564.991,296.324,565.032,296.884,565.052,297.569z M556.053,291.354
		c-2.575,0.375-4.115,2.582-4.089,5.532l9.191-1.34C560.813,292.642,558.826,290.951,556.053,291.354z"/>
	<path fill="#5A5A5A" d="M584.35,305.035l-1.854-12.72c-0.404-2.772-1.395-4.288-4.008-3.905c-3.249,0.473-5.107,4.103-4.474,8.459
		l1.38,9.471l-3.564,0.521l-2.87-19.691l3.447-0.504c0.167,1.148,0.354,2.983,0.283,4.168l0.085,0.026
		c0.751-2.901,2.901-5.075,6.27-5.565c4.519-0.658,6.354,1.947,6.861,5.434l2.01,13.787L584.35,305.035z"/>
	<path fill="#5A5A5A" d="M605.471,301.957l-8.768-9.08l1.478,10.143l-3.564,0.52l-4.215-28.922l3.564-0.521l2.604,17.868
		l5.675-9.647l4.317-0.629l-6.257,10.099l9.722,9.506L605.471,301.957z"/>
	<path fill="#5A5A5A" d="M612.59,277.492c-1.307,0.189-2.526-0.685-2.718-1.992c-0.185-1.268,0.735-2.453,2.043-2.645
		c1.307-0.189,2.521,0.645,2.712,1.951C614.813,276.076,613.896,277.3,612.59,277.492z M614.15,300.691L611.28,281l3.565-0.52
		l2.869,19.691L614.15,300.691z"/>
	<path fill="#5A5A5A" d="M636.974,297.365l-1.854-12.719c-0.404-2.773-1.395-4.287-4.009-3.906
		c-3.249,0.475-5.107,4.102-4.474,8.461l1.38,9.469l-3.564,0.521l-2.87-19.691l3.447-0.502c0.168,1.147,0.354,2.982,0.284,4.166
		l0.085,0.028c0.75-2.901,2.9-5.075,6.27-5.567c4.518-0.658,6.354,1.947,6.86,5.435l2.01,13.788L636.974,297.365z"/>
	<path fill="#5A5A5A" d="M650.381,295.775c-1.467,0.214-2.949,0.309-4.212,0.25l-0.344-3.188c1.286,0.218,2.911,0.264,4.417,0.045
		c2.615-0.381,4.225-1.83,3.959-3.652c-0.642-4.398-9.4-0.369-10.41-7.303c-0.485-3.328,1.873-6.303,7.023-7.053
		c1.188-0.174,2.599-0.217,3.821-0.153l0.354,2.983c-1.286-0.218-2.747-0.248-4.055-0.058c-2.614,0.381-3.762,1.683-3.514,3.386
		c0.63,4.317,9.481,0.641,10.445,7.258C658.388,291.857,655.611,295.013,650.381,295.775z"/>
</g>
<g enable-background="new    ">
	<path fill="#FF7528" d="M55.896,282.941c-1.439,2.415-2.461,5.174-2.886,8.023c-0.951,6.385,2.368,12.467,10.639,13.701
		c7.718,1.148,12.799-2.695,13.839-9.68c0.309-2.066,0.246-3.859-0.012-5.59L65.76,287.65l0.623-4.181l14.427,2.149
		c0.689,3.25,0.771,7.112,0.264,10.512c-1.396,9.371-7.989,14.541-17.591,13.111c-9.511-1.418-15.595-8.807-14.04-19.234
		c0.438-2.939,1.314-5.674,2.6-8.301L55.896,282.941z"/>
	<path fill="#FF7528" d="M65.799,264.083c-1.547,4.701,1.648,7.524,8.954,8.612l9.188,1.369l-0.616,4.136l-22.833-3.402l0.596-3.996
		c1.425,0.212,3.518,0.664,5.346,1.313l0.014-0.092c-3.026-1.438-5.847-4.252-4.664-8.727L65.799,264.083z"/>
	<path fill="#FF7528" d="M87.432,250.636c-1.608-0.239-3.262-0.486-4.515-0.907l-0.014,0.092c2.64,1.521,4.366,4.737,3.806,8.505
		c-0.562,3.766-2.967,6.037-6.596,5.496c-5.007-0.746-7.418-6.316-6.131-14.953l-1.699-0.254c-3.171-0.473-5.055,0.514-5.616,4.281
		c-0.321,2.158-0.043,5.02,0.856,7.172l-3.6-0.113c-0.589-2.343-0.913-5.209-0.462-8.24c0.979-6.569,4.337-7.994,8.886-7.316
		l9.097,1.355c2.159,0.322,4.601,0.639,6.583,0.888L87.432,250.636z M76.877,249.298c-1.184,7.949,0.99,10.057,3.058,10.365
		c1.93,0.287,3.376-0.906,3.69-3.021c0.555-3.722-2.751-6.75-6.335-7.283L76.877,249.298z"/>
	<path fill="#FF7528" d="M91.238,225.095c-1.286-0.191-3.294-0.586-4.586-1.061l-0.059,0.086c2.886,1.746,4.489,4.85,3.955,8.433
		c-0.835,5.604-5.342,7.798-12.002,6.806c-7.994-1.191-12.135-6.505-11.06-13.717c0.185-1.241,0.463-2.469,0.806-3.826
		l-10.613-1.581l0.616-4.135l33.538,4.998L91.238,225.095z M71.831,222.343c-0.573,1.322-0.917,2.682-1.109,3.967
		c-0.65,4.365,1.538,7.65,8.108,8.629c4.914,0.732,7.957-0.457,8.471-3.902c0.616-4.136-3.894-6.968-7.891-7.563L71.831,222.343z"/>
	<path fill="#FF7528" d="M92.998,213.291l-33.538-4.998l0.616-4.135l33.538,4.997L92.998,213.291z"/>
	<path fill="#FF7528" d="M85.669,182.425l-2.225,14.93c6.083,1.096,9.077-1.042,9.804-5.912c0.349-2.343,0.167-4.906-0.432-6.873
		l3.408,0.131c0.591,2.342,0.698,5.083,0.273,7.931c-1.047,7.03-5.283,10.249-13.322,9.05c-6.846-1.021-11.392-5.502-10.427-11.979
		c0.959-6.432,5.728-8.492,10.965-7.711C84.266,182.075,84.901,182.216,85.669,182.425z M75.754,190.339
		c-0.445,2.986,1.492,5.436,4.777,6.395l1.588-10.659C78.779,185.483,76.233,187.124,75.754,190.339z"/>
</g>
<g enable-background="new    ">
	<path fill="#5A5A5A" d="M304.022,25.697l-6.165-10l-6.129,10h-3.835l7.957-12.474l-7.455-11.721h3.799l5.735,9.248l5.627-9.248
		h3.728l-7.348,11.613l8.208,12.581h-4.122V25.697z"/>
	<path fill="#5A5A5A" d="M317.928,25.948c-4.265,0-7.813-2.007-7.813-8.566c0-5.735,2.939-9.785,8.889-9.785
		c1.398,0,2.796,0.215,4.05,0.573l-0.358,2.832c-1.111-0.431-2.437-0.753-3.835-0.753c-3.584,0-5.341,2.652-5.341,6.702
		c0,3.478,1.147,6.237,5.09,6.237c1.505,0,3.083-0.358,4.229-0.968l0.251,2.796C321.907,25.482,320.007,25.948,317.928,25.948z"/>
	<path fill="#5A5A5A" d="M333.125,26.019c-4.838,0-7.993-2.796-7.993-9.068c0-5.232,3.297-9.391,8.675-9.391
		c4.551,0,8.027,2.509,8.027,8.925C341.835,21.862,338.395,26.019,333.125,26.019z M333.52,10.249c-2.58,0-5.018,1.972-5.018,6.38
		c0,4.301,1.756,6.667,5.018,6.667c2.652,0,4.946-2.079,4.946-6.631C338.466,12.614,336.816,10.249,333.52,10.249z"/>
	<path fill="#5A5A5A" d="M357.066,25.697c0-1.004,0.072-2.581,0.287-3.62l-0.07-0.036c-1.004,2.401-3.19,3.979-5.986,3.979
		c-4.373,0-6.559-3.189-6.559-8.387c0-6.237,3.584-10,9.211-10c0.968,0,1.936,0.071,3.011,0.179v-8.279h3.226v26.165L357.066,25.697
		L357.066,25.697z M356.96,10.571c-1.075-0.286-2.149-0.394-3.153-0.394c-3.406,0-5.664,2.043-5.664,7.168
		c0,3.835,1.254,6.021,3.943,6.021c3.227,0,4.874-3.764,4.874-6.882V10.571z"/>
	<path fill="#5A5A5A" d="M379.684,16.592h-11.648c-0.145,4.768,1.828,6.811,5.628,6.811c1.828,0,3.764-0.43,5.196-1.111l0.287,2.617
		c-1.721,0.717-3.801,1.11-6.021,1.11c-5.482,0-8.423-2.867-8.423-9.14c0-5.341,2.903-9.319,7.957-9.319
		c5.018,0,7.133,3.405,7.133,7.491C379.791,15.482,379.755,15.983,379.684,16.592z M372.516,9.926c-2.33,0-3.979,1.756-4.338,4.372
		h8.315C376.564,11.682,375.023,9.926,372.516,9.926z"/>
</g>
<g enable-background="new    ">
	<path fill="#AA0022" d="M528.48,204.897l-5.473-7.239h-0.096v7.239h-2.198v-16.129c1.101-0.072,2.271-0.096,4.038-0.096
		c3.179,0,5.472,1.123,5.472,4.205c0,2.748-2.103,4.35-4.922,4.541c0.479,0.574,0.979,1.194,1.41,1.721l4.563,5.759H528.48z
		 M524.371,190.464c-0.55,0-1.027,0.023-1.458,0.048v5.495c0.239,0.023,0.717,0.049,1.362,0.049c2.316,0,3.655-1.172,3.655-2.892
		C527.932,191.229,526.713,190.464,524.371,190.464z"/>
	<path fill="#AA0022" d="M542.315,198.828h-7.767c-0.096,3.178,1.218,4.541,3.751,4.541c1.219,0,2.51-0.287,3.465-0.742l0.191,1.746
		c-1.146,0.478-2.533,0.739-4.014,0.739c-3.656,0-5.616-1.911-5.616-6.093c0-3.561,1.936-6.213,5.306-6.213
		c3.345,0,4.754,2.27,4.754,4.994C542.387,198.085,542.363,198.421,542.315,198.828z M537.537,194.383
		c-1.554,0-2.652,1.171-2.894,2.916h5.546C540.236,195.554,539.209,194.383,537.537,194.383z"/>
	<path fill="#AA0022" d="M551.85,204.897c0-0.836,0-1.696,0.119-2.364h-0.048c-0.573,1.457-2.079,2.579-4.038,2.579
		s-3.298-1.051-3.298-2.938c0-2.604,2.652-4.254,7.146-4.254v-0.883c0-1.649-0.646-2.534-2.604-2.534
		c-1.123,0-2.557,0.358-3.584,0.979l-0.215-1.84c1.146-0.478,2.58-0.86,4.157-0.86c3.417,0,4.396,1.602,4.396,3.967v4.73
		c0,1.123,0.023,2.391,0.047,3.417H551.85z M551.729,199.425c-4.134,0-5.041,1.267-5.041,2.342c0,1.003,0.717,1.648,1.815,1.648
		c1.937,0,3.226-1.912,3.226-3.775V199.425z"/>
	<path fill="#AA0022" d="M562.123,205.064c-2.844,0-5.209-1.338-5.209-5.711c0-3.823,1.959-6.523,5.926-6.523
		c0.934,0,1.864,0.144,2.701,0.383l-0.239,1.888c-0.741-0.287-1.625-0.502-2.558-0.502c-2.389,0-3.561,1.77-3.561,4.469
		c0,2.316,0.766,4.157,3.395,4.157c1.003,0,2.055-0.239,2.818-0.646l0.168,1.863C564.775,204.753,563.51,205.064,562.123,205.064z"
		/>
	<path fill="#AA0022" d="M572.254,205.087c-2.437,0-3.178-1.004-3.178-3.561v-6.834h-2.438v-1.673h2.438v-3.847l2.15-0.598v4.444
		h3.321v1.673h-3.321v6.069c0,1.959,0.358,2.484,1.696,2.484c0.549,0,1.146-0.096,1.625-0.216v1.816
		C573.879,204.994,573.02,205.087,572.254,205.087z"/>
	<path fill="#AA0022" d="M592.994,204.897l-6.141-9.987c-0.74-1.172-1.314-2.271-1.841-3.347c0.097,1.721,0.167,5.592,0.167,8.147
		v5.187h-2.149v-16.129h2.892l5.997,9.677c0.718,1.172,1.386,2.391,1.983,3.537c-0.097-1.982-0.167-5.949-0.167-8.626v-4.588h2.126
		v16.129H592.994z"/>
	<path fill="#AA0022" d="M606.255,204.897c0-0.836,0-1.696,0.12-2.364h-0.049c-0.573,1.457-2.078,2.579-4.038,2.579
		c-1.959,0-3.298-1.051-3.298-2.938c0-2.604,2.651-4.254,7.145-4.254v-0.883c0-1.649-0.645-2.534-2.604-2.534
		c-1.123,0-2.558,0.358-3.584,0.979l-0.216-1.84c1.146-0.478,2.581-0.86,4.156-0.86c3.418,0,4.397,1.602,4.397,3.967v4.73
		c0,1.123,0.023,2.391,0.048,3.417H606.255z M606.135,199.425c-4.133,0-5.041,1.267-5.041,2.342c0,1.003,0.717,1.648,1.816,1.648
		c1.936,0,3.225-1.912,3.225-3.775V199.425L606.135,199.425z"/>
	<path fill="#AA0022" d="M615.741,205.087c-2.438,0-3.179-1.004-3.179-3.561v-6.834h-2.438v-1.673h2.438v-3.847l2.15-0.598v4.444
		h3.321v1.673h-3.321v6.069c0,1.959,0.358,2.484,1.696,2.484c0.55,0,1.146-0.096,1.625-0.216v1.816
		C617.366,204.994,616.506,205.087,615.741,205.087z"/>
	<path fill="#AA0022" d="M622.025,191.062c-0.789,0-1.435-0.622-1.435-1.41c0-0.765,0.646-1.386,1.435-1.386
		c0.788,0,1.434,0.597,1.434,1.386C623.459,190.417,622.813,191.062,622.025,191.062z M620.949,204.897v-11.876h2.149v11.876
		H620.949z"/>
	<path fill="#AA0022" d="M632.013,204.897h-2.222l-4.469-11.876h2.413l2.509,7.072c0.264,0.766,0.502,1.506,0.693,2.246h0.048
		c0.189-0.692,0.405-1.457,0.669-2.174l2.58-7.146h2.317L632.013,204.897z"/>
	<path fill="#AA0022" d="M647.329,198.828h-7.767c-0.096,3.178,1.219,4.541,3.752,4.541c1.219,0,2.51-0.287,3.465-0.742l0.19,1.746
		c-1.146,0.478-2.533,0.739-4.014,0.739c-3.656,0-5.616-1.911-5.616-6.093c0-3.561,1.937-6.213,5.307-6.213
		c3.345,0,4.754,2.27,4.754,4.994C647.4,198.085,647.377,198.421,647.329,198.828z M642.551,194.383
		c-1.554,0-2.651,1.171-2.893,2.916h5.545C645.25,195.554,644.223,194.383,642.551,194.383z"/>
</g>
<g enable-background="new    ">
	<path fill="#9C6043" d="M562.316,140.35l-5.471-15.174l7.801-2.812l0.615,1.708l-5.73,2.066l1.732,4.812l5.463-1.97l0.601,1.662
		l-5.463,1.97l1.896,5.261l5.731-2.066l0.624,1.731L562.316,140.35z"/>
	<path fill="#9C6043" d="M575.179,135.941c-0.832,0.3-1.688,0.534-2.434,0.65l-0.581-1.823c0.777-0.026,1.734-0.193,2.588-0.501
		c1.484-0.535,2.252-1.574,1.879-2.607c-0.897-2.495-5.54,0.905-6.958-3.028c-0.681-1.889,0.344-3.909,3.267-4.962
		c0.675-0.244,1.492-0.437,2.217-0.545l0.563,1.702c-0.777,0.025-1.636,0.183-2.378,0.45c-1.482,0.535-1.998,1.432-1.648,2.397
		c0.884,2.451,5.62-0.755,6.974,2.999C579.394,132.695,578.146,134.872,575.179,135.941z"/>
	<path fill="#9C6043" d="M584.73,132.498c-0.832,0.3-1.688,0.534-2.435,0.65l-0.581-1.823c0.778-0.026,1.734-0.193,2.589-0.501
		c1.483-0.535,2.252-1.574,1.879-2.607c-0.898-2.495-5.541,0.905-6.959-3.028c-0.681-1.889,0.345-3.909,3.267-4.962
		c0.675-0.244,1.494-0.437,2.217-0.544l0.563,1.702c-0.776,0.025-1.635,0.183-2.377,0.45c-1.482,0.535-1.999,1.432-1.649,2.397
		c0.883,2.451,5.621-0.755,6.975,2.999C588.945,129.251,587.697,131.428,584.73,132.498z"/>
	<path fill="#9C6043" d="M596.417,128.21c-0.697,0.251-1.245,0.422-1.938,0.546l2.002,5.552l-2.022,0.729l-6.029-16.725l1.956-0.705
		c0.228,0.63,0.547,1.657,0.64,2.335l0.053,0.006c0.069-1.779,1.079-3.208,2.854-3.848c2.608-0.94,4.756,0.368,5.987,3.785
		C601.354,123.864,600.036,126.906,596.417,128.21z M594.036,117.943c-2.023,0.729-2.206,3.463-1.501,5.418l1.328,3.687
		c0.648-0.031,1.312-0.168,2.076-0.444c2.136-0.77,3.09-2.562,1.931-5.776C597.003,118.422,595.722,117.335,594.036,117.943z"/>
	<path fill="#9C6043" d="M607.118,113.583c-2.507,0.447-3.007,2.582-1.718,6.156l1.619,4.496l-2.021,0.729l-4.027-11.173
		l1.955-0.705c0.252,0.697,0.558,1.756,0.709,2.742l0.045-0.016c-0.087-1.721,0.5-3.685,2.815-4.24L607.118,113.583z"/>
	<path fill="#9C6043" d="M619.034,113.453l-7.307,2.634c0.987,3.021,2.687,3.857,5.068,2.998c1.147-0.413,2.264-1.12,3.009-1.872
		l0.771,1.577c-0.917,0.838-2.132,1.555-3.525,2.057c-3.438,1.24-5.932,0.107-7.35-3.827c-1.207-3.35-0.285-6.501,2.885-7.644
		c3.146-1.134,5.242,0.522,6.167,3.086C618.851,112.731,618.941,113.054,619.034,113.453z M613.031,110.892
		c-1.461,0.526-2.099,2.001-1.731,3.724l5.215-1.88C615.969,111.078,614.604,110.325,613.031,110.892z"/>
	<path fill="#9C6043" d="M625.93,117.646c-0.832,0.3-1.688,0.534-2.434,0.65l-0.581-1.823c0.778-0.026,1.734-0.193,2.588-0.501
		c1.483-0.535,2.253-1.574,1.88-2.607c-0.898-2.495-5.541,0.905-6.959-3.029c-0.682-1.889,0.344-3.909,3.267-4.962
		c0.675-0.243,1.493-0.437,2.217-0.544l0.563,1.701c-0.776,0.026-1.636,0.183-2.377,0.45c-1.483,0.535-1.999,1.432-1.649,2.398
		c0.883,2.451,5.619-0.755,6.974,2.999C630.145,114.4,628.896,116.577,625.93,117.646z"/>
	<path fill="#9C6043" d="M635.481,114.203c-0.831,0.3-1.688,0.534-2.435,0.65l-0.581-1.823c0.778-0.026,1.734-0.193,2.588-0.501
		c1.484-0.535,2.252-1.574,1.88-2.607c-0.898-2.495-5.541,0.905-6.959-3.029c-0.681-1.889,0.345-3.909,3.267-4.962
		c0.675-0.243,1.494-0.437,2.218-0.544l0.563,1.702c-0.778,0.026-1.637,0.183-2.378,0.45c-1.483,0.535-2,1.432-1.65,2.398
		c0.884,2.451,5.621-0.755,6.974,2.999C639.696,110.957,638.449,113.133,635.481,114.203z"/>
	<path fill="#9C6043" d="M647.26,109.958c-3.035,1.094-5.645,0.055-7.063-3.879c-1.184-3.282-0.056-6.635,3.315-7.851
		c2.855-1.029,5.604-0.241,7.055,3.783C651.781,105.382,650.563,108.767,647.26,109.958z M643.941,99.978
		c-1.619,0.583-2.701,2.372-1.705,5.135c0.973,2.698,2.608,3.786,4.653,3.048c1.664-0.6,2.632-2.423,1.604-5.277
		C647.578,100.344,646.01,99.232,643.941,99.978z"/>
</g>
<g enable-background="new    ">
	<path fill="#5A5A5A" d="M471.168,85.087c-5.185,0-7.336-3.298-7.336-7.838c0-4.923,2.438-8.626,7.886-8.626
		c1.243,0,2.509,0.191,3.656,0.478l-0.239,2.008c-1.242-0.383-2.438-0.574-3.656-0.574c-3.68,0-5.256,2.82-5.256,6.356
		c0,3.967,1.721,6.236,5.473,6.236c1.171,0,2.651-0.334,3.607-0.813l0.238,1.96C474.322,84.777,472.793,85.087,471.168,85.087z"/>
	<path fill="#5A5A5A" d="M482.447,85.111c-3.228,0-5.329-1.863-5.329-6.045c0-3.489,2.198-6.261,5.782-6.261
		c3.034,0,5.353,1.673,5.353,5.95C488.253,82.339,485.959,85.111,482.447,85.111z M482.709,74.597c-1.721,0-3.345,1.314-3.345,4.253
		c0,2.868,1.171,4.445,3.345,4.445c1.77,0,3.298-1.387,3.298-4.421C486.007,76.174,484.908,74.597,482.709,74.597z"/>
	<path fill="#5A5A5A" d="M495.397,85.063c-2.845,0-5.21-1.338-5.21-5.711c0-3.823,1.96-6.523,5.927-6.523
		c0.932,0,1.864,0.144,2.7,0.383l-0.239,1.888c-0.741-0.287-1.624-0.502-2.558-0.502c-2.39,0-3.561,1.769-3.561,4.469
		c0,2.317,0.765,4.157,3.394,4.157c1.005,0,2.056-0.239,2.819-0.645l0.167,1.863C498.05,84.752,496.783,85.063,495.397,85.063z"/>
	<path fill="#5A5A5A" d="M505.529,85.111c-3.228,0-5.329-1.863-5.329-6.045c0-3.489,2.198-6.261,5.782-6.261
		c3.034,0,5.353,1.673,5.353,5.95C511.335,82.339,509.041,85.111,505.529,85.111z M505.791,74.597c-1.721,0-3.345,1.314-3.345,4.253
		c0,2.868,1.171,4.445,3.345,4.445c1.769,0,3.298-1.387,3.298-4.421C509.089,76.174,507.99,74.597,505.791,74.597z"/>
	<path fill="#5A5A5A" d="M520.653,84.896c0-0.836,0-1.696,0.12-2.365h-0.05c-0.572,1.457-2.077,2.58-4.038,2.58
		c-1.959,0-3.298-1.051-3.298-2.938c0-2.605,2.652-4.254,7.146-4.254v-0.884c0-1.649-0.646-2.533-2.604-2.533
		c-1.123,0-2.557,0.358-3.584,0.979l-0.216-1.84c1.147-0.478,2.581-0.86,4.157-0.86c3.418,0,4.396,1.602,4.396,3.967v4.731
		c0,1.123,0.024,2.39,0.048,3.417H520.653z M520.533,79.424c-4.133,0-5.041,1.267-5.041,2.342c0,1.003,0.717,1.648,1.815,1.648
		c1.937,0,3.226-1.912,3.226-3.775V79.424L520.533,79.424z"/>
	<path fill="#5A5A5A" d="M530.26,78.779c-0.406,0-0.86,0-1.291-0.048v6.165h-2.197V68.767c1.193-0.048,2.509-0.096,3.966-0.096
		c3.705,0,5.76,1.863,5.76,4.731C536.496,76.556,533.915,78.779,530.26,78.779z M530.498,70.487c-0.598,0-1.075,0-1.529,0.024v6.355
		c0.406,0.072,0.86,0.096,1.314,0.096c2.389-0.023,3.918-1.313,3.918-3.345C534.201,71.61,533.031,70.487,530.498,70.487z"/>
	<path fill="#5A5A5A" d="M542.994,85.111c-3.227,0-5.328-1.863-5.328-6.045c0-3.489,2.198-6.261,5.782-6.261
		c3.035,0,5.353,1.673,5.353,5.95C548.801,82.339,546.507,85.111,542.994,85.111z M543.258,74.597c-1.721,0-3.346,1.314-3.346,4.253
		c0,2.868,1.171,4.445,3.346,4.445c1.769,0,3.297-1.387,3.297-4.421C546.555,76.174,545.455,74.597,543.258,74.597z"/>
	<path fill="#5A5A5A" d="M558.956,84.896c0-0.669,0.048-1.721,0.19-2.413l-0.048-0.024c-0.67,1.602-2.127,2.652-3.989,2.652
		c-2.916,0-4.373-2.127-4.373-5.591c0-4.158,2.389-6.667,6.141-6.667c0.646,0,1.291,0.048,2.008,0.119v-5.52h2.15v17.443
		L558.956,84.896L558.956,84.896z M558.885,74.812c-0.717-0.191-1.434-0.263-2.104-0.263c-2.271,0-3.775,1.362-3.775,4.779
		c0,2.557,0.836,4.015,2.629,4.015c2.15,0,3.25-2.51,3.25-4.588V74.812z"/>
	<path fill="#5A5A5A" d="M566.961,85.111c-0.885,0-1.77-0.071-2.51-0.215l0.072-1.912c0.739,0.239,1.695,0.406,2.604,0.406
		c1.578,0,2.652-0.717,2.652-1.815c0-2.652-5.521-1.027-5.521-5.209c0-2.008,1.649-3.561,4.756-3.561
		c0.718,0,1.554,0.096,2.271,0.239l-0.047,1.792c-0.741-0.239-1.603-0.383-2.392-0.383c-1.575,0-2.364,0.669-2.364,1.696
		c0,2.605,5.544,1.195,5.544,5.186C572.026,83.486,570.115,85.111,566.961,85.111z"/>
</g>
<g enable-background="new    ">
	<path fill="#9C6043" d="M200.621,165.316c-0.55-0.19-1.171-0.263-1.745-0.263c-1.696,0-2.437,0.956-2.437,3.059v0.908h3.297v1.673
		h-3.297v10.203h-2.151v-10.203h-2.437v-1.673h2.437v-0.884c0-3.274,1.601-4.827,4.564-4.827c0.669,0,1.314,0.071,1.959,0.215
		L200.621,165.316z"/>
	<path fill="#9C6043" d="M207.884,180.896c0-0.836,0-1.696,0.12-2.365h-0.048c-0.574,1.457-2.079,2.58-4.038,2.58
		s-3.298-1.051-3.298-2.938c0-2.605,2.652-4.254,7.145-4.254v-0.884c0-1.649-0.645-2.533-2.604-2.533
		c-1.123,0-2.557,0.358-3.584,0.979l-0.215-1.84c1.147-0.478,2.581-0.86,4.158-0.86c3.417,0,4.397,1.602,4.397,3.967v4.731
		c0,1.123,0.024,2.39,0.048,3.417H207.884z M207.765,175.424c-4.134,0-5.042,1.267-5.042,2.342c0,1.003,0.717,1.648,1.816,1.648
		c1.936,0,3.226-1.912,3.226-3.775V175.424L207.765,175.424z"/>
	<path fill="#9C6043" d="M215.865,181.111c-0.884,0-1.769-0.071-2.509-0.215l0.072-1.912c0.741,0.239,1.697,0.406,2.604,0.406
		c1.577,0,2.652-0.717,2.652-1.815c0-2.652-5.52-1.027-5.52-5.209c0-2.008,1.649-3.561,4.755-3.561c0.717,0,1.553,0.096,2.27,0.239
		l-0.047,1.792c-0.741-0.239-1.601-0.383-2.39-0.383c-1.577,0-2.366,0.669-2.366,1.696c0,2.605,5.544,1.195,5.544,5.186
		C220.931,179.486,219.019,181.111,215.865,181.111z"/>
	<path fill="#9C6043" d="M227.812,181.087c-2.438,0-3.178-1.004-3.178-3.561v-6.834h-2.437v-1.673h2.437v-3.847l2.151-0.598v4.444
		h3.321v1.673h-3.321v6.069c0,1.959,0.358,2.485,1.696,2.485c0.55,0,1.147-0.096,1.625-0.216v1.816
		C229.437,180.992,228.576,181.087,227.812,181.087z"/>
	<path fill="#9C6043" d="M233.021,180.896v-17.443h2.15v17.443H233.021z"/>
	<path fill="#9C6043" d="M245.565,180.896c0-0.836,0-1.696,0.12-2.365h-0.048c-0.574,1.457-2.079,2.58-4.038,2.58
		s-3.298-1.051-3.298-2.938c0-2.605,2.652-4.254,7.145-4.254v-0.884c0-1.649-0.645-2.533-2.604-2.533
		c-1.123,0-2.557,0.358-3.584,0.979l-0.215-1.84c1.147-0.478,2.581-0.86,4.158-0.86c3.417,0,4.397,1.602,4.397,3.967v4.731
		c0,1.123,0.024,2.39,0.048,3.417H245.565z M245.445,175.424c-4.134,0-5.042,1.267-5.042,2.342c0,1.003,0.717,1.648,1.816,1.648
		c1.936,0,3.226-1.912,3.226-3.775V175.424z"/>
	<path fill="#9C6043" d="M259.232,180.896v-7.67c0-1.673-0.454-2.652-2.031-2.652c-1.959,0-3.369,1.982-3.369,4.611v5.711h-2.15
		V169.02h2.079c0,0.693-0.048,1.792-0.191,2.485l0.048,0.023c0.693-1.648,2.15-2.748,4.182-2.748c2.724,0,3.584,1.697,3.584,3.8
		v8.315L259.232,180.896L259.232,180.896z"/>
	<path fill="#9C6043" d="M274.357,174.827h-7.766c-0.096,3.178,1.218,4.54,3.751,4.54c1.219,0,2.509-0.287,3.465-0.741l0.191,1.745
		c-1.147,0.478-2.533,0.74-4.014,0.74c-3.656,0-5.616-1.911-5.616-6.093c0-3.561,1.936-6.213,5.305-6.213
		c3.345,0,4.755,2.27,4.755,4.994C274.429,174.085,274.405,174.42,274.357,174.827z M269.579,170.382
		c-1.553,0-2.652,1.171-2.892,2.915h5.544C272.279,171.553,271.251,170.382,269.579,170.382z"/>
</g>
<g enable-background="new    ">
	<path fill="#9C6043" d="M385.711,29.133l0.473-1.918l11.086-10.612c0.736-0.686,1.361-1.279,2.113-1.902
		c-0.908-0.193-2.214-0.485-4.16-0.965l-5.104-1.26l0.569-2.313l12.271,3.025l-0.485,1.974l-11.634,11.016
		c-0.506,0.474-1.005,0.921-1.539,1.386c0.607,0.091,2.3,0.508,4.755,1.113l4.905,1.21l-0.584,2.369L385.711,29.133z"/>
	<path fill="#9C6043" d="M413.74,28.445l-9.168-2.261c-1.038,3.724,0.117,5.714,3.107,6.452c1.438,0.354,3.045,0.391,4.305,0.134
		l-0.281,2.114c-1.493,0.229-3.206,0.138-4.955-0.293c-4.314-1.064-6.072-3.892-4.855-8.828c1.037-4.203,4.094-6.771,8.071-5.791
		c3.949,0.974,4.952,4.064,4.159,7.28C414.039,27.59,413.914,27.979,413.74,28.445z M409.393,21.807
		c-1.834-0.452-3.473,0.61-4.264,2.601l6.545,1.613C412.238,23.975,411.365,22.293,409.393,21.807z"/>
	<path fill="#9C6043" d="M420.62,37.92c-0.874-0.216-1.545-0.41-2.327-0.753l-1.719,6.968l-2.539-0.626l5.176-20.986l2.453,0.604
		c-0.194,0.789-0.564,2.045-0.928,2.793l0.049,0.042c1.27-1.751,3.255-2.52,5.481-1.97c3.272,0.807,4.564,3.579,3.509,7.867
		C428.543,36.853,425.161,39.041,420.62,37.92z M425.133,25.927c-2.539-0.626-4.566,2.017-5.171,4.471l-1.142,4.626
		c0.678,0.406,1.438,0.714,2.398,0.95c2.681,0.661,4.854-0.509,5.848-4.542C427.811,28.415,427.248,26.449,425.133,25.927z"/>
	<path fill="#9C6043" d="M431.122,40.978l5.076-20.592l2.539,0.625l-5.077,20.592L431.122,40.978z"/>
	<path fill="#9C6043" d="M438.456,42.785l3.456-14.019l2.539,0.627l-3.456,14.018L438.456,42.785z M443.752,26.767
		c-0.932-0.229-1.512-1.151-1.281-2.081c0.223-0.903,1.164-1.449,2.096-1.22c0.933,0.229,1.52,1.122,1.289,2.054
		C445.633,26.423,444.684,26.998,443.752,26.767z"/>
	<path fill="#9C6043" d="M454.704,46.792l2.232-9.055c0.486-1.974,0.234-3.263-1.627-3.723c-2.313-0.57-4.555,1.361-5.319,4.464
		l-1.661,6.741l-2.538-0.626l3.457-14.019l2.453,0.605c-0.201,0.818-0.578,2.103-0.949,2.878l0.05,0.042
		c1.298-1.745,3.339-2.618,5.736-2.026c3.216,0.792,3.736,3.046,3.125,5.528l-2.421,9.815L454.704,46.792z"/>
</g>
<g enable-background="new    ">
	<path fill="#FF7528" d="M122.623,388.931h-3.329l-7.854-21.814h3.296l4.88,14.025c0.42,1.262,0.969,2.908,1.422,4.525h0.032
		c0.42-1.553,0.873-3.006,1.519-4.752l5.009-13.799h3.038L122.623,388.931z"/>
	<path fill="#FF7528" d="M136.876,389.222c-1.583,0-3.135-0.193-4.395-0.518l0.162-2.844c1.26,0.451,2.973,0.807,4.492,0.807
		c2.618,0,4.783-1.066,4.783-3.748c0-4.912-9.825-2.973-9.825-9.922c0-3.588,2.844-6.172,7.756-6.172
		c1.325,0,2.65,0.129,3.942,0.387l-0.162,2.65c-1.26-0.355-2.65-0.582-3.942-0.582c-2.974,0-4.525,1.357-4.525,3.395
		c0,4.719,9.857,3.006,9.857,9.824C145.021,386.412,141.951,389.222,136.876,389.222z"/>
	<path fill="#FF7528" d="M158.11,389.191c-7.013,0-9.921-4.461-9.921-10.602c0-6.658,3.296-11.668,10.665-11.668
		c1.681,0,3.394,0.26,4.945,0.646l-0.323,2.715c-1.68-0.518-3.296-0.775-4.944-0.775c-4.977,0-7.11,3.814-7.11,8.598
		c0,5.363,2.327,8.436,7.401,8.436c1.584,0,3.587-0.453,4.88-1.1l0.323,2.65C162.376,388.769,160.308,389.191,158.11,389.191z"/>
	<path fill="#FF7528" d="M173.366,389.222c-4.363,0-7.207-2.521-7.207-8.178c0-4.719,2.974-8.467,7.821-8.467
		c4.104,0,7.239,2.262,7.239,8.047C181.22,385.472,178.117,389.222,173.366,389.222z M173.722,375.001
		c-2.327,0-4.524,1.777-4.524,5.752c0,3.879,1.583,6.012,4.524,6.012c2.392,0,4.46-1.875,4.46-5.979
		C178.182,377.134,176.695,375.001,173.722,375.001z"/>
	<path fill="#FF7528" d="M194.956,388.931c0-0.904,0.065-2.328,0.259-3.264l-0.065-0.033c-0.905,2.166-2.876,3.588-5.397,3.588
		c-3.943,0-5.914-2.877-5.914-7.563c0-5.623,3.231-9.018,8.306-9.018c0.873,0,1.745,0.064,2.715,0.16v-7.465h2.908v23.592h-2.812
		V388.931z M194.859,375.292c-0.97-0.258-1.939-0.355-2.844-0.355c-3.07,0-5.106,1.844-5.106,6.465c0,3.457,1.131,5.43,3.555,5.43
		c2.909,0,4.396-3.395,4.396-6.205L194.859,375.292L194.859,375.292z"/>
	<path fill="#FF7528" d="M215.35,380.722h-10.503c-0.129,4.299,1.648,6.141,5.074,6.141c1.648,0,3.393-0.389,4.686-1.002
		l0.258,2.359c-1.551,0.646-3.426,1.002-5.429,1.002c-4.945,0-7.595-2.586-7.595-8.24c0-4.816,2.618-8.402,7.174-8.402
		c4.525,0,6.432,3.068,6.432,6.754C215.447,379.72,215.415,380.173,215.35,380.722z M208.887,374.71
		c-2.101,0-3.587,1.584-3.911,3.943h7.498C212.539,376.294,211.149,374.71,208.887,374.71z"/>
</g>
<g enable-background="new    ">
	<path fill="#5A5A5A" d="M269.105,166.635c-0.525,0-1.171-0.071-1.648-0.215l0.191-1.888c0.454,0.167,1.004,0.286,1.505,0.286
		c1.481,0,1.912-0.621,1.912-2.747V148.69h2.127v13.19C273.192,165.058,272.212,166.635,269.105,166.635z M272.14,146.731
		c-0.788,0-1.434-0.622-1.434-1.41c0-0.765,0.646-1.386,1.434-1.386c0.765,0,1.41,0.597,1.41,1.386
		C273.55,146.085,272.905,146.731,272.14,146.731z"/>
	<path fill="#5A5A5A" d="M286.19,154.497h-7.766c-0.096,3.178,1.218,4.54,3.751,4.54c1.219,0,2.509-0.287,3.465-0.741l0.191,1.745
		c-1.147,0.478-2.533,0.74-4.014,0.74c-3.656,0-5.616-1.911-5.616-6.093c0-3.561,1.936-6.213,5.305-6.213
		c3.345,0,4.755,2.27,4.755,4.994C286.262,153.755,286.238,154.09,286.19,154.497z M281.411,150.052
		c-1.553,0-2.652,1.171-2.892,2.915h5.544C284.111,151.223,283.083,150.052,281.411,150.052z"/>
	<path fill="#5A5A5A" d="M291.255,160.781c-0.884,0-1.769-0.071-2.509-0.215l0.072-1.912c0.741,0.239,1.697,0.406,2.604,0.406
		c1.577,0,2.652-0.717,2.652-1.815c0-2.652-5.52-1.027-5.52-5.209c0-2.008,1.649-3.561,4.755-3.561c0.717,0,1.553,0.096,2.271,0.239
		l-0.048,1.792c-0.741-0.239-1.601-0.383-2.39-0.383c-1.577,0-2.366,0.669-2.366,1.696c0,2.605,5.544,1.195,5.544,5.186
		C296.321,159.156,294.41,160.781,291.255,160.781z"/>
	<path fill="#5A5A5A" d="M303.202,160.757c-2.437,0-3.178-1.004-3.178-3.561v-6.834h-2.437v-1.673h2.437v-3.847l2.151-0.598v4.444
		h3.321v1.673h-3.321v6.069c0,1.959,0.358,2.485,1.696,2.485c0.55,0,1.147-0.096,1.625-0.216v1.816
		C304.827,160.662,303.967,160.757,303.202,160.757z"/>
</g>
<g enable-background="new    ">
	<path fill="#5A5A5A" d="M147.077,271.56l-9.091-13.262l6.817-4.674l1.024,1.494l-5.011,3.434l2.883,4.205l4.773-3.273l0.997,1.454
		l-4.774,3.272l3.151,4.598l5.011-3.436l1.037,1.514L147.077,271.56z"/>
	<path fill="#5A5A5A" d="M159.283,263.453c-0.963,0.66-1.987,1.188-2.888,1.518l-1.087-1.797c0.954-0.25,2.145-0.746,3.067-1.381
		c1.592-1.09,2.463-2.641,1.346-4.271c-2.047-2.985-7.212,2.286-10.107-1.938c-1.494-2.181-0.843-4.938,2.143-6.983
		c0.807-0.554,1.664-1.026,2.559-1.406l1.007,1.679c-0.915,0.309-1.854,0.75-2.64,1.289c-1.808,1.237-2.186,2.711-1.336,3.947
		c1.966,2.868,7.244-2.279,10.086,1.864C163.062,258.35,162.368,261.337,159.283,263.453z"/>
	<path fill="#5A5A5A" d="M170.987,255.458c-2.77,1.897-5.861,0.928-8.299-2.629c-3.824-5.58-2.822-10.396,1.244-13.184
		c0.216-0.146,0.661-0.425,0.93-0.581l1.078,1.572c-0.395,0.184-0.795,0.399-1.148,0.644c-2.809,1.926-3.063,4.756-1.729,7.799
		c0.096,0.223,0.184,0.479,0.367,0.873l0.033,0.006c-0.084-1.387,0.645-2.81,2.138-3.832c2.534-1.737,5.198-1.139,6.907,1.356
		C174.396,250.234,173.817,253.519,170.987,255.458z M166.272,247.949c-1.807,1.238-1.775,3.18-0.847,4.535
		c1.118,1.631,2.953,2.539,4.761,1.301c1.631-1.119,1.771-3.063,0.612-4.752C169.587,247.263,167.884,246.843,166.272,247.949z"/>
</g>
<g enable-background="new    ">
	<path fill="#9C6043" d="M533.697,339.875c-1.263,0-2.498-0.154-3.502-0.412l0.129-2.266c1.004,0.359,2.369,0.645,3.58,0.645
		c2.086,0,3.812-0.852,3.812-2.988c0-3.916-7.83-2.369-7.83-7.906c0-2.859,2.268-4.92,6.183-4.92c1.056,0,2.111,0.104,3.143,0.309
		l-0.129,2.113c-1.005-0.283-2.112-0.465-3.143-0.465c-2.369,0-3.605,1.082-3.605,2.703c0,3.762,7.855,2.396,7.855,7.83
		C540.188,337.634,537.742,339.875,533.697,339.875z"/>
	<path fill="#9C6043" d="M548.195,339.798c-0.798,0-1.416-0.025-2.163-0.154v6.361h-2.317v-19.162h2.24
		c0,0.721-0.052,1.879-0.206,2.602l0.052,0.025c0.721-1.777,2.268-2.859,4.301-2.859c2.988,0,4.688,2.111,4.688,6.027
		C554.789,337.197,552.343,339.798,548.195,339.798z M549.535,328.517c-2.318,0-3.503,2.703-3.503,4.945v4.225
		c0.67,0.205,1.392,0.309,2.267,0.309c2.447,0,4.07-1.467,4.07-5.15C552.369,330.087,551.467,328.517,549.535,328.517z"/>
	<path fill="#9C6043" d="M564.394,328.876c-2.703-0.463-3.991,1.521-3.991,5.615v5.15h-2.317v-12.801h2.24
		c0,0.799-0.077,1.982-0.283,3.039h0.051c0.541-1.777,1.855-3.555,4.405-3.27L564.394,328.876z"/>
	<path fill="#9C6043" d="M568.384,324.732c-0.85,0-1.545-0.672-1.545-1.521c0-0.824,0.695-1.494,1.545-1.494
		c0.852,0,1.546,0.645,1.546,1.494C569.93,324.037,569.234,324.732,568.384,324.732z M567.225,339.644v-12.801h2.318v12.801H567.225
		z"/>
	<path fill="#9C6043" d="M582.06,339.644v-8.268c0-1.805-0.488-2.859-2.188-2.859c-2.112,0-3.632,2.139-3.632,4.971v6.156h-2.318
		v-12.801h2.241c0,0.746-0.052,1.932-0.206,2.68l0.052,0.023c0.747-1.777,2.317-2.961,4.507-2.961c2.938,0,3.863,1.828,3.863,4.096
		v8.963H582.06z"/>
	<path fill="#9C6043" d="M592.979,346.316c-3.298,0-5.385-1.314-5.385-3.762c0-1.52,0.979-2.729,2.112-3.322
		c-0.772-0.359-1.262-1.029-1.262-1.881c0-0.9,0.54-1.725,1.441-2.137c-1.262-0.723-1.881-2.035-1.881-3.658
		c0-2.705,2.035-4.945,5.615-4.945c0.747,0,1.34,0.078,2.01,0.232h4.354v1.828h-2.164c0.67,0.516,1.082,1.416,1.082,2.498
		c0,2.756-1.906,4.766-5.563,4.766c-0.541,0-1.185-0.076-1.623-0.154c-0.565,0.23-0.824,0.645-0.824,1.057
		c0,0.721,0.646,1.004,2.189,1.004h2.37c2.781,0,4.327,1.34,4.327,3.658C599.777,344.203,596.995,346.316,592.979,346.316z
		 M594.807,339.773h-3.271c-1.005,0.516-1.648,1.365-1.648,2.344c0,1.52,1.442,2.344,3.451,2.344c2.627,0,4.146-1.107,4.146-2.678
		C597.484,340.544,596.609,339.773,594.807,339.773z M593.518,328.335c-2.033,0-3.243,1.264-3.243,2.988
		c0,1.906,1.157,2.938,3.168,2.938c1.932,0,3.168-1.057,3.168-2.938C596.61,329.445,595.476,328.335,593.518,328.335z"/>
	<path fill="#9C6043" d="M613.089,339.72c-1.03,0-2.729-0.051-4.431-0.076v-17.387c1.263-0.025,3.039-0.076,5.126-0.076
		c3.812,0,5.641,1.57,5.641,4.172c0,1.828-1.236,3.451-3.116,4.045v0.051c2.421,0.412,3.503,2.189,3.503,3.992
		C619.813,336.529,618.523,339.72,613.089,339.72z M613.372,324.087c-0.798,0-1.648,0.025-2.344,0.051v5.615
		c0.488,0.025,0.953,0.025,1.57,0.025c2.859,0,4.38-1.135,4.38-3.039C616.979,325.195,616.18,324.087,613.372,324.087z
		 M612.65,331.556c-0.31,0-1.21,0-1.622,0.025v6.078c0.438,0.078,1.185,0.129,2.215,0.129c2.833,0,4.096-1.365,4.096-3.271
		C617.339,332.279,615.33,331.556,612.65,331.556z"/>
	<path fill="#9C6043" d="M627.896,339.875c-3.479,0-5.743-2.008-5.743-6.516c0-3.762,2.369-6.748,6.231-6.748
		c3.271,0,5.771,1.803,5.771,6.414C634.154,336.888,631.682,339.875,627.896,339.875z M628.18,328.542
		c-1.854,0-3.605,1.416-3.605,4.584c0,3.092,1.262,4.791,3.605,4.791c1.905,0,3.555-1.494,3.555-4.764
		C631.733,330.244,630.549,328.542,628.18,328.542z"/>
	<path fill="#9C6043" d="M641.93,339.875c-3.477,0-5.744-2.008-5.744-6.516c0-3.762,2.37-6.748,6.234-6.748
		c3.271,0,5.771,1.803,5.771,6.414C648.189,336.888,645.717,339.875,641.93,339.875z M642.213,328.542
		c-1.854,0-3.604,1.416-3.604,4.584c0,3.092,1.262,4.791,3.604,4.791c1.906,0,3.555-1.494,3.555-4.764
		C645.768,330.244,644.583,328.542,642.213,328.542z"/>
	<path fill="#9C6043" d="M655.347,339.849c-2.628,0-3.426-1.082-3.426-3.838v-7.365h-2.628v-1.803h2.628v-4.146l2.317-0.645v4.791
		h3.581v1.803h-3.581v6.541c0,2.113,0.387,2.68,1.829,2.68c0.593,0,1.235-0.104,1.752-0.23v1.957
		C657.098,339.748,656.171,339.849,655.347,339.849z"/>
</g>
<g enable-background="new    ">
	<path fill="#9C6043" d="M550.344,226.602c-4.826-1.334-5.979-4.956-4.81-9.181c1.267-4.582,4.487-7.4,9.558-6
		c1.156,0.32,2.285,0.824,3.279,1.387l-0.739,1.807c-1.058-0.676-2.12-1.16-3.255-1.475c-3.424-0.947-5.618,1.271-6.528,4.563
		c-1.021,3.691-0.003,6.246,3.488,7.211c1.09,0.303,2.555,0.373,3.567,0.174l-0.282,1.885
		C553.358,227.125,551.855,227.02,550.344,226.602z"/>
	<path fill="#9C6043" d="M564.428,230.305l1.975-7.138c0.431-1.558,0.261-2.586-1.207-2.992c-1.824-0.504-3.647,0.979-4.323,3.425
		l-1.47,5.315l-2.001-0.555l4.487-16.232l2.001,0.554l-1.443,5.226c-0.197,0.713-0.493,1.611-0.81,2.146l0.038,0.035
		c1.063-1.334,2.689-1.938,4.536-1.428c2.534,0.7,2.898,2.502,2.357,4.459l-2.141,7.737L564.428,230.305z"/>
	<path fill="#9C6043" d="M578.208,224.11c-2.225-1.046-3.811,0.358-4.788,3.896l-1.229,4.447l-2.001-0.555l3.056-11.052l1.935,0.534
		c-0.189,0.689-0.54,1.695-0.97,2.558l0.044,0.013c0.893-1.406,2.45-2.627,4.584-1.772L578.208,224.11z"/>
	<path fill="#9C6043" d="M581.699,235.296c-3.002-0.83-4.479-3.105-3.403-6.998c0.897-3.245,3.657-5.26,6.993-4.338
		c2.824,0.781,4.551,2.935,3.45,6.914C587.817,234.21,584.969,236.201,581.699,235.296z M584.65,225.58
		c-1.602-0.441-3.452,0.362-4.208,3.099c-0.738,2.668-0.055,4.438,1.97,4.997c1.646,0.453,3.425-0.441,4.205-3.266
		C587.313,227.896,586.695,226.145,584.65,225.58z"/>
	<path fill="#9C6043" d="M603.705,241.166l1.961-7.094c0.425-1.533,0.34-2.609-1.106-3.011c-1.577-0.437-3.551,0.813-4.288,3.481
		l-1.457,5.271l-1.979-0.547l1.968-7.116c0.381-1.378,0.399-2.57-1.112-2.988c-1.689-0.468-3.589,0.946-4.29,3.481l-1.457,5.271
		l-2.001-0.554l3.056-11.052l1.936,0.535c-0.18,0.645-0.5,1.633-0.817,2.263l0.039,0.035c1.075-1.378,2.773-1.985,4.554-1.494
		c2.334,0.646,2.509,2.44,2.353,3.354c0.757-0.916,2.341-2.058,4.476-1.467c2.09,0.577,2.977,2.043,2.288,4.534l-2.115,7.649
		L603.705,241.166z"/>
	<path fill="#9C6043" d="M619.37,239.417l-7.228-1.998c-0.906,2.933-0.033,4.537,2.323,5.188c1.134,0.313,2.407,0.379,3.415,0.202
		l-0.271,1.673c-1.189,0.149-2.547,0.037-3.927-0.344c-3.401-0.94-4.732-3.224-3.656-7.115c0.916-3.313,3.398-5.282,6.534-4.417
		c3.113,0.861,3.843,3.337,3.142,5.872C619.628,238.748,619.519,239.05,619.37,239.417z M616.066,234.05
		c-1.445-0.398-2.77,0.408-3.441,1.97l5.159,1.427C618.278,235.835,617.623,234.482,616.066,234.05z"/>
	<path fill="#9C6043" d="M624.617,247.117c-2.646-0.732-4.504-2.586-3.378-6.656c0.982-3.558,3.501-5.565,7.191-4.545
		c0.867,0.239,1.698,0.612,2.415,1.051l-0.709,1.695c-0.613-0.457-1.382-0.887-2.249-1.125c-2.224-0.615-3.769,0.729-4.464,3.241
		c-0.597,2.157-0.357,4.065,2.089,4.742c0.935,0.259,1.974,0.308,2.789,0.126l-0.323,1.775
		C627.165,247.509,625.906,247.472,624.617,247.117z"/>
	<path fill="#9C6043" d="M636.358,250.195c0.215-0.777,0.437-1.578,0.72-2.171l-0.044-0.013c-0.909,1.21-2.601,1.867-4.423,1.361
		c-1.823-0.504-2.799-1.826-2.313-3.582c0.67-2.424,3.563-3.275,7.743-2.119l0.228-0.823c0.426-1.534,0.053-2.522-1.771-3.027
		c-1.046-0.288-2.473-0.323-3.588-0.011l0.271-1.768c1.19-0.149,2.623-0.137,4.091,0.27c3.181,0.879,3.681,2.621,3.071,4.822
		l-1.218,4.402c-0.289,1.045-0.593,2.229-0.835,3.192L636.358,250.195z M637.656,245.072c-3.849-1.063-5.02-0.117-5.295,0.883
		c-0.26,0.935,0.24,1.719,1.265,2.002c1.802,0.498,3.495-0.949,3.975-2.685L637.656,245.072z"/>
	<path fill="#9C6043" d="M643.733,252.449c-0.823-0.228-1.628-0.521-2.279-0.845l0.559-1.761c0.628,0.412,1.475,0.814,2.319,1.048
		c1.468,0.405,2.652,0.017,2.936-1.009c0.684-2.467-4.873-2.375-3.797-6.268c0.517-1.867,2.45-2.889,5.342-2.09
		c0.667,0.186,1.42,0.489,2.052,0.807l-0.505,1.655c-0.63-0.413-1.394-0.767-2.127-0.97c-1.468-0.406-2.373,0.014-2.639,0.97
		c-0.67,2.425,4.853,2.538,3.825,6.253C648.865,252.242,646.668,253.259,643.733,252.449z"/>
	<path fill="#9C6043" d="M654.859,255.501c-2.269-0.627-2.698-1.752-2.04-4.131l1.758-6.359l-2.27-0.627l0.432-1.557l2.269,0.627
		l0.99-3.58l2.154-0.004l-1.145,4.137l3.091,0.854l-0.431,1.558l-3.091-0.854l-1.563,5.647c-0.504,1.822-0.307,2.404,0.939,2.75
		c0.512,0.142,1.093,0.205,1.567,0.218l-0.468,1.688C656.396,255.832,655.572,255.699,654.859,255.501z"/>
</g>
<g enable-background="new    ">
	<path fill="#FF7528" d="M313.068,181.591l3.063-12.578l1.715,0.418l-3.063,12.578L313.068,181.591z"/>
	<path fill="#FF7528" d="M323.84,184.214l1.457-5.982c0.317-1.303,0.149-2.154-1.08-2.453c-1.528-0.373-3.005,0.906-3.504,2.957
		l-1.085,4.453l-1.677-0.408l2.255-9.262l1.621,0.395c-0.131,0.54-0.377,1.39-0.621,1.901l0.033,0.028
		c0.854-1.154,2.199-1.734,3.783-1.349c2.125,0.517,2.474,2.004,2.074,3.644l-1.579,6.485L323.84,184.214z"/>
	<path fill="#FF7528" d="M331.297,186.189c-1.902-0.463-2.288-1.387-1.803-3.38l1.298-5.331l-1.901-0.463l0.317-1.304l1.901,0.463
		l0.729-3.001l1.791-0.058l-0.845,3.467l2.591,0.631l-0.317,1.304l-2.591-0.631l-1.151,4.734c-0.373,1.528-0.192,2.007,0.851,2.261
		c0.429,0.104,0.913,0.143,1.308,0.141l-0.344,1.416C332.582,186.423,331.893,186.333,331.297,186.189z"/>
	<path fill="#FF7528" d="M343.518,183.993l-6.056-1.475c-0.679,2.46,0.088,3.772,2.063,4.253c0.949,0.231,2.011,0.253,2.843,0.08
		l-0.183,1.397c-0.985,0.154-2.115,0.097-3.271-0.185c-2.852-0.694-4.016-2.557-3.223-5.819c0.677-2.775,2.688-4.477,5.317-3.837
		c2.608,0.636,3.277,2.674,2.761,4.798C343.715,183.428,343.633,183.684,343.518,183.993z M340.635,179.62
		c-1.211-0.295-2.291,0.409-2.809,1.724l4.324,1.053C342.52,181.045,341.939,179.937,340.635,179.62z"/>
	<path fill="#FF7528" d="M344.863,189.334l3.313-13.604l1.678,0.408l-3.313,13.604L344.863,189.334z"/>
	<path fill="#FF7528" d="M349.709,190.514l3.313-13.604l1.679,0.408l-3.313,13.605L349.709,190.514z"/>
	<path fill="#FF7528" d="M354.557,191.695l2.254-9.262l1.679,0.408l-2.257,9.262L354.557,191.695z M358.021,181.109
		c-0.615-0.15-1-0.757-0.851-1.372c0.146-0.596,0.767-0.958,1.381-0.809c0.615,0.149,1.005,0.739,0.854,1.354
		C359.262,180.878,358.637,181.258,358.021,181.109z"/>
	<path fill="#FF7528" d="M359.201,192.963c-0.54-0.132-0.992-0.3-1.361-0.488l0.363-1.491c0.309,0.193,0.771,0.404,1.236,0.518
		c0.987,0.241,1.646-0.032,2.055-1.71l2.236-9.187l1.715,0.418l-2.264,9.298C362.674,192.409,361.494,193.522,359.201,192.963z"/>
</g>
<g enable-background="new    ">
	<path fill="#FF7528" d="M317.555,94.014v3.328h3.632v1.125h-3.632v4.65h-1.398V92.859h5.228v1.155H317.555z"/>
	<path fill="#FF7528" d="M323.725,94.318c-0.501,0-0.912-0.395-0.912-0.896c0-0.486,0.41-0.882,0.912-0.882s0.912,0.381,0.912,0.882
		C324.637,93.908,324.226,94.318,323.725,94.318z M323.041,103.118v-7.554h1.368v7.554H323.041z"/>
	<path fill="#FF7528" d="M331.794,103.118v-4.879c0-1.063-0.288-1.688-1.292-1.688c-1.246,0-2.143,1.262-2.143,2.934v3.632h-1.368
		v-7.554h1.322c0,0.441-0.03,1.141-0.121,1.581l0.03,0.016c0.44-1.049,1.368-1.748,2.66-1.748c1.731,0,2.279,1.079,2.279,2.416
		v5.289H331.794z"/>
	<path fill="#FF7528" d="M340.289,103.118c0-0.426,0.029-1.094,0.121-1.535l-0.03-0.015c-0.426,1.018-1.353,1.687-2.538,1.687
		c-1.854,0-2.781-1.353-2.781-3.557c0-2.644,1.521-4.24,3.906-4.24c0.41,0,0.82,0.031,1.276,0.076v-3.511h1.368v11.095H340.289z
		 M340.243,96.705c-0.456-0.122-0.912-0.168-1.337-0.168c-1.444,0-2.402,0.866-2.402,3.04c0,1.626,0.532,2.553,1.672,2.553
		c1.368,0,2.067-1.596,2.067-2.918V96.705L340.243,96.705z"/>
	<path fill="#FF7528" d="M346.807,103.164c-0.606,0-1.609-0.03-2.613-0.046V92.859c0.744-0.015,1.793-0.045,3.024-0.045
		c2.249,0,3.328,0.927,3.328,2.462c0,1.079-0.729,2.036-1.839,2.386v0.03c1.429,0.243,2.066,1.292,2.066,2.355
		C350.773,101.279,350.014,103.164,346.807,103.164z M346.975,93.938c-0.471,0-0.973,0.016-1.383,0.03v3.313
		c0.288,0.016,0.563,0.016,0.928,0.016c1.687,0,2.582-0.669,2.582-1.794C349.102,94.591,348.631,93.938,346.975,93.938z
		 M346.549,98.345c-0.183,0-0.715,0-0.957,0.016v3.587c0.258,0.045,0.699,0.076,1.307,0.076c1.672,0,2.416-0.806,2.416-1.931
		C349.314,98.771,348.129,98.345,346.549,98.345z"/>
	<path fill="#FF7528" d="M357.688,103.118c0-0.44,0.047-1.14,0.121-1.58l-0.029-0.016c-0.44,1.049-1.367,1.748-2.659,1.748
		c-1.731,0-2.265-1.079-2.265-2.417v-5.289h1.353v4.879c0,1.063,0.306,1.687,1.292,1.687c1.247,0,2.158-1.261,2.158-2.933v-3.633
		h1.353v7.554H357.688z"/>
	<path fill="#FF7528" d="M364.1,107.054c-1.945,0-3.176-0.775-3.176-2.219c0-0.897,0.578-1.611,1.246-1.961
		c-0.455-0.213-0.744-0.608-0.744-1.109c0-0.532,0.318-1.019,0.852-1.262c-0.745-0.425-1.109-1.2-1.109-2.158
		c0-1.596,1.2-2.918,3.313-2.918c0.44,0,0.791,0.046,1.187,0.137h2.567v1.079h-1.276c0.396,0.305,0.64,0.836,0.64,1.475
		c0,1.626-1.125,2.812-3.283,2.812c-0.318,0-0.699-0.046-0.957-0.091c-0.334,0.137-0.486,0.38-0.486,0.623
		c0,0.425,0.38,0.593,1.292,0.593h1.397c1.643,0,2.554,0.79,2.554,2.157C368.111,105.808,366.471,107.054,364.1,107.054z
		 M365.18,103.194h-1.931c-0.593,0.304-0.974,0.806-0.974,1.383c0,0.896,0.852,1.383,2.037,1.383c1.551,0,2.446-0.653,2.446-1.58
		C366.76,103.65,366.243,103.194,365.18,103.194z M364.42,96.446c-1.201,0-1.916,0.745-1.916,1.763c0,1.125,0.686,1.732,1.87,1.732
		c1.14,0,1.869-0.623,1.869-1.732S365.574,96.446,364.42,96.446z"/>
	<path fill="#FF7528" d="M371.227,103.254c-0.562,0-1.123-0.046-1.596-0.137l0.047-1.216c0.471,0.152,1.078,0.259,1.656,0.259
		c1.003,0,1.688-0.456,1.688-1.155c0-1.688-3.512-0.653-3.512-3.313c0-1.276,1.049-2.265,3.024-2.265
		c0.456,0,0.987,0.062,1.444,0.152l-0.031,1.14c-0.471-0.151-1.018-0.243-1.521-0.243c-1.003,0-1.504,0.426-1.504,1.079
		c0,1.656,3.525,0.76,3.525,3.298C374.449,102.221,373.232,103.254,371.227,103.254z"/>
</g>
<g enable-background="new    ">
	<path fill="#5A5A5A" d="M548.9,268.566c-2.624,0.104-4.855-1.047-5.014-5.082c-0.138-3.527,1.572-6.09,5.232-6.232
		c0.859-0.033,1.726,0.064,2.506,0.256l-0.152,1.75c-0.693-0.237-1.518-0.403-2.378-0.37c-2.204,0.086-3.221,1.76-3.124,4.252
		c0.084,2.139,0.855,3.808,3.28,3.713c0.927-0.036,1.888-0.293,2.578-0.696l0.223,1.715
		C551.336,268.183,550.179,268.516,548.9,268.566z"/>
	<path fill="#5A5A5A" d="M560.488,267.958c-0.029-0.771-0.062-1.564,0.024-2.188l-0.044,0.002c-0.478,1.365-1.826,2.457-3.634,2.526
		c-1.808,0.07-3.08-0.852-3.146-2.594c-0.096-2.401,2.293-4.02,6.438-4.181l-0.031-0.815c-0.06-1.521-0.687-2.313-2.495-2.244
		c-1.035,0.041-2.347,0.424-3.271,1.033l-0.266-1.689c1.041-0.482,2.351-0.887,3.806-0.943c3.153-0.123,4.115,1.319,4.2,3.504
		l0.17,4.362c0.041,1.037,0.107,2.205,0.167,3.151L560.488,267.958z M560.182,262.916c-3.813,0.148-4.606,1.35-4.567,2.342
		c0.036,0.926,0.721,1.494,1.733,1.455c1.787-0.069,2.908-1.879,2.843-3.6L560.182,262.916z"/>
	<path fill="#5A5A5A" d="M571.172,258.312c-2.331-0.307-3.366,1.434-3.229,4.939l0.172,4.41l-1.984,0.076l-0.428-10.958l1.918-0.073
		c0.026,0.684,0,1.699-0.143,2.609l0.046-0.002c0.402-1.539,1.469-3.104,3.66-2.945L571.172,258.312z"/>
	<path fill="#5A5A5A" d="M577.71,267.464c-2.249,0.088-2.969-0.813-3.061-3.172l-0.246-6.308l-2.249,0.089l-0.061-1.544l2.248-0.088
		l-0.139-3.549l1.963-0.629l0.16,4.103l3.063-0.121l0.062,1.543l-3.064,0.121l0.22,5.6c0.069,1.809,0.42,2.279,1.653,2.232
		c0.507-0.021,1.056-0.13,1.491-0.258l0.065,1.676C579.205,267.316,578.416,267.436,577.71,267.464z"/>
	<path fill="#5A5A5A" d="M589.474,266.828l-0.275-7.078c-0.062-1.543-0.515-2.432-1.97-2.373c-1.809,0.069-3.037,1.951-2.942,4.377
		l0.206,5.27l-1.984,0.077l-0.628-16.095l1.984-0.077l0.202,5.181c0.026,0.706,0.019,1.611-0.113,2.191l0.044,0.021
		c0.582-1.524,1.889-2.548,3.719-2.618c2.515-0.099,3.368,1.436,3.443,3.377l0.3,7.672L589.474,266.828z"/>
	<path fill="#5A5A5A" d="M601.023,266.376c-0.029-0.771-0.062-1.564,0.024-2.188l-0.044,0.002c-0.477,1.365-1.825,2.457-3.634,2.526
		c-1.808,0.07-3.079-0.852-3.147-2.594c-0.094-2.401,2.295-4.02,6.439-4.181l-0.032-0.815c-0.06-1.521-0.687-2.313-2.495-2.244
		c-1.035,0.041-2.346,0.424-3.271,1.033l-0.265-1.689c1.041-0.482,2.351-0.887,3.806-0.943c3.151-0.123,4.114,1.319,4.199,3.504
		l0.17,4.362c0.041,1.037,0.107,2.205,0.167,3.151L601.023,266.376z M600.717,261.333c-3.813,0.147-4.605,1.349-4.566,2.34
		c0.035,0.927,0.721,1.496,1.733,1.457c1.786-0.069,2.908-1.879,2.841-3.6L600.717,261.333z"/>
	<path fill="#5A5A5A" d="M610.526,271.724c-2.822,0.111-4.652-0.945-4.733-3.039c-0.051-1.301,0.746-2.369,1.696-2.914
		c-0.674-0.283-1.114-0.84-1.144-1.568c-0.029-0.771,0.405-1.494,1.162-1.877c-1.104-0.576-1.677-1.68-1.729-3.068
		c-0.091-2.313,1.575-4.301,4.641-4.42c0.64-0.024,1.148,0.021,1.729,0.131l3.727-0.145l0.061,1.564l-1.853,0.072
		c0.591,0.418,0.974,1.177,1.01,2.103c0.092,2.358-1.472,4.144-4.604,4.265c-0.462,0.019-1.018-0.027-1.395-0.078
		c-0.478,0.217-0.684,0.58-0.67,0.933c0.024,0.616,0.584,0.838,1.907,0.786l2.028-0.079c2.381-0.095,3.749,1.002,3.825,2.987
		C616.275,269.69,613.966,271.589,610.526,271.724z M610.389,256.317c-1.742,0.067-2.735,1.188-2.679,2.666
		c0.064,1.632,1.091,2.476,2.81,2.407c1.654-0.064,2.678-1.01,2.614-2.619C613.071,257.164,612.064,256.251,610.389,256.317z
		 M611.872,266.064l-2.8,0.109c-0.842,0.474-1.365,1.223-1.332,2.061c0.051,1.301,1.313,1.959,3.032,1.893
		c2.249-0.088,3.513-1.088,3.461-2.434C614.191,266.636,613.416,266.003,611.872,266.064z"/>
	<path fill="#5A5A5A" d="M626.904,259.757l-7.166,0.279c0.025,2.937,1.288,4.146,3.625,4.055c1.125-0.043,2.305-0.354,3.17-0.809
		l0.238,1.604c-1.041,0.482-2.311,0.773-3.677,0.828c-3.374,0.131-5.25-1.563-5.399-5.42c-0.129-3.285,1.562-5.803,4.67-5.924
		c3.088-0.121,4.47,1.924,4.567,4.438C626.943,259.072,626.934,259.38,626.904,259.757z M622.335,255.83
		c-1.434,0.057-2.406,1.176-2.563,2.793l5.114-0.199C624.868,256.812,623.878,255.769,622.335,255.83z"/>
</g>
<g enable-background="new    ">
	<path fill="#5A5A5A" d="M575.697,92.723c-1.551-0.248-3.193-0.208-4.759,0.16c-3.511,0.825-5.981,3.804-4.912,8.35
		c0.997,4.241,4.042,6.083,7.88,5.181c1.137-0.267,2.055-0.669,2.897-1.16l-1.514-6.439l2.297-0.54l1.865,7.93
		c-1.544,1.028-3.531,1.868-5.4,2.308c-5.149,1.212-9.194-1.142-10.436-6.419c-1.229-5.228,1.347-9.91,7.079-11.258
		c1.616-0.38,3.216-0.489,4.844-0.366L575.697,92.723z"/>
	<path fill="#5A5A5A" d="M581.521,91.087c-0.834,0.195-1.67-0.301-1.864-1.135c-0.19-0.808,0.337-1.625,1.17-1.82
		c0.833-0.196,1.664,0.276,1.858,1.108C582.875,90.049,582.354,90.891,581.521,91.087z M583.822,105.974l-2.951-12.55l2.273-0.534
		l2.95,12.55L583.822,105.974z"/>
	<path fill="#5A5A5A" d="M594.299,103.724c-2.576,0.605-3.607-0.271-4.243-2.972l-1.697-7.222l-2.576,0.605l-0.416-1.769
		l2.576-0.605l-0.955-4.065l2.123-1.165l1.104,4.696l3.511-0.825l0.416,1.769l-3.511,0.825l1.508,6.413
		c0.487,2.071,0.997,2.537,2.411,2.204c0.58-0.137,1.188-0.386,1.663-0.631l0.452,1.92
		C595.991,103.22,595.106,103.535,594.299,103.724z"/>
	<path fill="#5A5A5A" d="M599.756,102.228l-4.008-17.045l2.322-0.546l3.539,15.051l6.109-1.438l0.471,1.994L599.756,102.228z"/>
	<path fill="#5A5A5A" d="M617.203,98.125c-0.207-0.884-0.421-1.793-0.461-2.529l-0.051,0.012c-0.244,1.684-1.557,3.244-3.626,3.73
		c-2.07,0.487-3.746-0.292-4.216-2.286c-0.646-2.752,1.746-5.154,6.493-6.271l-0.22-0.935c-0.41-1.742-1.313-2.517-3.382-2.029
		c-1.188,0.279-2.613,1.016-3.545,1.926l-0.685-1.89c1.094-0.79,2.515-1.551,4.181-1.942c3.61-0.85,5.044,0.599,5.632,3.099l1.176,5
		c0.278,1.188,0.619,2.52,0.899,3.599L617.203,98.125z M615.718,92.373c-4.369,1.027-5.013,2.592-4.746,3.728
		c0.249,1.061,1.167,1.564,2.329,1.291c2.045-0.48,2.935-2.821,2.472-4.791L615.718,92.373z"/>
	<path fill="#5A5A5A" d="M628.027,95.767c-1.742,0.409-3.017,0.55-4.438,0.511l-4.257-18.106l2.271-0.534l1.432,6.086
		c0.172,0.732,0.327,1.735,0.325,2.402l0.056,0.014c0.267-1.929,1.588-3.332,3.482-3.777c2.954-0.695,5.107,0.984,6.011,4.822
		C633.944,91.579,632.067,94.817,628.027,95.767z M626.81,84.355c-2.271,0.535-2.811,3.459-2.3,5.63l0.979,4.167
		c0.704,0.048,1.409-0.011,2.294-0.219c2.397-0.563,3.649-2.377,2.802-5.987C629.949,85.243,628.703,83.91,626.81,84.355z"/>
</g>
<g enable-background="new    ">
	<path fill="#9C6043" d="M596.369,22.289l-1.677-11.468c-0.323-2.264-0.499-3.704-0.617-4.881h-0.061
		c-0.205,0.941-0.528,2.176-0.97,3.588l-4.264,12.761H585.9l-4.027-11.908c-0.5-1.5-1.029-3.146-1.265-4.44h-0.03
		c-0.117,1.617-0.322,3.205-0.56,5.146l-1.352,11.203h-2.765l2.91-19.848h3.322l4.176,12.497c0.5,1.44,0.883,2.764,1.117,3.939h0.06
		c0.295-1.382,0.588-2.352,1.059-3.764l4.322-12.673h3.353l2.999,19.848H596.369z"/>
	<path fill="#9C6043" d="M608.342,22.553c-3.97,0-6.557-2.294-6.557-7.438c0-4.293,2.705-7.703,7.115-7.703
		c3.733,0,6.586,2.058,6.586,7.321C615.486,19.142,612.664,22.553,608.342,22.553z M608.665,9.616c-2.117,0-4.116,1.617-4.116,5.233
		c0,3.528,1.44,5.47,4.116,5.47c2.176,0,4.058-1.706,4.058-5.44C612.723,11.556,611.37,9.616,608.665,9.616z"/>
	<path fill="#9C6043" d="M624.282,22.495c-3.499,0-6.41-1.646-6.41-7.027c0-4.705,2.411-8.027,7.292-8.027
		c1.146,0,2.293,0.176,3.322,0.471l-0.293,2.322c-0.912-0.353-2-0.617-3.146-0.617c-2.94,0-4.381,2.176-4.381,5.498
		c0,2.853,0.94,5.116,4.175,5.116c1.235,0,2.528-0.294,3.47-0.794l0.205,2.294C627.546,22.112,625.987,22.495,624.282,22.495z"/>
	<path fill="#9C6043" d="M640.016,22.289l-5.409-7.527v7.527h-2.646V0.824h2.646v13.261l5.146-6.409h3.204l-5.616,6.674l6.059,7.939
		H640.016z"/>
	<path fill="#9C6043" d="M657.014,22.289l-7.85-9.821v9.821h-2.705V2.441h2.705v9.351l7.879-9.351h3.323l-8.38,9.586l8.703,10.262
		H657.014z"/>
</g>
<g enable-background="new    ">
	<path fill="#5A5A5A" d="M622.446,156.363c-0.116,4.214-0.837,5.818-3.501,6.738c-0.459,0.158-1.114,0.304-1.623,0.398l-0.484-2.029
		c0.567-0.006,1.076-0.101,1.634-0.293c1.331-0.46,1.825-1.308,1.869-3.925l0.04-1.532l-8.709-10.462l2.47-0.854l4.436,5.461
		c0.764,0.956,1.355,1.809,1.948,2.661l0.049-0.017c-0.075-0.922-0.094-2.624-0.094-4.115l0.029-6.19l2.373-0.82L622.446,156.363z"
		/>
	<path fill="#5A5A5A" d="M635.175,150.61c-0.293-0.848-0.595-1.72-0.707-2.439l-0.049,0.017c-0.071,1.678-1.203,3.343-3.188,4.028
		c-1.985,0.686-3.709,0.089-4.37-1.824c-0.911-2.639,1.198-5.238,5.752-6.811l-0.311-0.896c-0.577-1.671-1.541-2.341-3.525-1.655
		c-1.139,0.393-2.467,1.259-3.289,2.248l-0.862-1.789c0.995-0.887,2.313-1.776,3.913-2.328c3.462-1.196,5.016,0.084,5.844,2.48
		l1.656,4.795c0.394,1.139,0.86,2.413,1.244,3.446L635.175,150.61z M633.138,145.106c-4.188,1.447-4.666,3.049-4.29,4.138
		c0.353,1.018,1.306,1.42,2.418,1.035c1.961-0.677,2.601-3.066,1.947-4.956L633.138,145.106z"/>
	<path fill="#5A5A5A" d="M643.808,136.298c-2.692,0.443-3.261,2.726-1.931,6.576l1.673,4.844l-2.179,0.752l-4.157-12.035
		l2.106-0.728c0.26,0.75,0.571,1.889,0.721,2.948l0.049-0.017c-0.068-1.846,0.589-3.943,3.078-4.506L643.808,136.298z"/>
	<path fill="#5A5A5A" d="M657.618,142.857l-2.687-7.773c-0.585-1.696-1.388-2.529-2.985-1.977c-1.985,0.686-2.722,3.188-1.8,5.853
		l1.998,5.788l-2.18,0.752l-4.157-12.034l2.107-0.728c0.242,0.701,0.578,1.833,0.676,2.585l0.058,0.007
		c0.125-1.913,1.217-3.538,3.274-4.249c2.761-0.954,4.228,0.465,4.962,2.596l2.911,8.428L657.618,142.857z"/>
</g>
<g enable-background="new    ">
	<path fill="#FF7528" d="M465.175,240.175c-0.479-0.43-1.086-0.771-1.673-1.016c-1.736-0.726-2.902-0.064-3.803,2.088l-0.39,0.93
		l3.375,1.41l-0.717,1.713l-3.374-1.411l-4.366,10.44l-2.2-0.92l4.366-10.441l-2.493-1.043l0.715-1.711l2.494,1.043l0.379-0.905
		c1.399-3.351,3.704-4.255,6.735-2.987c0.686,0.287,1.313,0.637,1.912,1.061L465.175,240.175z"/>
	<path fill="#FF7528" d="M460.001,256.744l7.465-17.851l2.2,0.921l-7.465,17.852L460.001,256.744z"/>
	<path fill="#FF7528" d="M470.597,261.433c-3.302-1.381-4.654-4.188-2.865-8.467c1.491-3.57,4.928-5.467,8.596-3.932
		c3.104,1.299,4.762,4.002,2.932,8.379C477.725,261.082,474.19,262.936,470.597,261.433z M475.365,250.787
		c-1.763-0.736-3.986-0.086-5.244,2.92c-1.229,2.937-0.704,5.051,1.521,5.98c1.811,0.758,3.969-0.007,5.267-3.111
		C478.064,253.812,477.614,251.727,475.365,250.787z"/>
	<path fill="#FF7528" d="M492.65,270.397l-2.47-1.032l0.574-8.178c0.073-0.859,0.189-1.76,0.328-2.707l-0.025-0.01
		c-0.692,0.974-1.386,1.805-2.133,2.697l-4.76,5.682l-2.445-1.021l1.34-13.719l2.422,1.012l-0.852,7.258
		c-0.153,1.258-0.295,2.49-0.449,3.547l0.024,0.011c0.694-0.974,1.403-1.912,2.14-2.781l4.811-5.659l2.347,0.98l-0.596,7.335
		c-0.146,1.721-0.252,2.595-0.422,3.616l0.024,0.011c0.674-0.925,1.262-1.713,2.141-2.783l4.696-5.733l2.323,0.971L492.65,270.397z"
		/>
</g>
<g enable-background="new    ">
	<path fill="#FF7528" d="M200.315,14.585c-0.492,0-1.043,0-1.564-0.058v7.476h-2.666V2.444c1.449-0.058,3.042-0.115,4.81-0.115
		c4.492,0,6.983,2.26,6.983,5.737C207.878,11.891,204.749,14.585,200.315,14.585z M200.605,4.531c-0.725,0-1.304,0-1.854,0.029
		v7.707c0.493,0.087,1.043,0.116,1.594,0.116c2.897-0.029,4.752-1.594,4.752-4.057C205.096,5.892,203.676,4.531,200.605,4.531z"/>
	<path fill="#FF7528" d="M229.52,22.003l-1.652-11.301c-0.319-2.231-0.493-3.651-0.608-4.811h-0.058
		c-0.203,0.928-0.521,2.145-0.956,3.535l-4.202,12.576h-2.84l-3.97-11.735c-0.493-1.478-1.014-3.101-1.246-4.376h-0.029
		c-0.116,1.594-0.319,3.159-0.55,5.071l-1.333,11.04h-2.724l2.869-19.56h3.274l4.115,12.315c0.493,1.42,0.869,2.724,1.101,3.883
		h0.058c0.29-1.362,0.58-2.318,1.043-3.709l4.26-12.489h3.303l2.956,19.56L229.52,22.003L229.52,22.003z"/>
	<path fill="#FF7528" d="M241.133,22.12c-1.97,0-3.506-0.116-4.955-0.116V2.473c1.507-0.029,3.709-0.116,5.854-0.116
		c6.259,0,9.997,2.927,9.997,9.649C252.028,18.7,247.537,22.12,241.133,22.12z M241.771,4.531c-1.014,0-2.203,0.058-2.927,0.087
		v15.067c0.724,0.116,1.796,0.174,2.579,0.174c4.579,0,7.795-2.376,7.795-7.679C249.218,7.197,246.842,4.531,241.771,4.531z"/>
</g>
</svg>
